<svg width="152" height="109" viewBox="0 0 152 109" fill="none" xmlns="http://www.w3.org/2000/svg">
<g clip-path="url(#clip0_596_558)">
<mask id="mask0_596_558" style="mask-type:luminance" maskUnits="userSpaceOnUse" x="-1" y="-1" width="147" height="101">
<path d="M82.5483 5.76311C62.1014 -3.55415 33.8866 -2.04758 26.8715 11.7029C22.4107 20.4336 28.1301 31.8317 21.9603 39.3892C17.9622 44.2855 15.8706 44.8783 10.9717 48.867C6.77624 52.2815 3.12986 55.6218 1.1555 60.8886C-1.59008 68.1992 -0.436322 76.6273 3.8579 83.0611C7.55364 88.5996 13.9765 91.4645 19.9674 93.7614C28.4818 97.0216 37.7983 98.4046 46.8741 98.0033C59.4051 97.4538 71.8251 93.144 84.2573 94.8111C90.2914 95.62 96.0602 97.8181 102.033 99.0097C113.546 101.3 127.779 99.4172 134.671 88.5502C137.571 83.9749 138.608 78.5661 137.96 73.2005C137.244 67.2854 135.547 61.1974 136.757 55.2267C138.102 48.5953 142.926 43.205 144.975 36.765C148.479 25.756 142.205 12.5365 131.494 8.36255C127.286 6.72015 122.689 6.37438 118.173 6.34968C106.105 6.27559 93.5491 10.7768 82.5483 5.76311Z" fill="white"/>
</mask>
<g mask="url(#mask0_596_558)">
<path d="M157 -9H-9V104.067H157V-9Z" fill="#FF8C45"/>
</g>
<mask id="mask1_596_558" style="mask-type:luminance" maskUnits="userSpaceOnUse" x="-1" y="-1" width="147" height="101">
<path d="M82.5483 5.76311C62.1014 -3.55415 33.8866 -2.04758 26.8715 11.7029C22.4107 20.4336 28.1301 31.8317 21.9603 39.3892C17.9622 44.2855 15.8706 44.8783 10.9717 48.867C6.77624 52.2815 3.12986 55.6218 1.1555 60.8886C-1.59008 68.1992 -0.436322 76.6273 3.8579 83.0611C7.55364 88.5996 13.9765 91.4645 19.9674 93.7614C28.4818 97.0216 37.7983 98.4046 46.8741 98.0033C59.4051 97.4538 71.8251 93.144 84.2573 94.8111C90.2914 95.62 96.0602 97.8181 102.033 99.0097C113.546 101.3 127.779 99.4172 134.671 88.5502C137.571 83.9749 138.608 78.5661 137.96 73.2005C137.244 67.2854 135.547 61.1974 136.757 55.2267C138.102 48.5953 142.926 43.205 144.975 36.765C148.479 25.756 142.205 12.5365 131.494 8.36255C127.286 6.72015 122.689 6.37438 118.173 6.34968C106.105 6.27559 93.5491 10.7768 82.5483 5.76311Z" fill="white"/>
</mask>
<g mask="url(#mask1_596_558)">
<path d="M37.0579 79.3997C34.0038 87.1177 31.8629 96.6634 29.9934 104.067L131.179 105.777C133.715 97.1944 134.634 85.0431 132.987 76.2013C132.493 73.5586 131.58 70.9654 130.648 68.5141C120.166 77.0287 105.321 83.0673 91.5254 84.8579C73.2564 87.2721 53.9139 86.6608 37.0579 79.3997Z" fill="#736B66"/>
</g>
<mask id="mask2_596_558" style="mask-type:luminance" maskUnits="userSpaceOnUse" x="-1" y="-1" width="147" height="101">
<path d="M82.5483 5.76311C62.1014 -3.55415 33.8866 -2.04758 26.8715 11.7029C22.4107 20.4336 28.1301 31.8317 21.9603 39.3892C17.9622 44.2855 15.8706 44.8783 10.9717 48.867C6.77624 52.2815 3.12986 55.6218 1.1555 60.8886C-1.59008 68.1992 -0.436322 76.6273 3.8579 83.0611C7.55364 88.5996 13.9765 91.4645 19.9674 93.7614C28.4818 97.0216 37.7983 98.4046 46.8741 98.0033C59.4051 97.4538 71.8251 93.144 84.2573 94.8111C90.2914 95.62 96.0602 97.8181 102.033 99.0097C113.546 101.3 127.779 99.4172 134.671 88.5502C137.571 83.9749 138.608 78.5661 137.96 73.2005C137.244 67.2854 135.547 61.1974 136.757 55.2267C138.102 48.5953 142.926 43.205 144.975 36.765C148.479 25.756 142.205 12.5365 131.494 8.36255C127.286 6.72015 122.689 6.37438 118.173 6.34968C106.105 6.27559 93.5491 10.7768 82.5483 5.76311Z" fill="white"/>
</mask>
<g mask="url(#mask2_596_558)">
<path d="M103.779 79.6405C102.983 86.7658 101.286 93.7615 98.7317 100.461C98.6022 100.8 99.1451 100.949 99.2747 100.609C101.848 93.8602 103.544 86.8214 104.34 79.6405C104.383 79.2824 103.816 79.2824 103.779 79.6405Z" fill="#3F3C36"/>
</g>
<path d="M7.50448 42.9642C10.7252 41.8343 13.9396 38.8582 15.3402 36.833C17.7218 33.3876 20.4859 27.8738 20.3995 23.5826C20.3625 21.6994 19.511 19.7236 17.8452 18.8406C16.4199 18.0873 14.6739 18.254 13.1499 18.7603C8.80632 20.1928 5.67204 23.9839 3.30281 27.8985C1.64312 30.6462 0.205543 33.6469 0.0389573 36.8515C-0.0535906 38.6174 0.298091 40.5006 1.47653 41.8219C3.10538 43.6496 5.30802 43.736 7.50448 42.9642Z" fill="#FF8C45"/>
<path d="M38.6065 16.8401L36.626 17.9206C35.4229 18.8221 35.5833 19.1123 35.3056 20.5942L34.6084 24.9965C34.5838 25.1447 34.3678 25.1447 34.3431 24.9965L33.6583 20.6189C33.3868 19.1432 33.4115 18.8221 32.2207 17.9206L30.3451 16.8401C30.271 16.7845 30.271 16.6796 30.3451 16.624L32.4675 15.6114C33.6521 14.7099 33.5843 14.111 33.8557 12.6415L34.3431 8.47988C34.3678 8.3317 34.5838 8.3317 34.6084 8.47988L35.1822 12.7897C35.4475 14.2468 35.5956 14.8581 36.7741 15.7596L38.6127 16.6178C38.6806 16.6796 38.6806 16.7907 38.6065 16.8401Z" fill="#C9C7C5"/>
<path d="M46.4671 27.3675L45.0912 28.1208C44.2521 28.7444 44.3693 28.9482 44.1719 29.9793L43.6906 33.0357C43.6721 33.1407 43.524 33.1345 43.5055 33.0357L43.0304 29.9979C42.8392 28.9729 42.8639 28.7506 42.0309 28.1208L40.7353 27.3675C40.6859 27.3305 40.6859 27.2564 40.7353 27.2194L42.2099 26.5155C43.0304 25.8857 42.9873 25.472 43.1724 24.4532L43.5117 21.5636C43.5302 21.4586 43.6783 21.4586 43.6968 21.5636L44.0917 24.5582C44.2768 25.5708 44.3816 25.9906 45.1961 26.6204L46.4732 27.2194C46.5164 27.2564 46.5164 27.3305 46.4671 27.3675Z" fill="#C9C7C5"/>
<path d="M20.097 32.2268L17.6105 33.5791C16.0989 34.709 16.3025 35.0733 15.957 36.9318L15.0871 42.4517C15.05 42.637 14.7909 42.637 14.7539 42.4517L13.8963 36.9688C13.5569 35.1227 13.5878 34.7152 12.0947 33.5852L9.74397 32.233C9.65142 32.1651 9.65142 32.0293 9.74397 31.9613L12.4032 30.6894C13.8901 29.5595 13.8037 28.8062 14.1431 26.9724L14.7539 21.7611C14.7909 21.5759 15.05 21.5759 15.0871 21.7611L15.8028 27.1638C16.1359 28.9914 16.321 29.7509 17.7956 30.887L20.1032 31.9675C20.1895 32.0231 20.1895 32.1589 20.097 32.2268Z" fill="#C9C7C5"/>
<path d="M65.7478 31.3007C61.6264 28.6765 60.2875 22.7614 62.8665 18.5442C65.4455 14.3271 71.5413 12.4439 76.0268 14.4876C77.8161 15.3027 79.4449 16.6672 81.4501 16.6796C83.4245 16.6919 85.1397 15.3767 86.9351 14.5247C90.3779 12.8946 94.8202 13.049 97.5534 15.4879C98.8985 16.6857 99.7869 18.3528 101.305 19.3469C103.254 20.625 105.87 20.5571 108.246 20.1434C110.621 19.7297 112.997 19.0197 115.384 19.1864C117.766 19.3531 120.036 20.4275 121.591 22.1316C123.707 24.447 124.664 27.9356 127.613 29.1767C128.804 29.6768 130.155 29.72 131.463 29.8682C136.658 30.4486 141.834 33.1345 143.821 37.7344C145.876 42.4888 145.592 51.0033 140.354 52.2506C128.65 55.0291 139.638 61.4382 126.94 66.1925C124.436 67.131 120.721 61.2468 118.482 59.944C117.069 59.1228 116.174 57.6965 114.928 56.6591C113.114 55.1341 110.522 54.4919 108.104 54.9612C102.082 56.1405 98.1457 63.451 92.0499 63.2102C90.6494 63.1547 89.0637 62.389 89.0143 61.043C88.9897 60.4256 89.2982 59.839 89.6067 59.2895C91.0504 56.7147 92.7224 54.0967 92.8767 51.2133C93.0248 48.373 88.4652 49.4042 86.0158 47.8852C83.4738 46.3108 77.6803 51.2442 75.7862 48.9781C74.7064 47.6877 73.1393 43.4026 72.3002 41.9516C70.5603 38.9323 73.1578 30.8191 69.604 31.7205L65.7478 31.3007Z" fill="#3F3C36"/>
<path d="M62.3235 25.3793C61.25 24.6446 59.6458 25.1015 58.5537 25.6078C57.2272 26.2252 56.6411 27.3675 56.9681 28.8062C57.1779 29.7262 57.6961 30.6276 57.511 31.597C57.2581 32.9369 55.9994 32.5232 55.0616 32.9492C54.568 33.1715 54.241 33.5852 54.0498 34.0792C53.8955 34.4743 53.624 35.5116 53.803 35.8512C53.6302 35.5302 53.1428 35.8142 53.3155 36.1352C53.4574 36.4069 53.7721 36.5983 54.0806 36.444C54.5063 36.234 54.3336 35.6413 54.3706 35.2523C54.4138 34.8077 54.5002 34.3076 54.7531 33.931C55.1295 33.3753 55.7218 33.3753 56.3141 33.2826C56.8879 33.19 57.4062 33.0418 57.7517 32.5479C58.634 31.276 57.7023 29.8064 57.474 28.5098C57.2581 27.2687 57.9553 26.4661 59.0412 26.0277C59.9296 25.6695 61.1944 25.2991 62.0397 25.8795C62.342 26.0709 62.6259 25.5831 62.3235 25.3793Z" fill="#3F3C36"/>
<path d="M62.0581 24.7372C60.565 24.1877 59.0041 23.2368 57.3629 23.7925C56.8384 23.9716 56.3448 24.305 56.061 24.7866C55.8883 25.083 55.8142 25.4164 55.7649 25.7498C55.7279 25.9721 55.7587 26.4043 55.623 26.5957C55.2898 26.7995 54.9505 26.9971 54.6173 27.2008C54.5247 27.1391 54.426 27.102 54.3211 27.0897C53.0193 27.0465 52.4208 27.9726 52.0753 29.1273C51.847 29.8991 51.736 30.745 51.2362 31.3995C50.5699 32.2701 49.4161 32.5232 48.4104 32.1589C48.2562 32.1033 48.1204 32.2268 48.0649 32.3565C47.9353 32.6714 47.9662 32.8875 48.1636 33.1654C48.3734 33.4556 48.867 33.1777 48.651 32.8813C48.6387 32.7578 48.6264 32.6343 48.614 32.5109C48.4968 32.5788 48.3796 32.6405 48.2685 32.7084C49.4655 33.1345 50.8722 32.8011 51.6743 31.7823C52.5134 30.7141 52.2851 28.3925 53.5869 27.7936C54.3088 27.4602 54.969 28.1579 55.6723 27.5775C56.2153 27.1267 56.2153 26.429 56.3448 25.7992C56.9372 22.959 60.2627 24.6878 61.9162 25.2929C62.2556 25.4041 62.3975 24.8607 62.0581 24.7372Z" fill="#3F3C36"/>
<path d="M77.014 59.5488C77.7112 63.7536 81.8203 64.8341 85.5469 64.6551C90.2669 64.4328 94.8202 62.8336 98.7134 60.1848C100.577 58.919 102.286 57.4371 103.865 55.8318C104.383 55.307 107.993 50.4785 108.32 50.5403C103.174 49.5585 97.8188 49.4103 92.7286 49.4165C87.7557 49.4227 83.2517 49.3548 79.0316 49.5338C77.267 52.547 76.4217 55.9429 77.014 59.5488Z" fill="#C9C7C5"/>
<path d="M117.525 53.4917C114.613 52.0777 111.504 51.1515 108.32 50.5464C107.987 50.4847 104.075 55.6404 103.507 56.1961C101.712 57.9743 99.75 59.5859 97.5967 60.9134C93.4012 63.5005 87.5892 64.8588 82.8137 64.3957C75.7492 63.7042 76.0516 54.6278 79.0316 49.54C71.6278 49.8549 65.1124 50.9354 58.56 54.5413C50.6996 58.8696 44.5359 66.1925 40.1307 74.386C39.3039 75.9296 38.5327 77.6153 37.8108 79.3997C55.0124 86.6608 74.7436 87.2721 93.3827 84.8579C107.462 83.0673 119.95 77.0287 130.649 68.5141C128.175 62.1297 124.053 56.653 117.525 53.4917Z" fill="#736B66"/>
<path d="M96.622 50.1636L72.0351 27.8121C68.9008 29.0532 65.3963 28.2814 62.8914 26.1327C61.2687 32.2083 59.9237 42.4888 66.2786 49.824L71.4983 43.8348C71.4983 43.8348 74.2439 50.6267 76.9586 57.3013C79.5006 63.5499 87.5153 65.2911 92.4203 60.6726C92.482 60.6108 92.5499 60.5491 92.6116 60.4873C96.6713 56.6406 100.762 53.9239 96.622 50.1636Z" fill="#C9C7C5"/>
<path d="M72.035 27.8121L64.6065 21.0573C64.6065 21.0573 63.7181 23.0578 62.8975 26.1327C65.3963 28.2814 68.9007 29.0532 72.035 27.8121Z" fill="#C9C7C5"/>
<path d="M80.5618 28.7691C80.315 31.0166 78.2913 32.6405 76.0454 32.3935C73.7996 32.1466 72.1769 30.1213 72.4237 27.8738C72.6705 25.6263 74.6942 24.0025 76.9401 24.2494C79.1859 24.4964 80.8086 26.5216 80.5618 28.7691Z" fill="#C9C7C5"/>
<path d="M75.848 30.1584C76.4897 28.8 77.1375 27.4416 77.8038 26.1018C77.9643 25.7745 77.4768 25.4905 77.3164 25.8177C76.6501 27.1638 76.0022 28.5222 75.3606 29.8744C75.2002 30.2016 75.6876 30.4856 75.848 30.1584Z" fill="#3F3C36"/>
<path d="M71.4983 43.841L77.1437 57.5545L75.0336 39.1608L71.4983 43.841Z" fill="#3F3C36"/>
<path d="M61.9288 30.5783C61.1699 33.116 60.5714 35.8327 60.3246 38.4754C60.3061 38.6977 60.5776 38.815 60.7504 38.7162C61.6697 38.2161 62.589 37.7221 63.5083 37.222C63.8291 37.0491 63.5453 36.5613 63.2245 36.7342C62.3052 37.2343 61.3858 37.7283 60.4665 38.2284C60.6084 38.3087 60.7504 38.389 60.8923 38.4754C61.1329 35.8883 61.7314 33.2148 62.4779 30.7326C62.5766 30.3807 62.0337 30.2263 61.9288 30.5783Z" fill="#3F3C36"/>
<path d="M66.5748 32.7579C67.4694 31.7329 68.7096 31.1957 70.0731 31.2575C70.4371 31.276 70.4371 30.7079 70.0731 30.6956C68.5738 30.6277 67.1671 31.2328 66.1799 32.3627C65.9393 32.6282 66.3342 33.0295 66.5748 32.7579Z" fill="#3F3C36"/>
<path d="M65.2481 40.7352C66.6548 41.5811 68.3885 40.1672 67.7469 38.6174C67.6111 38.284 67.062 38.4322 67.2039 38.7656C67.642 39.8338 66.5499 40.8587 65.5319 40.2413C65.2234 40.056 64.9396 40.5438 65.2481 40.7352Z" fill="#3F3C36"/>
<path d="M66.2169 31.1093C66.3526 31.4303 66.4883 31.7514 66.6302 32.0725C66.6919 32.2145 66.8955 32.2454 67.0189 32.1713C67.167 32.091 67.1794 31.9243 67.1177 31.7823C66.9819 31.4612 66.8462 31.1401 66.7043 30.8191C66.6426 30.677 66.439 30.6462 66.3156 30.7203C66.1675 30.8005 66.1552 30.9672 66.2169 31.1093Z" fill="#3F3C36"/>
<path d="M68.5675 30.9425C68.4441 30.5597 68.3145 30.1769 68.1911 29.7941C68.08 29.4483 67.5309 29.5965 67.6482 29.9423C67.7715 30.3251 67.9011 30.7079 68.0245 31.0907C68.1356 31.4365 68.6785 31.2883 68.5675 30.9425Z" fill="#3F3C36"/>
<path d="M69.8755 30.8623C69.8262 30.603 69.894 30.3251 70.0668 30.1214C70.3013 29.8435 69.9002 29.4422 69.6658 29.72C69.3573 30.0905 69.24 30.535 69.3326 31.0105C69.4005 31.3686 69.9434 31.2204 69.8755 30.8623Z" fill="#3F3C36"/>
<path d="M65.8591 26.1141C66.7352 25.7745 67.6792 26.003 68.29 26.7192C68.5245 26.9971 68.9255 26.5957 68.6911 26.3179C67.9569 25.4658 66.7599 25.1571 65.711 25.5646C65.3779 25.7004 65.5198 26.2438 65.8591 26.1141Z" fill="#3F3C36"/>
<path d="M70.221 71.4779C67.1052 74.207 61.6881 77.3745 58.0787 79.4923C59.2571 79.5849 61.7683 80.3752 61.2315 81.3632C60.6947 82.3511 59.5533 82.9068 58.4921 83.3946C56.6411 84.2405 54.7902 85.0925 52.9392 85.9384C52.1186 86.3151 51.261 86.6979 50.3479 86.7164C49.4347 86.7349 48.4476 86.2718 48.2069 85.4506C48.0527 84.9382 49.7185 83.0426 49.262 82.7277C48.8239 82.4252 46.6583 83.9132 46.177 84.1602C41.198 86.7596 36.2127 89.3652 31.2337 91.9647C30.7216 92.2302 30.1663 92.508 29.5925 92.434C28.9755 92.3537 28.5066 91.9029 28.087 91.4707C20.566 83.7341 13.0449 75.9914 5.53003 68.2548C9.65766 64.7786 14.4887 62.0371 19.6837 60.2342C22.818 59.1413 26.1312 58.3695 28.9446 56.6715L70.221 71.4779Z" fill="#ACA9A5"/>
<path d="M70.7702 70.6566C65.2605 72.651 60.1642 75.7073 55.8823 79.5973C56.9065 79.4923 57.9616 79.6899 58.8685 80.1591C57.3446 81.2952 55.7281 82.3078 54.0314 83.1846C52.9393 83.7527 51.656 84.2713 50.4899 83.87C49.3238 83.4686 48.7808 81.6719 49.8667 81.0915C43.2896 83.4872 36.7188 85.8828 30.1417 88.2847C29.7468 88.4267 29.3211 88.5749 28.9077 88.4761C28.4943 88.3711 28.192 88.0377 27.9205 87.7228C20.2884 78.8007 13.4954 68.7981 3.3645 62.5805C5.19078 61.8766 7.02323 61.1788 8.8495 60.475C6.09158 58.4189 11.6815 57.6162 8.54101 56.1467C17.0616 55.0353 25.8968 54.0659 35.2688 57.1778C35.2688 57.1778 41.2968 45.3043 49.9037 43.6619L70.7702 70.6566Z" fill="white"/>
<path d="M46.1462 39.772C40.8155 43.4644 32.0419 49.6018 28.7472 54.7636C19.8071 53.5287 10.577 53.5596 1.53198 54.8686C12.249 62.5434 21.7691 71.4532 29.7961 81.3076C30.012 81.5731 30.2465 81.8509 30.592 81.9868C31.0918 82.1844 31.6902 82.0238 32.227 81.8756C39.2298 79.9245 46.5534 79.3071 53.8092 78.702C58.8006 73.3178 65.137 68.8599 72.22 65.7541L46.1462 39.772Z" fill="white"/>
<mask id="mask3_596_558" style="mask-type:luminance" maskUnits="userSpaceOnUse" x="1" y="39" width="72" height="44">
<path d="M46.1462 39.772C40.8155 43.4644 32.0419 49.6018 28.7472 54.7636C19.8071 53.5287 10.577 53.5596 1.53198 54.8686C12.249 62.5434 21.7691 71.4532 29.7961 81.3076C30.012 81.5731 30.2465 81.8509 30.592 81.9868C31.0918 82.1844 31.6902 82.0238 32.227 81.8756C39.2298 79.9245 46.5534 79.3071 53.8092 78.702C58.8006 73.3178 65.137 68.8599 72.22 65.7541L46.1462 39.772Z" fill="white"/>
</mask>
<g mask="url(#mask3_596_558)">
<path d="M14.6245 61.5308C19.474 59.8328 24.5827 59.1289 29.7098 59.45C30.0738 59.4747 30.0738 58.9067 29.7098 58.882C24.5395 58.5547 19.3691 59.271 14.4764 60.9813C14.1309 61.1048 14.279 61.6481 14.6245 61.5308Z" fill="#C9C7C5"/>
</g>
<mask id="mask4_596_558" style="mask-type:luminance" maskUnits="userSpaceOnUse" x="1" y="39" width="72" height="44">
<path d="M46.1462 39.772C40.8155 43.4644 32.0419 49.6018 28.7472 54.7636C19.8071 53.5287 10.577 53.5596 1.53198 54.8686C12.249 62.5434 21.7691 71.4532 29.7961 81.3076C30.012 81.5731 30.2465 81.8509 30.592 81.9868C31.0918 82.1844 31.6902 82.0238 32.227 81.8756C39.2298 79.9245 46.5534 79.3071 53.8092 78.702C58.8006 73.3178 65.137 68.8599 72.22 65.7541L46.1462 39.772Z" fill="white"/>
</mask>
<g mask="url(#mask4_596_558)">
<path d="M16.7715 63.6672C21.3803 61.8766 26.3594 61.3085 31.2706 61.1295C31.6346 61.1171 31.6346 60.5491 31.2706 60.5676C26.3162 60.7528 21.2754 61.3209 16.6234 63.13C16.284 63.2535 16.4321 63.7968 16.7715 63.6672Z" fill="#C9C7C5"/>
</g>
<mask id="mask5_596_558" style="mask-type:luminance" maskUnits="userSpaceOnUse" x="1" y="39" width="72" height="44">
<path d="M46.1462 39.772C40.8155 43.4644 32.0419 49.6018 28.7472 54.7636C19.8071 53.5287 10.577 53.5596 1.53198 54.8686C12.249 62.5434 21.7691 71.4532 29.7961 81.3076C30.012 81.5731 30.2465 81.8509 30.592 81.9868C31.0918 82.1844 31.6902 82.0238 32.227 81.8756C39.2298 79.9245 46.5534 79.3071 53.8092 78.702C58.8006 73.3178 65.137 68.8599 72.22 65.7541L46.1462 39.772Z" fill="white"/>
</mask>
<g mask="url(#mask5_596_558)">
<path d="M20.1341 65.6739C24.5332 63.7907 29.3334 63.3708 34.0472 62.988C34.405 62.9571 34.4112 62.3952 34.0472 62.4199C29.2223 62.8151 24.3481 63.2535 19.8503 65.1861C19.5171 65.3281 19.8071 65.8159 20.1341 65.6739Z" fill="#C9C7C5"/>
</g>
<mask id="mask6_596_558" style="mask-type:luminance" maskUnits="userSpaceOnUse" x="1" y="39" width="72" height="44">
<path d="M46.1462 39.772C40.8155 43.4644 32.0419 49.6018 28.7472 54.7636C19.8071 53.5287 10.577 53.5596 1.53198 54.8686C12.249 62.5434 21.7691 71.4532 29.7961 81.3076C30.012 81.5731 30.2465 81.8509 30.592 81.9868C31.0918 82.1844 31.6902 82.0238 32.227 81.8756C39.2298 79.9245 46.5534 79.3071 53.8092 78.702C58.8006 73.3178 65.137 68.8599 72.22 65.7541L46.1462 39.772Z" fill="white"/>
</mask>
<g mask="url(#mask6_596_558)">
<path d="M22.9784 68.7426C27.5071 67.0569 32.227 65.9888 37.0395 65.5689C37.3973 65.538 37.4035 64.97 37.0395 65.0008C32.1777 65.4269 27.4022 66.4889 22.8241 68.193C22.491 68.3227 22.639 68.8661 22.9784 68.7426Z" fill="#C9C7C5"/>
</g>
<mask id="mask7_596_558" style="mask-type:luminance" maskUnits="userSpaceOnUse" x="1" y="39" width="72" height="44">
<path d="M46.1462 39.772C40.8155 43.4644 32.0419 49.6018 28.7472 54.7636C19.8071 53.5287 10.577 53.5596 1.53198 54.8686C12.249 62.5434 21.7691 71.4532 29.7961 81.3076C30.012 81.5731 30.2465 81.8509 30.592 81.9868C31.0918 82.1844 31.6902 82.0238 32.227 81.8756C39.2298 79.9245 46.5534 79.3071 53.8092 78.702C58.8006 73.3178 65.137 68.8599 72.22 65.7541L46.1462 39.772Z" fill="white"/>
</mask>
<g mask="url(#mask7_596_558)">
<path d="M26.1867 71.4593C30.1231 70.0083 34.1212 68.5635 38.366 68.4339C38.7301 68.4215 38.7301 67.8596 38.366 67.8658C34.0718 67.9955 30.0244 69.4403 26.0387 70.9098C25.6993 71.0395 25.8474 71.589 26.1867 71.4593Z" fill="#C9C7C5"/>
</g>
<mask id="mask8_596_558" style="mask-type:luminance" maskUnits="userSpaceOnUse" x="1" y="39" width="72" height="44">
<path d="M46.1462 39.772C40.8155 43.4644 32.0419 49.6018 28.7472 54.7636C19.8071 53.5287 10.577 53.5596 1.53198 54.8686C12.249 62.5434 21.7691 71.4532 29.7961 81.3076C30.012 81.5731 30.2465 81.8509 30.592 81.9868C31.0918 82.1844 31.6902 82.0238 32.227 81.8756C39.2298 79.9245 46.5534 79.3071 53.8092 78.702C58.8006 73.3178 65.137 68.8599 72.22 65.7541L46.1462 39.772Z" fill="white"/>
</mask>
<g mask="url(#mask8_596_558)">
<path d="M28.9816 74.102C30.4439 72.9782 32.7452 72.8733 34.4975 72.509C36.6322 72.0644 38.8102 71.484 40.9943 71.873C41.3522 71.9348 41.5002 71.3914 41.1424 71.3297C38.9644 70.9407 36.8358 71.447 34.7072 71.8915C33.5658 72.1262 32.4182 72.3608 31.2768 72.6016C30.3451 72.7992 29.4629 73.0215 28.6978 73.6142C28.414 73.8365 28.6916 74.3243 28.9816 74.102Z" fill="#C9C7C5"/>
</g>
<mask id="mask9_596_558" style="mask-type:luminance" maskUnits="userSpaceOnUse" x="1" y="39" width="72" height="44">
<path d="M46.1462 39.772C40.8155 43.4644 32.0419 49.6018 28.7472 54.7636C19.8071 53.5287 10.577 53.5596 1.53198 54.8686C12.249 62.5434 21.7691 71.4532 29.7961 81.3076C30.012 81.5731 30.2465 81.8509 30.592 81.9868C31.0918 82.1844 31.6902 82.0238 32.227 81.8756C39.2298 79.9245 46.5534 79.3071 53.8092 78.702C58.8006 73.3178 65.137 68.8599 72.22 65.7541L46.1462 39.772Z" fill="white"/>
</mask>
<g mask="url(#mask9_596_558)">
<path d="M31.098 77.109C35.3613 74.8862 40.1553 74.2378 44.8567 73.6327C45.2146 73.5895 45.2146 73.0215 44.8567 73.0647C40.0443 73.6821 35.1639 74.349 30.808 76.6212C30.4933 76.7879 30.7771 77.2757 31.098 77.109Z" fill="#C9C7C5"/>
</g>
<mask id="mask10_596_558" style="mask-type:luminance" maskUnits="userSpaceOnUse" x="1" y="39" width="72" height="44">
<path d="M46.1462 39.772C40.8155 43.4644 32.0419 49.6018 28.7472 54.7636C19.8071 53.5287 10.577 53.5596 1.53198 54.8686C12.249 62.5434 21.7691 71.4532 29.7961 81.3076C30.012 81.5731 30.2465 81.8509 30.592 81.9868C31.0918 82.1844 31.6902 82.0238 32.227 81.8756C39.2298 79.9245 46.5534 79.3071 53.8092 78.702C58.8006 73.3178 65.137 68.8599 72.22 65.7541L46.1462 39.772Z" fill="white"/>
</mask>
<g mask="url(#mask10_596_558)">
<path d="M35.8548 56.369C39.4334 52.5532 43.2402 48.5706 48.3858 47.0085C48.7313 46.9035 48.5833 46.3602 48.2377 46.4651C42.9934 48.0582 39.1064 52.0839 35.4538 55.9738C35.207 56.2331 35.6019 56.6345 35.8548 56.369Z" fill="#C9C7C5"/>
</g>
<mask id="mask11_596_558" style="mask-type:luminance" maskUnits="userSpaceOnUse" x="1" y="39" width="72" height="44">
<path d="M46.1462 39.772C40.8155 43.4644 32.0419 49.6018 28.7472 54.7636C19.8071 53.5287 10.577 53.5596 1.53198 54.8686C12.249 62.5434 21.7691 71.4532 29.7961 81.3076C30.012 81.5731 30.2465 81.8509 30.592 81.9868C31.0918 82.1844 31.6902 82.0238 32.227 81.8756C39.2298 79.9245 46.5534 79.3071 53.8092 78.702C58.8006 73.3178 65.137 68.8599 72.22 65.7541L46.1462 39.772Z" fill="white"/>
</mask>
<g mask="url(#mask11_596_558)">
<path d="M38.4216 58.1101C41.2659 54.0659 45.8316 51.8492 50.1751 49.7808C50.5021 49.6264 50.2183 49.1387 49.8913 49.293C45.4429 51.4109 40.8463 53.6892 37.9341 57.8199C37.7244 58.1225 38.2118 58.4065 38.4216 58.1101Z" fill="#C9C7C5"/>
</g>
<mask id="mask12_596_558" style="mask-type:luminance" maskUnits="userSpaceOnUse" x="1" y="39" width="72" height="44">
<path d="M46.1462 39.772C40.8155 43.4644 32.0419 49.6018 28.7472 54.7636C19.8071 53.5287 10.577 53.5596 1.53198 54.8686C12.249 62.5434 21.7691 71.4532 29.7961 81.3076C30.012 81.5731 30.2465 81.8509 30.592 81.9868C31.0918 82.1844 31.6902 82.0238 32.227 81.8756C39.2298 79.9245 46.5534 79.3071 53.8092 78.702C58.8006 73.3178 65.137 68.8599 72.22 65.7541L46.1462 39.772Z" fill="white"/>
</mask>
<g mask="url(#mask12_596_558)">
<path d="M41.1549 60.1354C42.3642 58.1595 44.2151 56.7765 46.1463 55.5601C48.1762 54.2882 50.2863 53.1582 52.4642 52.1518C52.7912 51.9974 52.5074 51.5097 52.1804 51.664C49.8235 52.7569 47.5222 53.9918 45.338 55.4057C43.5118 56.5912 41.8151 57.9681 40.6675 59.8514C40.4762 60.1662 40.9636 60.4503 41.1549 60.1354Z" fill="#C9C7C5"/>
</g>
<mask id="mask13_596_558" style="mask-type:luminance" maskUnits="userSpaceOnUse" x="1" y="39" width="72" height="44">
<path d="M46.1462 39.772C40.8155 43.4644 32.0419 49.6018 28.7472 54.7636C19.8071 53.5287 10.577 53.5596 1.53198 54.8686C12.249 62.5434 21.7691 71.4532 29.7961 81.3076C30.012 81.5731 30.2465 81.8509 30.592 81.9868C31.0918 82.1844 31.6902 82.0238 32.227 81.8756C39.2298 79.9245 46.5534 79.3071 53.8092 78.702C58.8006 73.3178 65.137 68.8599 72.22 65.7541L46.1462 39.772Z" fill="white"/>
</mask>
<g mask="url(#mask13_596_558)">
<path d="M43.2154 62.2594C47.0901 59.1536 51.372 56.6036 55.9438 54.6586C56.277 54.5166 55.987 54.0288 55.66 54.1708C51.0388 56.1343 46.7322 58.7214 42.8144 61.858C42.5306 62.0865 42.9316 62.4878 43.2154 62.2594Z" fill="#C9C7C5"/>
</g>
<mask id="mask14_596_558" style="mask-type:luminance" maskUnits="userSpaceOnUse" x="1" y="39" width="72" height="44">
<path d="M46.1462 39.772C40.8155 43.4644 32.0419 49.6018 28.7472 54.7636C19.8071 53.5287 10.577 53.5596 1.53198 54.8686C12.249 62.5434 21.7691 71.4532 29.7961 81.3076C30.012 81.5731 30.2465 81.8509 30.592 81.9868C31.0918 82.1844 31.6902 82.0238 32.227 81.8756C39.2298 79.9245 46.5534 79.3071 53.8092 78.702C58.8006 73.3178 65.137 68.8599 72.22 65.7541L46.1462 39.772Z" fill="white"/>
</mask>
<g mask="url(#mask14_596_558)">
<path d="M45.6834 64.865C49.3113 62.2779 53.0503 59.6599 57.4679 58.6659C57.8196 58.5856 57.6715 58.0422 57.3198 58.1225C52.8528 59.1289 49.0707 61.7654 45.3996 64.3772C45.1035 64.5872 45.3811 65.0749 45.6834 64.865Z" fill="#C9C7C5"/>
</g>
<mask id="mask15_596_558" style="mask-type:luminance" maskUnits="userSpaceOnUse" x="1" y="39" width="72" height="44">
<path d="M46.1462 39.772C40.8155 43.4644 32.0419 49.6018 28.7472 54.7636C19.8071 53.5287 10.577 53.5596 1.53198 54.8686C12.249 62.5434 21.7691 71.4532 29.7961 81.3076C30.012 81.5731 30.2465 81.8509 30.592 81.9868C31.0918 82.1844 31.6902 82.0238 32.227 81.8756C39.2298 79.9245 46.5534 79.3071 53.8092 78.702C58.8006 73.3178 65.137 68.8599 72.22 65.7541L46.1462 39.772Z" fill="white"/>
</mask>
<g mask="url(#mask15_596_558)">
<path d="M49.4533 67.4706C53.112 64.686 57.2212 62.5866 61.6203 61.2591C61.9658 61.1542 61.8177 60.6108 61.4722 60.7158C57.0237 62.0556 52.8652 64.1673 49.1695 66.9829C48.8795 67.199 49.1633 67.6929 49.4533 67.4706Z" fill="#C9C7C5"/>
</g>
<mask id="mask16_596_558" style="mask-type:luminance" maskUnits="userSpaceOnUse" x="1" y="39" width="72" height="44">
<path d="M46.1462 39.772C40.8155 43.4644 32.0419 49.6018 28.7472 54.7636C19.8071 53.5287 10.577 53.5596 1.53198 54.8686C12.249 62.5434 21.7691 71.4532 29.7961 81.3076C30.012 81.5731 30.2465 81.8509 30.592 81.9868C31.0918 82.1844 31.6902 82.0238 32.227 81.8756C39.2298 79.9245 46.5534 79.3071 53.8092 78.702C58.8006 73.3178 65.137 68.8599 72.22 65.7541L46.1462 39.772Z" fill="white"/>
</mask>
<g mask="url(#mask16_596_558)">
<path d="M10.1822 58.1781C14.1679 57.5977 18.1845 57.2334 22.2072 57.0852C24.0458 57.0173 25.8906 56.9987 27.7354 57.0234C29.0989 57.042 30.7463 57.468 31.8075 56.3998C33.0415 55.1588 34.1644 53.7942 35.3984 52.5531C36.5768 51.3676 37.7923 50.2254 39.0447 49.114C41.778 46.6936 44.6778 44.4708 47.7134 42.4394C48.0157 42.2356 47.7319 41.7478 47.4296 41.9516C41.7657 45.7427 36.5706 50.2254 32.0235 55.3131C31.7705 55.5971 31.5299 55.9491 31.2275 56.1837C30.7093 56.5912 30.1787 56.5171 29.5802 56.4986C28.7226 56.4739 27.8588 56.4554 27.0012 56.4492C25.0392 56.4369 23.071 56.4739 21.109 56.5604C17.4009 56.7332 13.7113 57.0914 10.0341 57.6285C9.67623 57.6841 9.83047 58.2275 10.1822 58.1781Z" fill="#ACA9A5"/>
</g>
<path d="M55.6725 80.6222C54.8026 80.8754 53.9326 81.1532 53.0565 81.3878C52.964 81.4125 52.5629 81.5792 52.4765 81.5237C52.2298 81.3446 52.5321 81.0544 52.6308 80.9556C52.9516 80.6222 53.7229 80.5419 54.1609 80.5172C54.4324 80.4987 54.4324 80.0789 54.1609 80.0912C53.6118 80.1221 51.1439 80.684 51.7547 81.6719C51.9583 82.0053 52.4642 81.9682 52.7912 81.9065C53.7969 81.7027 54.7964 81.3261 55.7836 81.0359C56.0427 80.9556 55.9317 80.5481 55.6725 80.6222Z" fill="#3F3C36"/>
<path d="M46.1894 80.8322C40.8216 81.7769 35.6204 83.444 30.703 85.7964C30.8141 85.8088 30.9313 85.8273 31.0424 85.8396C23.9162 78.3439 16.4322 71.2 8.61496 64.4328C8.34348 64.1982 7.94244 64.5934 8.21391 64.8342C16.0311 71.6014 23.5152 78.7452 30.6413 86.241C30.7339 86.3398 30.8696 86.3398 30.9807 86.2842C35.8549 83.9503 41.0129 82.314 46.3313 81.3755C46.7015 81.3138 46.5472 80.7704 46.1894 80.8322Z" fill="#3F3C36"/>
<path d="M51.6498 76.3927C45.4491 68.4585 37.9589 61.6111 29.5741 56.0479C29.3458 55.8997 29.136 56.264 29.3581 56.4122C37.7121 61.9568 45.1715 68.7858 51.3537 76.6891C51.5141 76.9114 51.8164 76.6088 51.6498 76.3927Z" fill="#3F3C36"/>
<path d="M8.17074 60.5182C16.1607 67.0384 23.8545 73.9044 31.246 81.0977C31.5051 81.3508 31.9062 80.9495 31.647 80.6963C24.2617 73.5031 16.5617 66.6371 8.57178 60.1169C8.29414 59.8884 7.88693 60.2898 8.17074 60.5182Z" fill="#3F3C36"/>
<path d="M31.7951 81.215C34.0656 80.8815 36.3423 80.6284 38.6313 80.4493C38.9892 80.4185 38.9954 79.8566 38.6313 79.8813C36.293 80.0603 33.9669 80.3258 31.6409 80.6654C31.2892 80.7272 31.4373 81.2705 31.7951 81.215Z" fill="#3F3C36"/>
<path d="M63.5019 19.4457C62.3913 17.8404 64.4151 15.6793 65.5195 14.6235C66.7349 13.4627 68.1972 12.5612 69.7643 11.9623C72.7135 10.8323 76.0514 10.7459 79.0006 11.9314C80.7405 12.6291 82.2953 13.4874 84.2203 12.9749C85.8553 12.5365 87.3546 11.5609 88.786 10.6903C91.766 8.87505 94.8078 7.1709 98.4048 8.07237C103.958 9.46779 107.9 14.8334 113.799 15.2286C117.439 15.4755 121.425 12.8329 124.843 14.9198C127.329 16.4326 128.452 19.4025 130.753 21.1437C133.326 23.0825 137.417 22.7984 139.428 20.1434C140.187 19.1432 140.681 17.4637 139.558 16.519C138.75 15.8398 137.38 15.8275 136.855 16.8401C136.689 17.1612 137.176 17.4514 137.343 17.1241C137.768 16.3029 139.009 16.519 139.447 17.2291C140.101 18.2726 139.225 19.668 138.453 20.3657C137.145 21.5574 135.257 22.0637 133.524 21.7611C130.445 21.2178 128.958 18.2293 127.051 16.1053C126.231 15.1853 125.268 14.3641 124.096 13.9258C122.535 13.3454 120.863 13.5429 119.271 13.864C117.463 14.2283 115.662 14.784 113.792 14.6543C112.33 14.5555 110.923 14.0801 109.609 13.4503C104.976 11.2337 100.638 6.55963 95.0792 7.29439C91.8401 7.72042 89.2302 9.89383 86.4414 11.3942C85.59 11.8511 84.7015 12.3019 83.7452 12.4995C82.5174 12.7526 81.4007 12.3574 80.2901 11.8758C78.9574 11.2954 77.6494 10.8077 76.1933 10.6162C73.0529 10.2026 69.7767 10.9682 67.1051 12.6662C65.2603 13.8393 61.2561 17.2044 63.0022 19.7297C63.2243 20.0261 63.7117 19.7421 63.5019 19.4457Z" fill="#3F3C36"/>
<path d="M95.7581 46.2243C99.0898 47.6012 101.243 50.5712 101.866 54.0659C102.119 55.486 102.354 57.079 103.575 58.0237C104.624 58.8387 106 58.8696 107.265 58.8881C109.147 58.919 110.856 59.1042 112.182 60.6046C113.422 62.0001 113.793 63.7351 113.897 65.5442C113.978 66.9643 114.07 68.5759 115.212 69.5885C116.026 70.3109 117.174 70.5949 118.241 70.4591C119.506 70.2985 120.709 69.4958 121.073 68.2239C121.437 66.952 120.555 65.5442 119.136 65.89C118.784 65.9764 118.932 66.5198 119.284 66.4333C120.993 66.0135 120.66 68.3227 119.938 69.0636C119.438 69.5761 118.735 69.8601 118.025 69.9157C116.668 70.033 115.384 69.3662 114.866 68.0819C114.292 66.6618 114.564 65.0564 114.255 63.5807C114.015 62.4261 113.509 61.3147 112.756 60.4009C111.991 59.4685 110.967 58.777 109.782 58.5115C108.511 58.2275 107.203 58.388 105.92 58.2645C104.161 58.0855 103.125 57.0975 102.705 55.3996C102.372 54.0535 102.261 52.7013 101.724 51.4171C100.632 48.8053 98.5222 46.7553 95.9185 45.6748C95.573 45.539 95.4249 46.0823 95.7581 46.2243Z" fill="#3F3C36"/>
<path d="M100.725 83.0549C101.626 84.5862 102.199 86.2163 102.465 87.9698C102.52 88.3279 103.063 88.1736 103.008 87.8216C102.736 86.0248 102.132 84.3392 101.212 82.7771C101.027 82.456 100.54 82.74 100.725 83.0549Z" fill="#3F3C36"/>
<path d="M148.226 44.1806C144.284 48.5336 142.908 54.6648 142.711 60.5367C142.643 62.5928 142.748 64.8032 143.975 66.4518C144.413 67.0384 145.018 67.5509 145.74 67.6744C146.739 67.8534 147.745 67.2545 148.337 66.4333C148.93 65.6121 149.195 64.6057 149.43 63.6178C150.664 58.4312 151.496 53.1582 152.033 47.8544C152.329 44.9586 151.169 43.0568 148.226 44.1806Z" fill="#FF8C45"/>
<path d="M19.2517 53.3558C17.9437 52.2012 18.5484 49.7993 20.0106 48.9164C21.4791 48.0334 23.3547 48.2866 24.9897 48.8238C23.4781 48.0519 23.0524 45.7427 24.0642 44.3781C25.0761 43.0136 27.1615 42.7604 28.5929 43.6866C27.5749 43.0877 27.3589 41.4391 28.1857 40.6117C28.9507 39.8399 30.1847 39.8955 31.2521 40.0931C34.4666 40.6982 37.5268 42.2047 40.0133 44.409C40.2292 44.6004 40.4575 44.8598 40.3835 45.1376C40.328 45.3352 40.1305 45.4525 39.9516 45.5389C37.3911 46.7615 34.2321 46.5886 31.7704 45.0944C33.2018 45.6007 34.6208 46.1379 36.0337 46.6936C37.132 47.1258 38.4585 48.1199 37.9896 49.2127C37.7366 49.8055 37.0518 50.0339 36.441 50.1883C33.1216 51.0033 29.6479 51.1886 26.2484 50.7378C28.852 51.1824 31.4064 51.9974 33.8003 53.1644C34.189 53.3558 34.6208 53.6151 34.6949 54.0473C34.7874 54.5907 34.2692 55.0167 33.7879 55.2452C31.5174 56.3072 28.8644 55.8812 26.3903 55.4304C24.1136 55.0167 21.1767 53.8498 19.2517 53.3558Z" fill="#C9C7C5"/>
<path d="M23.4102 48.8917C24.6318 49.6511 25.9028 50.3118 27.2231 50.8799C27.5563 51.0219 27.8401 50.5341 27.507 50.3921C26.1866 49.8302 24.9156 49.1634 23.694 48.4039C23.3855 48.2063 23.1017 48.6941 23.4102 48.8917Z" fill="#3F3C36"/>
<path d="M27.285 43.2606C30.4872 44.9894 33.9114 46.2305 37.4838 46.9344C37.8416 47.0023 37.9897 46.459 37.6319 46.391C34.1089 45.6933 30.734 44.4831 27.5688 42.7728C27.248 42.5999 26.9642 43.0877 27.285 43.2606Z" fill="#3F3C36"/>
<path d="M34.2076 46.4281C34.442 48.0211 36.1017 49.0769 37.6442 48.6941C37.9959 48.6077 37.8478 48.0643 37.4961 48.1507C36.2251 48.4656 34.948 47.558 34.7567 46.2799C34.695 45.9156 34.1521 46.07 34.2076 46.4281Z" fill="#3F3C36"/>
<path d="M36.7063 42.8592C37.2986 44.2361 38.7732 45.0759 40.2601 44.8783C40.618 44.8289 40.618 44.267 40.2601 44.3164C38.9459 44.4893 37.7181 43.7978 37.1937 42.5752C37.0518 42.2356 36.5644 42.5258 36.7063 42.8592Z" fill="#3F3C36"/>
<path d="M30.6228 52.9174C31.6038 54.0721 33.0907 54.566 34.5715 54.2758C34.9293 54.2079 34.7751 53.6584 34.4234 53.7325C33.1277 53.9856 31.8752 53.5225 31.0238 52.5223C30.7832 52.2444 30.3883 52.6458 30.6228 52.9174Z" fill="#3F3C36"/>
<path d="M103.137 100.8C102.132 99.5778 88.2494 82.666 87.2376 81.4372C82.2276 75.3492 76.3724 70.1318 70.4 64.9885C64.3535 59.7834 55.4998 58.3571 48.2996 61.5617C47.9726 61.7037 47.2013 62.5002 47.0163 62.8027C46.6275 63.4325 47.1335 64.3093 47.8307 64.5625C48.5279 64.8156 49.2991 64.6304 50.0025 64.4143C51.1871 64.0561 52.3717 63.6178 53.6057 63.6363C54.8396 63.6548 56.1661 64.2537 56.6227 65.4022C56.2649 66.6988 54.4509 66.7173 53.1244 66.4827C48.3304 65.6245 43.4007 64.5686 38.5327 64.3957C37.3851 64.3587 35.8858 65.2849 35.9599 66.4333C36.0092 67.1557 36.7434 67.6065 37.3974 67.9214C41.3462 69.8107 45.6157 70.6443 49.8544 71.7248C46.4239 70.6875 42.8639 70.3109 39.4335 69.2736C38.508 68.9957 37.2926 68.4647 36.3424 68.5944C35.3861 68.724 34.4359 69.3909 34.294 70.3479C34.1706 71.1938 34.7197 72.0212 35.4354 72.4905C36.1511 72.9597 37.2679 73.3981 38.1008 73.5895C41.9138 74.4725 45.6527 75.695 49.2559 77.2263C46.282 76.2322 43.2094 75.5345 40.0998 75.1393C39.0756 75.0096 37.8972 74.9664 37.1815 75.7135C36.3362 76.6026 36.7002 78.1524 37.601 78.986C38.5018 79.8195 39.742 80.1344 40.9204 80.474C50.1073 83.1167 57.0176 84.1293 73.2875 108.994L103.137 100.8Z" fill="#C9C7C5"/>
<path d="M34.4729 70.6937C35.966 70.811 37.274 71.7804 37.8108 73.182C37.9403 73.5154 38.4833 73.3734 38.3537 73.0338C37.7182 71.3791 36.2374 70.2676 34.4729 70.1318C34.1088 70.1009 34.115 70.6628 34.4729 70.6937Z" fill="#3F3C36"/>
<path d="M36.4842 66.4457C37.8477 66.2666 39.1681 67.0569 39.6 68.3783C39.711 68.724 40.2602 68.5759 40.1429 68.2301C39.637 66.6927 38.1007 65.6739 36.4842 65.8838C36.1264 65.927 36.1264 66.4951 36.4842 66.4457Z" fill="#3F3C36"/>
<path d="M36.8728 76.8064C38.0266 76.899 39.0878 77.5041 39.7665 78.4488C40.0503 78.844 40.2724 79.2885 40.3896 79.7578C40.476 80.0974 40.4205 80.474 40.6673 80.7333C40.7598 80.8321 40.8956 80.826 41.0066 80.7766C41.13 80.721 41.1855 80.6407 41.2102 80.5111C41.2349 80.3876 41.1917 80.2517 41.0807 80.19C41.0683 80.1838 41.0498 80.1715 41.0375 80.1653C40.7166 79.9862 40.4328 80.474 40.7537 80.6531C40.766 80.6592 40.7845 80.6716 40.7968 80.6778C40.7536 80.5728 40.7105 80.4678 40.6673 80.3567C40.6858 80.332 40.7043 80.3073 40.7228 80.2826C40.8339 80.295 40.9511 80.3135 41.0621 80.3258C40.9634 80.2209 40.9634 79.7331 40.9264 79.5972C40.8647 79.3626 40.7845 79.1342 40.6858 78.9119C40.4513 78.387 40.112 77.9116 39.7048 77.5164C38.9274 76.757 37.9464 76.3186 36.8666 76.2322C36.5088 76.2136 36.515 76.7817 36.8728 76.8064Z" fill="#3F3C36"/>
<path d="M47.442 62.9386C48.3366 62.9386 49.2004 62.8892 49.9222 62.2964C50.5146 61.8148 50.8416 61.1171 50.6318 60.37C50.5331 60.0181 49.9901 60.1662 50.0888 60.5182C50.2739 61.1665 49.8482 61.7284 49.3053 62.0433C48.7376 62.3767 48.0836 62.3705 47.442 62.3705C47.0779 62.3705 47.0779 62.9386 47.442 62.9386Z" fill="#3F3C36"/>
<path d="M43.3697 75.8123C45.5168 76.547 47.5961 77.4362 49.6198 78.4611C49.9406 78.6278 50.2306 78.1401 49.9036 77.9733C47.8429 76.9175 45.7143 76.016 43.5178 75.2628C43.1784 75.1516 43.0304 75.695 43.3697 75.8123Z" fill="#3F3C36"/>
<path d="M41.747 69.8478C45.3934 70.8295 49.0459 71.8113 52.6923 72.793C53.044 72.8856 53.1921 72.3423 52.8404 72.2496C49.194 71.2679 45.5415 70.2862 41.8951 69.3044C41.5434 69.2056 41.3953 69.749 41.747 69.8478Z" fill="#3F3C36"/>
<path d="M51.9211 83.2155C52.1925 82.5301 52.5751 81.9003 53.0563 81.3446C53.2908 81.073 52.8959 80.6716 52.6553 80.9433C52.1061 81.5793 51.6804 82.2832 51.3719 83.0611C51.2424 83.4069 51.7915 83.5489 51.9211 83.2155Z" fill="white"/>
<path d="M54.5433 78.3809C54.9999 77.6276 55.3577 76.8249 55.623 75.9852C55.7341 75.6394 55.185 75.4912 55.0801 75.837C54.8333 76.6335 54.4878 77.3868 54.0559 78.0968C53.8708 78.4056 54.3582 78.6896 54.5433 78.3809Z" fill="white"/>
<path d="M56.5671 72.7745C56.9682 71.8915 57.3692 71.0086 57.7641 70.1256C57.9121 69.7984 57.4247 69.5082 57.2766 69.8416C56.8756 70.7245 56.4746 71.6075 56.0797 72.4843C55.9316 72.8177 56.4129 73.1017 56.5671 72.7745Z" fill="white"/>
<path d="M61.9965 64.2352C62.595 63.6424 63.0454 62.9509 63.3539 62.1729C63.4896 61.8333 62.9405 61.6913 62.8109 62.0247C62.5394 62.7163 62.1261 63.3214 61.5954 63.84C61.3425 64.087 61.7374 64.4883 61.9965 64.2352Z" fill="white"/>
<path d="M65.5566 50.6761C65.1679 50.1945 64.4522 50.1204 63.9648 50.5094L45.6897 65.3281C45.6712 65.3404 45.6588 65.3589 45.6465 65.3713C46.5473 65.6615 47.4543 65.8838 48.3612 66.0752L65.39 52.2691C65.8713 51.8801 65.9515 51.1639 65.5566 50.6761Z" fill="#3F3C36"/>
<path d="M59.6459 58.672C61.7128 57.0111 63.7797 55.344 65.8404 53.6831C65.9946 53.5596 65.9144 53.3311 65.7849 53.2385C65.2974 52.8927 64.9396 52.5223 64.6064 52.0283C64.4028 51.7319 63.9154 52.0098 64.119 52.3123C64.5015 52.8742 64.9458 53.3311 65.501 53.7263C65.4825 53.5781 65.464 53.4299 65.4455 53.2817C63.3786 54.9426 61.3117 56.6097 59.251 58.2707C58.961 58.5053 59.362 58.9005 59.6459 58.672Z" fill="#3F3C36"/>
</g>
<defs>
<clipPath id="clip0_596_558">
<rect width="152" height="109" fill="white"/>
</clipPath>
</defs>
</svg>
