<svg width="129" height="54" viewBox="0 0 129 54" fill="none" xmlns="http://www.w3.org/2000/svg">
<g clip-path="url(#clip0_376_2)">
<rect width="129" height="54" rx="27" fill="#FFDD85"/>
<g filter="url(#filter0_d_376_2)">
<circle cx="27" cy="27" r="27" fill="url(#paint0_linear_376_2)"/>
<circle cx="27" cy="27" r="20.8235" stroke="white" stroke-opacity="0.3" stroke-width="12.3529"/>
</g>
<g filter="url(#filter1_d_376_2)">
<mask id="mask0_376_2" style="mask-type:alpha" maskUnits="userSpaceOnUse" x="16" y="16" width="23" height="23">
<rect x="16" y="16" width="22.8065" height="22.8065" fill="white"/>
</mask>
<g mask="url(#mask0_376_2)">
<path d="M26.9518 19.2309C26.6034 19.2309 26.3066 19.108 26.0614 18.8622C25.8156 18.617 25.6927 18.3202 25.6927 17.9718V17.2591C25.6927 16.9107 25.8156 16.6136 26.0614 16.3678C26.3066 16.1226 26.6034 16 26.9518 16C27.3003 16 27.5974 16.1226 27.8432 16.3678C28.0884 16.6136 28.211 16.9107 28.211 17.2591V17.9718C28.211 18.3202 28.0884 18.617 27.8432 18.8622C27.5974 19.108 27.3003 19.2309 26.9518 19.2309ZM26.9518 37.8562C26.6034 37.8562 26.3066 37.7336 26.0614 37.4884C25.8156 37.2426 25.6927 36.9455 25.6927 36.5971V35.8844C25.6927 35.5359 25.8156 35.2391 26.0614 34.994C26.3066 34.7482 26.6034 34.6253 26.9518 34.6253C27.3003 34.6253 27.5974 34.7482 27.8432 34.994C28.0884 35.2391 28.211 35.5359 28.211 35.8844V36.5971C28.211 36.9455 28.0884 37.2426 27.8432 37.4884C27.5974 37.7336 27.3003 37.8562 26.9518 37.8562ZM35.8844 28.1634C35.5359 28.1634 35.2391 28.0405 34.994 27.7947C34.7482 27.5496 34.6253 27.2528 34.6253 26.9043C34.6253 26.5559 34.7482 26.2588 34.994 26.013C35.2391 25.7678 35.5359 25.6452 35.8844 25.6452H36.5971C36.9455 25.6452 37.2426 25.7678 37.4884 26.013C37.7336 26.2588 37.8562 26.5559 37.8562 26.9043C37.8562 27.2528 37.7336 27.5496 37.4884 27.7947C37.2426 28.0405 36.9455 28.1634 36.5971 28.1634H35.8844ZM17.2591 28.1634C16.9107 28.1634 16.6139 28.0405 16.3687 27.7947C16.1229 27.5496 16 27.2528 16 26.9043C16 26.5559 16.1229 26.2588 16.3687 26.013C16.6139 25.7678 16.9107 25.6452 17.2591 25.6452H17.9718C18.3202 25.6452 18.6174 25.7678 18.8632 26.013C19.1083 26.2588 19.2309 26.5559 19.2309 26.9043C19.2309 27.2528 19.1083 27.5496 18.8632 27.7947C18.6174 28.0405 18.3202 28.1634 17.9718 28.1634H17.2591ZM32.7247 21.0839C32.4713 20.8305 32.3446 20.5296 32.3446 20.1812C32.3446 19.8328 32.4713 19.5318 32.7247 19.2784L32.891 19.1121C33.1286 18.8746 33.4216 18.7558 33.77 18.7558C34.1185 18.7558 34.4194 18.8825 34.6728 19.1359C34.9262 19.3893 35.0529 19.6902 35.0529 20.0386C35.0529 20.3871 34.9262 20.688 34.6728 20.9414L34.5065 21.1077C34.2689 21.3453 33.9759 21.464 33.6275 21.464C33.2791 21.464 32.9781 21.3373 32.7247 21.0839ZM19.1834 34.7203C18.93 34.4669 18.8033 34.166 18.8033 33.8175C18.8033 33.4691 18.93 33.1682 19.1834 32.9148L19.3497 32.7485C19.5873 32.5109 19.8803 32.3921 20.2287 32.3921C20.5771 32.3921 20.878 32.5188 21.1315 32.7722C21.3849 33.0257 21.5116 33.3266 21.5116 33.675C21.5116 34.0234 21.3849 34.3244 21.1315 34.5778L20.9652 34.7441C20.7276 34.9816 20.4346 35.1004 20.0862 35.1004C19.7377 35.1004 19.4368 34.9737 19.1834 34.7203ZM32.8673 34.7203L32.701 34.554C32.4634 34.3164 32.3446 34.0234 32.3446 33.675C32.3446 33.3266 32.4713 33.0257 32.7247 32.7722C32.9781 32.5188 33.2791 32.3921 33.6275 32.3921C33.9759 32.3921 34.2768 32.5188 34.5302 32.7722L34.6965 32.9385C34.9341 33.1761 35.0529 33.4691 35.0529 33.8175C35.0529 34.166 34.9262 34.4669 34.6728 34.7203C34.4194 34.9737 34.1185 35.1004 33.77 35.1004C33.4216 35.1004 33.1207 34.9737 32.8673 34.7203ZM19.2784 21.0839L19.1596 20.9652C18.9221 20.7276 18.8033 20.4346 18.8033 20.0862C18.8033 19.7377 18.93 19.4368 19.1834 19.1834C19.4368 18.93 19.7377 18.8033 20.0862 18.8033C20.4346 18.8033 20.7355 18.93 20.9889 19.1834L21.1077 19.3022C21.3453 19.5398 21.464 19.8328 21.464 20.1812C21.464 20.5296 21.3373 20.8305 21.0839 21.0839C20.8305 21.3373 20.5296 21.464 20.1812 21.464C19.8328 21.464 19.5318 21.3373 19.2784 21.0839ZM26.9281 33.3424C25.1543 33.3424 23.6417 32.7168 22.3906 31.4656C21.1394 30.2144 20.5138 28.7019 20.5138 26.9281C20.5138 25.1543 21.1394 23.6417 22.3906 22.3906C23.6417 21.1394 25.1543 20.5138 26.9281 20.5138C28.7019 20.5138 30.2144 21.1394 31.4656 22.3906C32.7168 23.6417 33.3424 25.1543 33.3424 26.9281C33.3424 28.7019 32.7168 30.2144 31.4656 31.4656C30.2144 32.7168 28.7019 33.3424 26.9281 33.3424Z" fill="white"/>
</g>
</g>
<path d="M59.4505 33C59.6772 32.3483 59.9152 31.6627 60.1645 30.943C60.4138 30.2233 60.6547 29.5405 60.887 28.8945L62.332 24.7295C62.5983 23.9815 62.8363 23.3072 63.046 22.7065C63.2557 22.1002 63.4682 21.491 63.6835 20.879H66.276C66.497 21.508 66.7095 22.1228 66.9135 22.7235C67.1232 23.3242 67.3583 23.9957 67.619 24.738L69.0555 28.9115C69.2878 29.5802 69.5258 30.2687 69.7695 30.977C70.0188 31.6797 70.254 32.354 70.475 33H68.401C68.18 32.3143 67.9533 31.6117 67.721 30.892C67.4887 30.1667 67.2677 29.481 67.058 28.835L65.052 22.63H64.882L62.8505 28.7755C62.6295 29.4442 62.4 30.144 62.162 30.875C61.924 31.606 61.6917 32.3143 61.465 33H59.4505ZM61.941 30.144L62.128 28.614H68.01L68.163 30.144H61.941ZM74.7198 33.1955C74.3515 33.1955 73.986 33.17 73.6233 33.119C73.2663 33.068 72.9292 32.9972 72.6118 32.9065C72.3002 32.8102 72.0253 32.7053 71.7873 32.592L71.9233 30.943C72.1783 31.0903 72.456 31.2207 72.7563 31.334C73.0567 31.4417 73.3683 31.5267 73.6913 31.589C74.02 31.6457 74.3487 31.674 74.6773 31.674C74.9493 31.674 75.1987 31.6485 75.4253 31.5975C75.6577 31.5408 75.8418 31.436 75.9778 31.283C76.1195 31.13 76.1903 30.9033 76.1903 30.603C76.1903 30.4047 76.1252 30.2403 75.9948 30.11C75.8645 29.9797 75.652 29.8635 75.3573 29.7615C75.0627 29.6538 74.6603 29.5292 74.1503 29.3875C73.68 29.2628 73.2692 29.107 72.9178 28.92C72.5722 28.733 72.303 28.4837 72.1103 28.172C71.9177 27.8603 71.8213 27.4495 71.8213 26.9395C71.8213 26.1178 72.0848 25.4803 72.6118 25.027C73.1388 24.5737 73.8443 24.347 74.7283 24.347C75.1023 24.347 75.465 24.3782 75.8163 24.4405C76.1677 24.4972 76.4878 24.5737 76.7768 24.67C77.0715 24.7607 77.3208 24.857 77.5248 24.959L77.3803 26.608C77.1197 26.4437 76.8363 26.3077 76.5303 26.2C76.23 26.0867 75.941 26.0045 75.6633 25.9535C75.3857 25.8968 75.1505 25.8685 74.9578 25.8685C74.7368 25.8685 74.5272 25.8997 74.3288 25.962C74.1362 26.0187 73.9803 26.1207 73.8613 26.268C73.7423 26.4097 73.6828 26.6023 73.6828 26.846C73.6828 27.0387 73.7282 27.203 73.8188 27.339C73.9095 27.475 74.0738 27.5997 74.3118 27.713C74.5555 27.8263 74.9068 27.9453 75.3658 28.07C75.9382 28.2343 76.4227 28.4072 76.8193 28.5885C77.2217 28.7698 77.5248 29.0078 77.7288 29.3025C77.9328 29.5972 78.0348 30.0052 78.0348 30.5265C78.0348 31.0478 77.9215 31.5097 77.6948 31.912C77.4682 32.3143 77.1112 32.6288 76.6238 32.8555C76.1365 33.0822 75.5018 33.1955 74.7198 33.1955ZM80.0151 36.3235C80.0151 35.7058 80.0151 35.0967 80.0151 34.496C80.0151 33.901 80.0151 33.255 80.0151 32.558V28.444C80.0151 27.815 80.0151 27.1747 80.0151 26.523C80.0151 25.8657 80.0151 25.2083 80.0151 24.551L81.6471 24.449L81.6981 25.571H81.8681C82.0324 25.333 82.2421 25.1205 82.4971 24.9335C82.7521 24.7465 83.0411 24.602 83.3641 24.5C83.6927 24.3923 84.0497 24.3385 84.4351 24.3385C85.2001 24.3385 85.8461 24.5312 86.3731 24.9165C86.9057 25.3018 87.3081 25.8288 87.5801 26.4975C87.8577 27.1662 87.9966 27.917 87.9966 28.75C87.9966 29.5377 87.8662 30.2715 87.6056 30.9515C87.3506 31.6258 86.9624 32.1698 86.4411 32.5835C85.9197 32.9972 85.2624 33.204 84.4691 33.204C84.1007 33.204 83.7636 33.1558 83.4576 33.0595C83.1572 32.9632 82.8824 32.8243 82.6331 32.643C82.3894 32.4617 82.1684 32.2435 81.9701 31.9885H81.8341V32.6515C81.8341 33.3032 81.8341 33.9123 81.8341 34.479C81.8341 35.0513 81.8341 35.6463 81.8341 36.264L80.0151 36.3235ZM83.8486 31.6145C84.3756 31.6145 84.8091 31.4813 85.1491 31.215C85.4891 30.943 85.7384 30.5917 85.8971 30.161C86.0557 29.7247 86.1351 29.26 86.1351 28.767C86.1351 28.2513 86.0501 27.781 85.8801 27.356C85.7157 26.9253 85.4636 26.5825 85.1236 26.3275C84.7836 26.0725 84.3501 25.945 83.8231 25.945C83.5624 25.945 83.3074 25.9847 83.0581 26.064C82.8144 26.1377 82.5877 26.251 82.3781 26.404C82.1684 26.5513 81.9871 26.7383 81.8341 26.965V30.399C81.9814 30.6483 82.1514 30.8637 82.3441 31.045C82.5367 31.2263 82.7577 31.368 83.0071 31.47C83.2564 31.5663 83.5369 31.6145 83.8486 31.6145ZM90.1096 33C90.1096 32.3823 90.1096 31.7845 90.1096 31.2065C90.1096 30.6285 90.1096 29.991 90.1096 29.294V28.444C90.1096 27.9227 90.1096 27.4438 90.1096 27.0075C90.1096 26.5712 90.1096 26.1547 90.1096 25.758C90.1096 25.3613 90.1096 24.959 90.1096 24.551L91.9286 24.4915C91.9286 24.9052 91.9286 25.3132 91.9286 25.7155C91.9286 26.1178 91.9286 26.54 91.9286 26.982C91.9286 27.424 91.9286 27.9113 91.9286 28.444V29.294C91.9286 29.991 91.9286 30.6285 91.9286 31.2065C91.9286 31.7845 91.9286 32.3823 91.9286 33H90.1096ZM90.9936 22.834C90.6309 22.834 90.3363 22.7405 90.1096 22.5535C89.8886 22.3608 89.7781 22.0605 89.7781 21.6525C89.7781 21.2728 89.8886 20.9838 90.1096 20.7855C90.3363 20.5872 90.6366 20.488 91.0106 20.488C91.3903 20.488 91.6878 20.59 91.9031 20.794C92.1241 20.998 92.2346 21.2842 92.2346 21.6525C92.2346 22.0605 92.1241 22.3608 91.9031 22.5535C91.6821 22.7405 91.3789 22.834 90.9936 22.834ZM94.5746 33C94.5746 32.3823 94.5746 31.7845 94.5746 31.2065C94.5746 30.6285 94.5746 29.991 94.5746 29.294V28.444C94.5746 27.815 94.5746 27.1747 94.5746 26.523C94.5746 25.8657 94.5746 25.2083 94.5746 24.551L96.1301 24.449L96.1981 26.115H96.3681C96.5948 25.6163 96.8526 25.2395 97.1416 24.9845C97.4306 24.7295 97.7253 24.5595 98.0256 24.4745C98.326 24.3838 98.6065 24.3385 98.8671 24.3385C99.0145 24.3385 99.1675 24.3498 99.3261 24.3725C99.4848 24.3952 99.635 24.432 99.7766 24.483L99.6151 26.285C99.4168 26.251 99.2383 26.2255 99.0796 26.2085C98.921 26.1915 98.7396 26.183 98.5356 26.183C98.377 26.183 98.2013 26.2057 98.0086 26.251C97.816 26.2907 97.6205 26.3757 97.4221 26.506C97.2295 26.6363 97.0425 26.8318 96.8611 27.0925C96.6855 27.3475 96.5296 27.6847 96.3936 28.104V29.3875C96.3936 30.0392 96.3936 30.6512 96.3936 31.2235C96.3936 31.7902 96.3936 32.3823 96.3936 33H94.5746ZM105.152 33.1955C104.115 33.1955 103.262 33.0028 102.593 32.6175C101.924 32.2322 101.429 31.7052 101.106 31.0365C100.788 30.3678 100.63 29.6 100.63 28.733C100.63 27.8773 100.783 27.118 101.089 26.455C101.4 25.792 101.854 25.2763 102.449 24.908C103.044 24.534 103.763 24.347 104.608 24.347C105.339 24.347 105.968 24.4858 106.495 24.7635C107.022 25.0355 107.427 25.4435 107.71 25.9875C107.993 26.5315 108.135 27.2058 108.135 28.0105C108.135 28.2258 108.129 28.4213 108.118 28.597C108.112 28.767 108.095 28.937 108.067 29.107L106.478 28.41C106.489 28.325 106.497 28.2428 106.503 28.1635C106.509 28.0785 106.512 27.9992 106.512 27.9255C106.512 27.2285 106.336 26.6902 105.985 26.3105C105.639 25.9252 105.186 25.7325 104.625 25.7325C104.188 25.7325 103.809 25.8515 103.486 26.0895C103.163 26.3275 102.91 26.6533 102.729 27.067C102.553 27.4807 102.466 27.9567 102.466 28.495V28.767C102.466 29.3677 102.568 29.8833 102.772 30.314C102.981 30.7447 103.299 31.0762 103.724 31.3085C104.154 31.5408 104.695 31.657 105.347 31.657C105.596 31.657 105.868 31.6372 106.163 31.5975C106.463 31.5522 106.764 31.4842 107.064 31.3935C107.364 31.3028 107.648 31.1867 107.914 31.045L107.982 32.626C107.767 32.7393 107.515 32.8385 107.226 32.9235C106.937 33.0085 106.616 33.0737 106.265 33.119C105.919 33.17 105.548 33.1955 105.152 33.1955ZM101.361 29.107V27.866L106.979 27.798L108.067 28.2485V29.107H101.361Z" fill="black"/>
</g>
<defs>
<filter id="filter0_d_376_2" x="-45.2941" y="0" width="144.588" height="189.882" filterUnits="userSpaceOnUse" color-interpolation-filters="sRGB">
<feFlood flood-opacity="0" result="BackgroundImageFix"/>
<feColorMatrix in="SourceAlpha" type="matrix" values="0 0 0 0 0 0 0 0 0 0 0 0 0 0 0 0 0 0 127 0" result="hardAlpha"/>
<feOffset dy="90.5882"/>
<feGaussianBlur stdDeviation="22.6471"/>
<feComposite in2="hardAlpha" operator="out"/>
<feColorMatrix type="matrix" values="0 0 0 0 1 0 0 0 0 0.807843 0 0 0 0 0.317647 0 0 0 0.15 0"/>
<feBlend mode="normal" in2="BackgroundImageFix" result="effect1_dropShadow_376_2"/>
<feBlend mode="normal" in="SourceGraphic" in2="effect1_dropShadow_376_2" result="shape"/>
</filter>
<filter id="filter1_d_376_2" x="13.7947" y="16" width="26.2668" height="26.2668" filterUnits="userSpaceOnUse" color-interpolation-filters="sRGB">
<feFlood flood-opacity="0" result="BackgroundImageFix"/>
<feColorMatrix in="SourceAlpha" type="matrix" values="0 0 0 0 0 0 0 0 0 0 0 0 0 0 0 0 0 0 127 0" result="hardAlpha"/>
<feOffset dy="2.20528"/>
<feGaussianBlur stdDeviation="1.10264"/>
<feComposite in2="hardAlpha" operator="out"/>
<feColorMatrix type="matrix" values="0 0 0 0 0 0 0 0 0 0 0 0 0 0 0 0 0 0 0.15 0"/>
<feBlend mode="normal" in2="BackgroundImageFix" result="effect1_dropShadow_376_2"/>
<feBlend mode="normal" in="SourceGraphic" in2="effect1_dropShadow_376_2" result="shape"/>
</filter>
<linearGradient id="paint0_linear_376_2" x1="34.7698" y1="54" x2="17.7388" y2="5.97019" gradientUnits="userSpaceOnUse">
<stop stop-color="#F3B14E"/>
<stop offset="1" stop-color="#FFCE51"/>
</linearGradient>
<clipPath id="clip0_376_2">
<rect width="129" height="54" fill="white"/>
</clipPath>
</defs>
</svg>
