<svg width="393" height="852" viewBox="0 0 393 852" fill="none" xmlns="http://www.w3.org/2000/svg">
<path d="M55.71 -204.938C57.643 -208.286 61.9241 -209.433 65.2721 -207.5L602.561 102.704C605.909 104.637 607.057 108.918 605.124 112.266L431.494 413.002C429.273 416.849 423.378 414.557 424.338 410.22V410.22C447.848 304.047 358.555 206.861 250.775 221.314L139.397 236.25V236.25C38.6933 244.15 -59.5904 202.734 -124.268 125.142L-130.146 118.089C-130.375 117.815 -130.408 117.428 -130.229 117.119L55.71 -204.938Z" fill="#4FC4E7"/>
<path d="M-108.859 -157.557C-108.859 -161.423 -105.725 -164.557 -101.859 -164.557H447.141C451.007 -164.557 454.141 -161.423 454.141 -157.557V142.512C454.141 146.433 448.632 147.301 447.427 143.569V143.569C418.136 52.9169 308.236 18.1521 232.138 75.4667L151.223 136.41V136.41C77.1476 186.107 -16.136 197.647 -100.089 167.5L-108.348 164.534C-108.655 164.424 -108.859 164.134 -108.859 163.809V-157.557Z" fill="#011C2D"/>
<path d="M458.047 918.5C457.769 922.356 454.418 925.256 450.562 924.979L-97.0181 885.52C-100.874 885.243 -103.775 881.891 -103.497 878.035L-81.9302 578.743C-81.6484 574.832 -76.0912 574.362 -75.1568 578.171V578.171C-52.457 670.694 54.6595 713.268 134.68 661.571L219.766 606.601V606.601C297.222 562.356 391.094 557.55 472.663 593.653L480.688 597.205C480.985 597.337 481.168 597.641 481.144 597.965L458.047 918.5Z" fill="url(#paint0_linear_385_58)"/>
<defs>
<linearGradient id="paint0_linear_385_58" x1="204.084" y1="526.232" x2="176.772" y2="905.25" gradientUnits="userSpaceOnUse">
<stop stop-color="#011C2D"/>
<stop offset="1" stop-color="#035B93"/>
</linearGradient>
</defs>
</svg>
