<svg width="393" height="852" viewBox="0 0 393 852" fill="none" xmlns="http://www.w3.org/2000/svg">
<g clip-path="url(#clip0_383_20)">
<path d="M44.71 -116.938C46.643 -120.286 50.9241 -121.433 54.2721 -119.5L591.561 190.704C594.909 192.637 596.057 196.918 594.124 200.266L420.494 501.002C418.273 504.849 412.378 502.557 413.338 498.22V498.22C436.848 392.047 347.555 294.861 239.775 309.314L128.397 324.25V324.25C27.6933 332.15 -70.5904 290.734 -135.268 213.142L-141.146 206.089C-141.375 205.815 -141.408 205.428 -141.229 205.119L44.71 -116.938Z" fill="#4FC4E7"/>
<path d="M-119.859 -69.5566C-119.859 -73.4226 -116.725 -76.5566 -112.859 -76.5566H436.141C440.007 -76.5566 443.141 -73.4226 443.141 -69.5566V230.512C443.141 234.433 437.632 235.301 436.427 231.57V231.57C407.136 140.917 297.236 106.152 221.138 163.467L140.223 224.41V224.41C66.1475 274.107 -27.136 285.648 -111.089 255.5L-119.349 252.534C-119.655 252.424 -119.859 252.134 -119.859 251.809V-69.5566Z" fill="#011C2D"/>
<path d="M458.188 1000.94C457.911 1004.8 454.559 1007.7 450.703 1007.42L-96.8768 967.964C-100.733 967.686 -103.633 964.335 -103.356 960.479L-81.7889 661.187C-81.507 657.275 -75.9498 656.806 -75.0154 660.614V660.614C-52.3157 753.137 54.8008 795.711 134.821 744.014L219.908 689.044V689.044C297.363 644.799 391.235 639.993 472.804 676.097L480.829 679.649C481.126 679.78 481.309 680.084 481.286 680.409L458.188 1000.94Z" fill="url(#paint0_linear_383_20)"/>
</g>
<defs>
<linearGradient id="paint0_linear_383_20" x1="204.225" y1="608.676" x2="176.913" y2="987.693" gradientUnits="userSpaceOnUse">
<stop stop-color="#011C2D"/>
<stop offset="1" stop-color="#035B93"/>
</linearGradient>
<clipPath id="clip0_383_20">
<rect width="393" height="852" fill="white"/>
</clipPath>
</defs>
</svg>
