<svg width="393" height="852" viewBox="0 0 393 852" fill="none" xmlns="http://www.w3.org/2000/svg">
<g clip-path="url(#clip0_383_20)">
<rect width="393" height="852" fill="#FEF8EC"/>
<path d="M652.788 870.023C653.532 873.817 651.06 877.496 647.266 878.239L-146.297 1033.83C-150.091 1034.57 -153.769 1032.1 -154.513 1028.31L-239.496 594.861C-240.598 589.238 -232.943 586.445 -230.165 591.457V591.457C-162.678 713.211 4.68399 732.164 97.6894 628.585L196.583 518.448V518.448C288.83 426.36 419.347 383.586 548.205 403.213L560.883 405.144C561.352 405.215 561.727 405.574 561.818 406.04L652.788 870.023Z" fill="url(#paint0_linear_383_20)"/>
<path d="M-79.5815 -312.155C-78.7712 -315.936 -75.05 -318.343 -71.2698 -317.533L535.359 -187.506C539.14 -186.695 541.547 -182.974 540.737 -179.194L467.957 160.353C467.026 164.697 460.712 164.328 460.293 159.906V159.906C450.028 51.6468 335.184 -13.3861 237.065 33.4976L135.671 81.9465V81.9465C42.2713 120.42 -63.9849 111.22 -149.382 57.2661L-157.144 52.3621C-157.445 52.1716 -157.596 51.813 -157.521 51.4641L-79.5815 -312.155Z" fill="#4FC4E7"/>
<path d="M-92.8684 -252.001C-92.8152 -255.866 -89.6384 -258.957 -85.7728 -258.904L463.175 -251.351C467.041 -251.298 470.131 -248.121 470.078 -244.255L465.95 55.7846C465.896 59.7057 460.376 60.4978 459.221 56.7501V56.7501C431.18 -34.2969 321.77 -70.5703 244.891 -14.3081L163.144 45.516V45.516C88.3922 94.1896 -5.04124 104.445 -88.5716 73.1459L-96.7894 70.0666C-97.094 69.9525 -97.2941 69.6596 -97.2896 69.3344L-92.8684 -252.001Z" fill="#011C2D"/>
</g>
<defs>
<linearGradient id="paint0_linear_383_20" x1="207.556" y1="964.45" x2="41.3697" y2="449.596" gradientUnits="userSpaceOnUse">
<stop stop-color="#011C2D"/>
<stop offset="0.53" stop-color="#035B93"/>
</linearGradient>
<clipPath id="clip0_383_20">
<rect width="393" height="852" fill="white"/>
</clipPath>
</defs>
</svg>
