<svg width="118" height="104" viewBox="0 0 118 104" fill="none" xmlns="http://www.w3.org/2000/svg">
<path fill-rule="evenodd" clip-rule="evenodd" d="M36.7344 26.0286C38.4515 30.0304 41.9462 31.4322 44.96 30.7463C47.3283 30.2072 50.4111 25.2366 50.3023 22.941C49.9767 16.0552 42.4064 2.93729 38.2866 2.06598C34.9579 4.63275 34.0148 19.6883 36.7344 26.0286Z" fill="#FEDEA6"/>
<path d="M43.4811 31.0871C42.3752 31.0871 41.2746 30.8202 40.2786 30.3005C38.6736 29.4624 37.3919 28.0091 36.5716 26.0972C35.3007 23.1339 34.723 17.9703 35.0658 12.6203C35.3352 8.40307 36.2946 3.37884 38.1777 1.92558L38.2424 1.87521L38.3222 1.89236C42.5369 2.78403 50.1481 15.9576 50.478 22.9313C50.5922 25.3448 47.4436 30.3594 44.9989 30.9167C44.4998 31.0314 43.9899 31.0871 43.4811 31.0871ZM38.3308 2.25567C36.8648 3.47422 35.7524 7.4353 35.4193 12.6428C35.0808 17.9414 35.6468 23.0438 36.8972 25.9589C38.3502 29.3456 41.0634 30.7302 43.5146 30.7302C43.9975 30.7302 44.4696 30.6766 44.9213 30.5738C47.1903 30.0572 50.2333 25.198 50.1266 22.9474C49.9778 19.7912 48.2294 14.9588 45.5648 10.3343C42.9519 5.79986 40.1913 2.7208 38.3308 2.25567Z" fill="#F5C371"/>
<path d="M38.4009 2.00724L38.0564 2.08646L44.732 30.7675L45.0765 30.6883L38.4009 2.00724Z" fill="#F9CF88"/>
<path d="M40.9114 13.0715L40.6257 12.8636C40.6473 12.8346 42.7837 9.93028 44.2206 8.01297L44.5041 8.22303C43.0683 10.1393 40.9329 13.0426 40.9114 13.0715Z" fill="#F9CF88"/>
<path d="M45.1798 9.5252L40.9973 14.4105L41.2666 14.6383L45.4491 9.75305L45.1798 9.5252Z" fill="#F9CF88"/>
<path d="M35.1865 16.4753L35.0134 16.7818L42.5085 20.9637L42.6816 20.6571L35.1865 16.4753Z" fill="#F9CF88"/>
<path d="M49.5804 19.5824L43.6152 25.6241L43.8675 25.8704L49.8327 19.8286L49.5804 19.5824Z" fill="#F9CF88"/>
<path d="M35.5566 21.3059L35.4326 21.6351L43.3742 24.592L43.4982 24.2628L35.5566 21.3059Z" fill="#F9CF88"/>
<path d="M39.9726 10.1832C39.3581 9.62588 37.7391 8.14905 35.9832 6.46109L36.2289 6.20816C37.9816 7.89183 39.5985 9.36652 40.2119 9.92275L39.9726 10.1832Z" fill="#F9CF88"/>
<path fill-rule="evenodd" clip-rule="evenodd" d="M37.1452 22.2294C36.4974 21.5767 35.7924 20.9219 35.0432 20.2724C28.0906 14.2451 17.3663 8.69461 13.4178 9.94638C11.345 14.9192 19.8013 32.4418 26.8963 37.7993C31.375 41.1806 36.174 40.5333 39.0995 37.8604C39.5899 37.4124 40.0276 36.9066 40.4027 36.3547C42.2643 33.6111 42.5737 29.6961 40.0664 25.7661C39.342 24.6279 38.3406 23.4329 37.1452 22.2294Z" fill="#FEDEA6"/>
<path d="M33.2731 40.2814C31.0591 40.2814 28.8245 39.4755 26.7894 37.9397C23.4899 35.448 19.5694 30.0326 16.5598 23.8048C14.1949 18.9124 12.0843 12.6857 13.2538 9.87885L13.2851 9.80383L13.3638 9.77918C15.2599 9.17794 18.747 10.046 23.1816 12.2227C27.3467 14.2675 31.7123 17.1537 35.1584 20.1406C35.9194 20.8008 36.6298 21.462 37.2701 22.1061C38.5162 23.36 39.5068 24.5593 40.2161 25.6707C42.5369 29.3091 42.6608 33.3388 40.5492 36.4522C40.1686 37.0138 39.7202 37.5314 39.219 37.989C37.684 39.3908 35.6845 40.2032 33.5857 40.2761C33.4823 40.2793 33.3777 40.2814 33.2731 40.2814ZM13.5503 10.09C12.6674 12.3877 13.9362 17.5663 16.8778 23.6526C19.8648 29.8321 23.7453 35.1993 27.0028 37.6589C31.5625 41.1013 36.3032 40.1753 38.9797 37.7307C39.4615 37.2903 39.8905 36.794 40.256 36.256C42.2868 33.2627 42.1596 29.3767 39.9175 25.8593C39.2222 24.7693 38.2467 23.5894 37.0189 22.3537C36.3851 21.716 35.6812 21.0601 34.9267 20.4064C28.2942 14.6555 17.5666 8.9368 13.5503 10.09Z" fill="#F5C371"/>
<path d="M13.5482 9.82745L13.2874 10.0647L38.971 37.98L39.2319 37.7427L13.5482 9.82745Z" fill="#F5C371"/>
<path d="M15.4216 21.0022L15.4087 20.6507C18.4959 20.5339 23.145 20.3999 23.1913 20.3989L23.201 20.7504C23.1547 20.7525 18.5077 20.8865 15.4216 21.0022Z" fill="#F5C371"/>
<path d="M24.573 21.9176L16.3245 22.7635L16.3607 23.1132L24.6093 22.2673L24.573 21.9176Z" fill="#F5C371"/>
<path d="M31.0517 17.258L30.0466 28.1938L30.3987 28.2258L31.4038 17.29L31.0517 17.258Z" fill="#F5C371"/>
<path d="M34.6103 32.843L23.8313 34.7231L23.8924 35.0694L34.6714 33.1893L34.6103 32.843Z" fill="#F5C371"/>
<path d="M35.9203 21.1697L33.2874 31.6841L33.6304 31.769L36.2634 21.2547L35.9203 21.1697Z" fill="#F5C371"/>
<path d="M20.4122 17.7635C20.2667 16.7111 19.8722 13.931 19.3569 10.8648L19.7062 10.807C20.2225 13.8775 20.6181 16.6618 20.7636 17.7164L20.4122 17.7635Z" fill="#F5C371"/>
<path fill-rule="evenodd" clip-rule="evenodd" d="M93.9413 79.2721C89.649 78.4212 86.5133 80.4993 85.3815 83.3597C84.4922 85.6071 86.8787 90.9432 88.846 92.1499C94.7455 95.7702 109.91 96.963 112.959 94.0726C112.707 89.8929 100.741 80.6193 93.9413 79.2721Z" fill="#FEDEA6"/>
<path d="M105.268 95.8667C99.5681 95.8667 92.4182 94.5496 88.7532 92.3C86.6857 91.0311 84.2992 85.6157 85.2176 83.2954C85.8148 81.7865 86.9434 80.5336 88.3942 79.7695C89.996 78.925 91.9255 78.6945 93.9768 79.1007C97.1546 79.7298 101.767 82.1723 106.015 85.4732C109.364 88.0753 112.994 91.6988 113.137 94.0652L113.142 94.1466L113.083 94.2034C111.875 95.3437 108.859 95.8667 105.268 95.8667ZM92.0603 79.2572C88.7155 79.2572 86.4216 81.2099 85.5453 83.424C84.6937 85.5782 87.0091 90.8179 88.9375 92.001C91.642 93.6601 96.6404 94.9536 101.985 95.378C107.226 95.7939 111.34 95.2666 112.776 94.0019C112.592 92.1103 109.931 88.9616 105.796 85.7486C101.589 82.4799 97.0328 80.0642 93.9068 79.4447C93.2611 79.3161 92.6445 79.2572 92.0603 79.2572Z" fill="#F5C371"/>
<path d="M85.4969 83.1633L85.3682 83.4907L112.946 94.2061L113.074 93.8787L85.4969 83.1633Z" fill="#F5C371"/>
<path d="M104.337 95.6996C103.557 93.4393 102.352 90.0484 102.34 90.0141L102.673 89.8972C102.685 89.9315 103.89 93.3235 104.671 95.5859L104.337 95.6996Z" fill="#F5C371"/>
<path d="M101.177 89.3248L100.836 89.417L102.53 95.6071L102.872 95.5148L101.177 89.3248Z" fill="#F5C371"/>
<path d="M102.589 83.0834L94.8857 86.873L95.0425 87.1881L102.746 83.3984L102.589 83.0834Z" fill="#F5C371"/>
<path d="M90.3935 85.1471L90.0466 85.2151L91.6949 93.5215L92.0418 93.4535L90.3935 85.1471Z" fill="#F5C371"/>
<path d="M98.3267 80.6798L91.3892 85.5286L91.5925 85.8162L98.53 80.9674L98.3267 80.6798Z" fill="#F5C371"/>
<path d="M105.349 91.2154L105.268 90.8735C106.08 90.6828 108.225 90.1876 110.61 89.7L110.681 90.044C108.301 90.5306 106.159 91.0257 105.349 91.2154Z" fill="#F5C371"/>
<path fill-rule="evenodd" clip-rule="evenodd" d="M93.1877 74.0947C89.4937 76.4278 88.6701 80.0834 89.8397 82.9299C90.7592 85.1655 96.1919 87.3851 98.4523 86.906C105.234 85.471 117.025 75.9166 117.222 71.7326C114.135 68.8829 99.0398 70.3983 93.1877 74.0947Z" fill="#FEDEA6"/>
<path d="M97.7354 87.1483C95.1117 87.1483 90.5359 85.0852 89.6768 82.9964C89.0603 81.4949 89.0053 79.8145 89.5227 78.2648C90.094 76.5543 91.3282 75.0614 93.0939 73.9468C95.8286 72.2192 100.86 70.8163 106.225 70.2847C110.455 69.8657 115.597 69.9921 117.344 71.604L117.404 71.6597L117.4 71.7412C117.197 76.0206 105.357 85.6243 98.49 87.0775C98.2636 87.1258 98.0103 87.1483 97.7354 87.1483ZM110.276 70.423C109.042 70.423 107.692 70.4926 106.26 70.6341C100.947 71.1603 95.9741 72.5439 93.2836 74.2437C89.5421 76.6068 88.9406 80.2764 90.0045 82.8635C90.8852 85.0059 96.2005 87.2029 98.4167 86.7335C101.524 86.0755 106.038 83.5773 110.196 80.2132C114.274 76.9144 116.883 73.7067 117.042 71.8066C115.99 70.9063 113.538 70.423 110.276 70.423Z" fill="#F5C371"/>
<path d="M117.162 71.5079L89.7798 82.7061L89.9143 83.0312L117.296 71.833L117.162 71.5079Z" fill="#F5C371"/>
<path d="M112.12 78.8307C109.985 77.7321 106.758 76.1085 106.726 76.0913L106.885 75.7773C106.917 75.7934 110.146 77.4181 112.281 78.5177L112.12 78.8307Z" fill="#F5C371"/>
<path d="M105.409 76.3967L105.227 76.6978L110.752 80.01L110.935 79.7089L105.409 76.3967Z" fill="#F5C371"/>
<path d="M102.082 70.9035L99.1455 78.9339L99.4778 79.054L102.414 71.0236L102.082 70.9035Z" fill="#F5C371"/>
<path d="M94.702 80.7792L94.4985 81.0666L101.462 85.94L101.665 85.6525L94.702 80.7792Z" fill="#F5C371"/>
<path d="M97.3349 72.1069L95.6873 80.3771L96.0341 80.4454L97.6817 72.1752L97.3349 72.1069Z" fill="#F5C371"/>
<path d="M109.735 74.8932L109.439 74.7013C109.893 74.0069 111.099 72.1753 112.486 70.183L112.777 70.3834C111.393 72.3725 110.189 74.1998 109.735 74.8932Z" fill="#F5C371"/>
<path fill-rule="evenodd" clip-rule="evenodd" d="M49.5525 36.3064C19.1561 25.33 3.92524 32.1088 0.383617 54.4274C-3.158 76.746 18.1819 98.2159 49.5526 102.587C74.6811 106.089 100.213 90.3445 104.435 53.1934C108.657 16.0423 79.9488 47.2829 49.5525 36.3064Z" fill="#4B5054"/>
<path fill-rule="evenodd" clip-rule="evenodd" d="M45.7291 36.0796C45.451 36.1278 45.174 36.1814 44.897 36.2371C44.1866 36.3786 43.4784 36.5329 42.7735 36.698C41.785 36.9295 40.8019 37.1824 39.8264 37.4611C38.714 37.7783 37.6102 38.1287 36.5236 38.5263C35.3616 38.9518 34.205 39.4341 33.1088 40.0085C33.0861 40.0203 33.0592 40.0117 33.0473 39.9892C33.0355 39.9667 33.0441 39.9399 33.0667 39.9282C34.1662 39.3505 35.3261 38.8671 36.4924 38.4406C37.58 38.043 38.687 37.6915 39.8005 37.3732C40.7771 37.0945 41.7624 36.8405 42.7519 36.609C43.4579 36.444 44.1672 36.2886 44.8786 36.1482C45.1557 36.0935 45.4338 36.0389 45.713 35.9907C45.7378 35.9864 45.7615 36.0024 45.7658 36.0271C45.7712 36.0517 45.7539 36.0753 45.7291 36.0796Z" fill="white"/>
<path d="M33.0878 40.0371C33.063 40.0371 33.0393 40.0242 33.0264 40.0006C33.0178 39.9846 33.0156 39.9663 33.021 39.9481C33.0264 39.931 33.0383 39.916 33.0544 39.9074C34.0461 39.3865 35.1672 38.9 36.4833 38.4188C37.5117 38.0426 38.595 37.6932 39.7936 37.3513C40.74 37.0813 41.7339 36.8241 42.7461 36.5872C43.4715 36.4179 44.1873 36.2625 44.8739 36.1264C45.1251 36.076 45.4183 36.0192 45.7082 35.9688C45.7265 35.9656 45.7449 35.9699 45.76 35.9806C45.775 35.9913 45.7848 36.0074 45.788 36.0245C45.7912 36.0428 45.7869 36.061 45.7761 36.076C45.7653 36.091 45.7492 36.1006 45.7319 36.1039C45.4463 36.1532 45.1531 36.211 44.9008 36.2603C44.2153 36.3964 43.5017 36.5508 42.7784 36.7212C41.7695 36.9569 40.7778 37.2142 39.8324 37.4842C38.6359 37.8261 37.5569 38.1744 36.5318 38.5485C35.2221 39.0275 34.1065 39.5119 33.1202 40.0296C33.1105 40.0339 33.0986 40.0371 33.0878 40.0371ZM45.7212 36.0128C45.7201 36.0128 45.719 36.0128 45.7168 36.0128C45.4269 36.0631 45.1348 36.1199 44.8836 36.1703C44.198 36.3064 43.4834 36.4618 42.7579 36.6311C41.7468 36.868 40.7541 37.1252 39.8076 37.3953C38.6101 37.7372 37.5278 38.0865 36.5006 38.4616C35.1866 38.9428 34.0666 39.4283 33.0771 39.9481C33.0717 39.9503 33.0684 39.9556 33.0663 39.961C33.0641 39.9663 33.0652 39.9728 33.0674 39.9781C33.0727 39.9888 33.0868 39.9931 33.0975 39.9867C34.086 39.468 35.2038 38.9825 36.5156 38.5024C37.5418 38.1273 38.6219 37.779 39.8195 37.4371C40.7659 37.167 41.7576 36.9098 42.7676 36.674C43.492 36.5047 44.2067 36.3493 44.8922 36.2132C45.1445 36.1628 45.4377 36.106 45.7244 36.0556C45.7298 36.0546 45.7352 36.0513 45.7384 36.0471C45.7416 36.0428 45.7427 36.0363 45.7416 36.031C45.7406 36.0256 45.7373 36.0203 45.733 36.017C45.7298 36.0138 45.7255 36.0128 45.7212 36.0128Z" fill="white"/>
<path fill-rule="evenodd" clip-rule="evenodd" d="M73.0898 26.1497C75.4731 22.031 77.0792 17.7131 77.574 16.3081C77.7335 14.7015 75.0312 9.57658 75.0312 9.57658C72.6662 9.7009 64.4502 10.0706 60.893 9.44475C60.893 9.44475 58.6747 8.16619 56.9392 9.60444C55.2037 11.0427 58.1928 13.0243 58.1928 13.0243L45.7212 36.0341C52.7924 44.2157 58.8353 39.7412 58.8353 39.7412L60.6354 34.3719C64.7563 36.1199 68.4773 32.9894 71.3888 28.83C71.903 28.0187 72.4937 27.0746 73.0898 26.1497Z" fill="#FDBCA0"/>
<path fill-rule="evenodd" clip-rule="evenodd" d="M64.5408 93.8524L61.1497 98.449L76.4498 98.5133C73.0435 95.7654 64.5408 93.8524 64.5408 93.8524Z" fill="#FDBCA0"/>
<path fill-rule="evenodd" clip-rule="evenodd" d="M73.0899 26.1497C72.5607 27.0649 71.9926 27.9695 71.39 28.8311C69.6503 31.5812 69.1221 33.446 69.1221 34.2133C69.1221 34.9807 69.5112 37.4617 69.5112 37.4617L74.0719 37.3652C74.0719 37.3652 74.0719 34.9164 74.4567 33.7021C74.8426 32.4878 77.2852 22.0696 76.5134 21.941C76.3345 21.911 76.0564 22.1189 75.7125 22.4887C75.7244 22.4962 75.4344 22.8081 75.263 23.016C74.6271 23.8144 73.8531 24.9665 73.0899 26.1497Z" fill="#FDBCA0"/>
<path fill-rule="evenodd" clip-rule="evenodd" d="M57.6784 1.74339C49.3213 6.47289 33.0876 39.9674 33.0876 39.9674C38.0569 37.3588 45.721 36.0342 45.721 36.0342L58.1926 13.0243C58.1926 13.0243 55.2035 11.0427 56.939 9.60446C58.6744 8.16621 60.8928 9.44478 60.8928 9.44478C64.45 10.0707 72.666 9.69985 75.0309 9.5766C75.0309 9.5766 77.7333 14.7016 77.5738 16.3081C77.0779 17.7131 75.4729 22.0321 73.0896 26.1497C74.5125 23.943 75.9709 21.851 76.5142 21.941C77.286 22.0686 74.8423 32.4878 74.4575 33.7021C74.0716 34.9164 74.0727 37.3652 74.0727 37.3652L75.0363 37.3449C75.0363 37.3449 75.5106 41.7239 76.0787 47.986C76.3449 50.9139 76.6306 54.2545 76.899 57.7505C77.8152 56.5726 79.8234 53.7894 79.9226 51.9181C80.0508 49.4896 82.3652 29.547 81.3368 15.9973C80.3074 2.44644 74.4575 3.40563 74.4575 3.40563C74.4575 3.40563 66.0356 -2.98611 57.6784 1.74339Z" fill="#3F4553"/>
<path fill-rule="evenodd" clip-rule="evenodd" d="M71.3898 28.8311C68.4783 32.9905 64.7573 36.121 60.6363 34.373L58.8362 39.7423C58.8362 39.7423 66.2383 42.4602 67.9059 46.0387C68.4826 40.8698 68.9935 37.4735 68.9935 37.4735L69.512 37.4628C69.512 37.4628 69.1229 34.9807 69.1229 34.2144C69.1218 33.446 69.6489 31.5812 71.3898 28.8311Z" fill="#3F4553"/>
<path fill-rule="evenodd" clip-rule="evenodd" d="M30.0017 81.9842C28.719 81.8706 27.4029 81.7784 26.0554 81.7088C26.9146 80.7839 28.1305 78.4261 29.4218 75.5453C29.5932 77.5023 29.8595 80.4281 30.0017 81.9842ZM30.807 41.4356C26.4349 45.0152 6.6344 75.6953 13.5773 90.7798C13.5773 90.7798 18.9778 96.1491 61.1496 98.4501L64.5407 93.8535L65.3934 92.6982C65.3934 92.6982 62.5466 90.7166 57.0782 88.4263C57.0782 88.4263 58.472 85.3826 60.0954 81.7345C60.0954 81.7345 65.9086 92.4431 71.1797 95.3829C64.1775 88.6096 66.2978 60.4437 67.906 46.0398C66.2396 42.4613 58.8363 39.7434 58.8363 39.7434C58.8363 39.7434 52.7935 44.2178 45.7223 36.0363C45.7223 36.0363 38.0582 37.361 33.0889 39.9695C32.2287 40.4186 31.4505 40.9084 30.807 41.4356Z" fill="#63A6DC"/>
<path fill-rule="evenodd" clip-rule="evenodd" d="M67.9048 46.0387C66.2966 60.4426 64.1763 88.6085 71.1785 95.3818C71.1785 95.3818 76.4495 99.7276 77.7355 86.9452C78.3704 80.6317 77.7193 68.458 76.898 57.7515C76.6296 54.2556 76.3439 50.915 76.0777 47.9871C75.5096 41.725 75.0353 37.346 75.0353 37.346L74.0716 37.3663L69.5109 37.4628L68.9925 37.4735C68.9925 37.4735 68.4815 40.8698 67.9048 46.0387Z" fill="#63A6DC"/>
<path fill-rule="evenodd" clip-rule="evenodd" d="M61.3221 54.9737C61.542 55.7389 61.7597 56.5041 61.9764 57.2704C62.4474 58.9369 62.9131 60.6056 63.3669 62.2775C63.7852 63.8132 64.1969 65.3533 64.5774 66.8987C64.7154 67.4614 64.8512 68.0283 64.9687 68.5963C65.0086 68.7914 65.0474 68.9875 65.0776 69.1836C65.0959 69.3037 65.1164 69.4376 65.1164 69.5598C65.1164 69.6895 65.0658 69.8695 65.0313 69.9949C64.9623 70.2414 64.8782 70.4858 64.793 70.7269C64.5311 71.4675 64.2368 72.2016 63.9415 72.9293C63.5469 73.8992 63.1406 74.8637 62.7288 75.8262C62.2663 76.9086 61.7964 77.9878 61.3242 79.0649C60.9308 79.9619 60.5341 80.8579 60.1353 81.7528C60.1256 81.7753 60.0986 81.786 60.0749 81.7763C60.0523 81.7667 60.0415 81.7399 60.0512 81.7163C60.4489 80.8214 60.8456 79.9255 61.2391 79.0285C61.7123 77.9514 62.1812 76.8721 62.6436 75.7897C63.0543 74.8273 63.4618 73.8638 63.8552 72.8939C64.1506 72.1673 64.4438 71.4342 64.7057 70.6958C64.7909 70.4568 64.8739 70.2136 64.9418 69.9703C64.9741 69.8556 65.0237 69.6798 65.0237 69.5598C65.0237 69.443 65.0043 69.3133 64.986 69.1976C64.9558 69.0025 64.917 68.8075 64.8771 68.6145C64.7607 68.0476 64.6249 67.4828 64.4869 66.9202C64.1075 65.3758 63.6946 63.8357 63.2774 62.301C62.8226 60.6302 62.358 58.9616 61.8869 57.295C61.6702 56.5288 61.4536 55.7635 61.2326 54.9983C61.2261 54.9748 61.2401 54.949 61.2639 54.9426C61.2908 54.9362 61.3156 54.9501 61.3221 54.9737Z" fill="#A7D1F3"/>
<path d="M60.0944 81.8021C60.0847 81.8021 60.0761 81.7999 60.0664 81.7956C60.0319 81.7806 60.0157 81.7399 60.0308 81.7045C60.4534 80.7561 60.8414 79.8772 61.2187 79.0167C61.7425 77.8217 62.2028 76.7628 62.6232 75.779C63.1072 74.6462 63.4931 73.7256 63.8348 72.8843C64.1043 72.2209 64.4147 71.4492 64.6842 70.6872C64.765 70.4579 64.8502 70.2114 64.9203 69.9627C64.9526 69.847 65.0011 69.6745 65.0011 69.5587C65.0011 69.4419 64.9806 69.3079 64.9634 69.1997C64.9311 68.9928 64.8912 68.7892 64.8556 68.6177C64.737 68.0454 64.598 67.4656 64.4654 66.9244C64.0816 65.3629 63.6569 63.7811 63.256 62.3053C62.8399 60.7738 62.385 59.1362 61.8654 57.2993C61.6606 56.5748 61.4397 55.7946 61.2111 55.0036C61.2057 54.9865 61.2079 54.9672 61.2176 54.9511C61.2262 54.9351 61.2413 54.9233 61.2586 54.9179C61.2758 54.9126 61.2952 54.9147 61.3114 54.9243C61.3276 54.9329 61.3394 54.9479 61.3448 54.9651C61.5776 55.7721 61.8061 56.5791 61.9991 57.2618C62.5176 59.0966 62.9725 60.7341 63.3896 62.2689C63.7917 63.7457 64.2164 65.3286 64.6001 66.8912C64.7338 67.4335 64.8728 68.0154 64.9914 68.5888C65.027 68.7624 65.0679 68.9682 65.1003 69.1772C65.1164 69.2833 65.1391 69.429 65.1391 69.5566C65.1391 69.6905 65.0874 69.8749 65.0529 69.997C64.9817 70.25 64.8966 70.4986 64.8146 70.7301C64.5441 71.4953 64.2326 72.2691 63.9631 72.9336C63.6214 73.7759 63.2355 74.6965 62.7504 75.8304C62.3279 76.8175 61.8687 77.8774 61.3448 79.0702C60.9675 79.9287 60.5795 80.8086 60.1558 81.7581C60.1461 81.7871 60.1214 81.8021 60.0944 81.8021ZM61.279 54.964C61.2769 54.964 61.2747 54.964 61.2726 54.9651C61.2672 54.9672 61.2618 54.9704 61.2596 54.9758C61.2564 54.9811 61.2564 54.9865 61.2575 54.9919C61.486 55.7839 61.707 56.563 61.9118 57.2886C62.4313 59.1255 62.8862 60.7631 63.3023 62.2946C63.7033 63.7703 64.128 65.3522 64.5117 66.9148C64.6443 67.456 64.7845 68.0358 64.9019 68.6092C64.9375 68.7817 64.9785 68.9853 65.0108 69.1933C65.0281 69.3026 65.0485 69.4376 65.0485 69.5587C65.0485 69.6809 64.999 69.8566 64.9666 69.9735C64.8955 70.2253 64.8103 70.4729 64.7295 70.7033C64.4589 71.4664 64.1485 72.2391 63.879 72.9025C63.5373 73.7449 63.1514 74.6644 62.6674 75.7983C62.2459 76.7832 61.7867 77.842 61.2629 79.037C60.8856 79.8976 60.4965 80.7764 60.075 81.7249C60.0696 81.7356 60.075 81.7485 60.0858 81.7538C60.0966 81.7581 60.1095 81.7538 60.1149 81.7431C60.5374 80.7936 60.9266 79.9137 61.3028 79.0552C61.8255 77.8635 62.2858 76.8035 62.7073 75.8165C63.1924 74.6826 63.5772 73.762 63.92 72.9196C64.1894 72.2552 64.501 71.4824 64.7715 70.7183C64.8534 70.4879 64.9386 70.2392 65.0097 69.9885C65.0432 69.8684 65.0938 69.6884 65.0938 69.5598C65.0938 69.4355 65.0712 69.2918 65.055 69.1879C65.0227 68.98 64.9817 68.7742 64.9461 68.6017C64.8276 68.0283 64.6885 67.4474 64.5549 66.9051C64.1711 65.3426 63.7464 63.7607 63.3443 62.2839C62.9272 60.7502 62.4723 59.1126 61.9538 57.2778C61.7609 56.5952 61.5324 55.7882 61.2995 54.9811C61.2984 54.9758 61.2941 54.9715 61.2887 54.9683C61.2866 54.9651 61.2823 54.964 61.279 54.964Z" fill="#A7D1F3"/>
<path fill-rule="evenodd" clip-rule="evenodd" d="M26.1545 81.6681C30.9826 81.9178 35.7955 82.488 40.5384 83.4161C45.1563 84.3195 49.7245 85.5649 54.1354 87.1992C55.7749 87.8069 57.3961 88.4692 58.9872 89.1926C60.1772 89.7338 61.3521 90.3104 62.5034 90.9299C63.2321 91.3221 63.9532 91.7315 64.6571 92.1667C64.9125 92.3253 65.1723 92.4882 65.4192 92.6596C65.43 92.6672 65.4364 92.6768 65.4375 92.6897C65.4396 92.7025 65.4364 92.7132 65.4289 92.7239L61.1861 98.4769C61.1711 98.4973 61.143 98.5016 61.1225 98.4866C61.1021 98.4716 61.0978 98.4437 61.1128 98.4234L65.3286 92.7079C65.0947 92.5471 64.85 92.3928 64.6086 92.2438C63.9068 91.8098 63.1868 91.4004 62.4603 91.0092C61.3112 90.3908 60.1373 89.8153 58.9494 89.2752C57.3606 88.5517 55.7415 87.8905 54.1041 87.2839C49.6976 85.6517 45.1336 84.4085 40.5212 83.505C35.7535 82.5715 30.9157 82.0003 26.0618 81.7538C26.0564 81.7549 26.051 81.7538 26.0457 81.7527C24.6756 81.6831 23.3056 81.6391 21.9344 81.6209C21.9096 81.6209 21.8892 81.5995 21.8892 81.5748C21.8892 81.5502 21.9107 81.5298 21.9355 81.5298C23.3034 81.548 24.6702 81.592 26.037 81.6616C26.2257 81.4559 26.396 81.2233 26.5534 80.994C26.7668 80.681 26.9651 80.3552 27.1548 80.0273C27.6453 79.1774 28.0894 78.2911 28.513 77.4069C29.0304 76.3266 29.5209 75.2324 29.9963 74.1328C30.5147 72.9346 31.0171 71.7289 31.5086 70.519C32.6329 67.7529 33.7065 64.9632 34.7489 62.1649C35.2275 60.8778 35.7039 59.5885 36.1642 58.2949C36.1728 58.2714 36.1987 58.2585 36.2224 58.2671C36.2461 58.2756 36.259 58.3014 36.2504 58.3249C35.7901 59.6185 35.3148 60.9089 34.8351 62.196C33.7927 64.9953 32.7191 67.785 31.5948 70.5533C31.1033 71.7632 30.601 72.97 30.0814 74.1682C29.605 75.2678 29.1145 76.3631 28.5971 77.4444C28.1724 78.3307 27.7272 79.2192 27.2357 80.0712C27.0449 80.4013 26.8466 80.7293 26.631 81.0443C26.4833 81.2576 26.3259 81.473 26.1545 81.6681Z" fill="#A7D1F3"/>
<path fill-rule="evenodd" clip-rule="evenodd" d="M60.8832 9.48977C60.8789 9.4887 60.8746 9.48762 60.8703 9.48441C60.7539 9.41689 60.6192 9.35794 60.4963 9.3065C60.1944 9.18111 59.8754 9.08573 59.5542 9.02785C58.6164 8.85852 57.7141 9.02357 56.9693 9.64088C56.6556 9.90131 56.4368 10.2303 56.4422 10.6483C56.4476 11.0684 56.6782 11.4767 56.9294 11.8015C57.1698 12.1133 57.4641 12.3973 57.768 12.6471C57.9103 12.7649 58.0645 12.885 58.2186 12.9868C58.2391 13.0007 58.2456 13.0286 58.2315 13.05C58.2175 13.0704 58.1895 13.0768 58.1679 13.0629C58.0106 12.9589 57.8543 12.8368 57.7098 12.7167C57.4005 12.4616 57.1019 12.1734 56.8572 11.8561C56.2665 11.092 56.0832 10.2571 56.9111 9.57015C57.6764 8.93569 58.6067 8.76421 59.5703 8.93783C59.898 8.99678 60.2236 9.0943 60.5318 9.22184C60.6569 9.27328 60.7916 9.3333 60.9102 9.40081C61.35 9.47798 61.7952 9.53049 62.2393 9.57229C62.7696 9.62266 63.3021 9.65696 63.8335 9.68268C65.0376 9.74055 66.2459 9.75663 67.4511 9.75341C69.3288 9.74912 71.2098 9.69875 73.0865 9.62159C73.7311 9.5948 74.3768 9.56693 75.0214 9.53264C75.0278 9.53156 75.0332 9.53049 75.0397 9.53156C75.2531 9.51978 75.4655 9.50799 75.6778 9.49513C75.7026 9.49405 75.7242 9.51227 75.7263 9.53799C75.7274 9.56264 75.7091 9.58408 75.6832 9.58622C75.4913 9.59801 75.2984 9.60873 75.1065 9.61945C75.279 9.94846 75.445 10.2818 75.6088 10.6151C75.9872 11.3856 76.3494 12.1659 76.6814 12.9568C76.9411 13.5762 77.1901 14.2139 77.382 14.8569C77.4812 15.1903 77.603 15.6393 77.6256 16.0294C77.6493 15.9608 77.6731 15.8912 77.6957 15.8226C77.7032 15.799 77.7291 15.7861 77.7528 15.7936C77.7765 15.8011 77.7895 15.8269 77.7819 15.8504C77.7302 16.008 77.6752 16.1655 77.6192 16.322C77.6192 16.3231 77.6192 16.3231 77.6181 16.3241C77.6148 16.3327 77.6084 16.3402 77.6008 16.3456C77.5922 16.3509 77.5825 16.3541 77.5717 16.3531C77.5674 16.3531 77.5631 16.352 77.5599 16.3499C77.5513 16.3466 77.5437 16.3402 77.5383 16.3327C77.5329 16.3241 77.5297 16.3145 77.5308 16.3038C77.5502 16.1044 77.5243 15.8837 77.4909 15.6865C77.4445 15.4164 77.3734 15.1463 77.2947 14.8837C77.1028 14.2439 76.856 13.6084 76.5973 12.9922C76.2664 12.2023 75.9042 11.4232 75.5269 10.6547C75.3577 10.3096 75.1852 9.96454 75.0073 9.6248C74.3692 9.6591 73.7289 9.68696 73.0908 9.71268C71.213 9.78985 69.331 9.84022 67.4521 9.84451C66.2459 9.84772 65.0354 9.83165 63.8303 9.77377C63.2967 9.74805 62.7632 9.71376 62.2317 9.66339C61.7822 9.62052 61.3317 9.568 60.8876 9.48977C60.8843 9.48977 60.8843 9.48977 60.8832 9.48977Z" fill="white"/>
<path d="M77.574 16.3767C77.5719 16.3767 77.5697 16.3767 77.5665 16.3767C77.56 16.3756 77.5535 16.3745 77.5481 16.3724C77.5352 16.367 77.5233 16.3584 77.5158 16.3456C77.5072 16.3327 77.5029 16.3166 77.505 16.3016C77.5212 16.1377 77.5083 15.9426 77.4651 15.6908C77.4242 15.455 77.3627 15.201 77.27 14.8913C77.1062 14.3425 76.8917 13.7606 76.5737 13.0029C76.2697 12.2795 75.9205 11.5153 75.5044 10.6665C75.3664 10.3857 75.1842 10.0181 74.9913 9.65055C74.4415 9.67948 73.8541 9.70628 73.0898 9.73843C71.0202 9.82309 69.1748 9.86596 67.4501 9.87025C66.0477 9.87346 64.8965 9.85096 63.8272 9.79952C63.2343 9.77058 62.7115 9.73521 62.2275 9.68913C61.7026 9.63983 61.2746 9.5841 60.8812 9.51551H60.878C60.8715 9.51444 60.864 9.51122 60.8586 9.50801C60.7325 9.43513 60.5859 9.3719 60.4867 9.33117C60.1795 9.20364 59.8636 9.1104 59.5489 9.0536C58.5647 8.87569 57.6776 9.08575 56.9834 9.66126C56.6342 9.95063 56.4595 10.2829 56.4649 10.6505C56.4692 10.9988 56.632 11.3814 56.9468 11.7897C57.1634 12.0705 57.4448 12.3534 57.7822 12.6321C57.9557 12.7746 58.098 12.8829 58.2306 12.9707C58.2457 12.9804 58.2565 12.9965 58.2597 13.0147C58.2629 13.0329 58.2597 13.0511 58.25 13.0661C58.2284 13.0972 58.1853 13.1058 58.154 13.0854C58.0172 12.9943 57.8706 12.8839 57.6938 12.7382C57.3478 12.4531 57.0599 12.1627 56.8368 11.8733C56.1372 10.9677 56.1566 10.166 56.8939 9.55516C57.6205 8.95286 58.5464 8.73315 59.5726 8.91749C59.8971 8.97643 60.2226 9.07182 60.5384 9.20364C60.6958 9.26901 60.8165 9.32581 60.9157 9.38262C61.3016 9.45013 61.7231 9.50479 62.2394 9.55302C62.7191 9.59803 63.2408 9.63447 63.8326 9.66233C64.8986 9.71378 66.0477 9.73521 67.4479 9.73307C69.1705 9.72878 71.0137 9.68591 73.0823 9.60125C73.8584 9.56909 74.4545 9.5423 75.0172 9.51229C75.0215 9.51015 75.0312 9.51015 75.0398 9.51122C75.2478 9.49943 75.4602 9.48764 75.6736 9.47478C75.6919 9.47371 75.7103 9.48014 75.7232 9.49193C75.7372 9.50372 75.7458 9.52087 75.7469 9.53909C75.7491 9.5766 75.72 9.60982 75.6822 9.61196C75.5022 9.62268 75.3222 9.6334 75.1411 9.64304C75.2845 9.9174 75.4354 10.2175 75.6262 10.6076C76.0433 11.4575 76.3937 12.2237 76.6987 12.9514C77.0189 13.7145 77.2355 14.3018 77.4005 14.8538C77.4856 15.1378 77.5977 15.545 77.6355 15.918C77.6462 15.8847 77.6581 15.8515 77.6689 15.8183C77.6743 15.8012 77.6872 15.7872 77.7034 15.7786C77.7195 15.7701 77.7389 15.769 77.7562 15.7744C77.7734 15.7797 77.7874 15.7926 77.7961 15.8087C77.8047 15.8247 77.8058 15.844 77.8004 15.8612C77.7476 16.0209 77.6915 16.1816 77.6376 16.3327C77.6311 16.3488 77.6225 16.3595 77.6096 16.3681C77.601 16.3724 77.588 16.3767 77.574 16.3767ZM75.0193 9.60017L75.0269 9.61411C75.223 9.98707 75.4074 10.3611 75.5475 10.6451C75.9636 11.4939 76.3139 12.2591 76.6179 12.9836C76.937 13.7434 77.1515 14.3275 77.3164 14.8773C77.4091 15.1892 77.4716 15.4453 77.5126 15.6833C77.5568 15.9405 77.5697 16.1377 77.5535 16.307C77.5535 16.3124 77.5546 16.3166 77.5568 16.3209C77.5589 16.3252 77.5632 16.3274 77.5675 16.3295L77.574 16.3306C77.5805 16.3306 77.5848 16.3295 77.588 16.3274C77.5923 16.3252 77.5945 16.3209 77.5966 16.3167C77.6505 16.1645 77.7066 16.0048 77.7594 15.844C77.7616 15.8387 77.7605 15.8322 77.7583 15.8269C77.7562 15.8215 77.7508 15.8172 77.7454 15.8162C77.74 15.814 77.7335 15.8151 77.7282 15.8172C77.7228 15.8194 77.7185 15.8247 77.7174 15.8301C77.6947 15.8998 77.671 15.9683 77.6473 16.038L77.6085 16.1505L77.602 16.0316C77.5794 15.635 77.4522 15.1753 77.3595 14.8645C77.1946 14.3136 76.979 13.7284 76.6599 12.9665C76.3549 12.2398 76.0045 11.4746 75.5885 10.6258C75.3901 10.2207 75.2349 9.91312 75.0872 9.63018L75.07 9.59803L75.1066 9.59589C75.2985 9.58517 75.4915 9.57445 75.6833 9.56266C75.6952 9.56159 75.7049 9.55195 75.7038 9.53909C75.7038 9.53373 75.7006 9.52837 75.6963 9.52408C75.6919 9.5198 75.6866 9.51765 75.6801 9.51872C75.4677 9.53158 75.2543 9.54337 75.042 9.55516C75.0344 9.55409 75.0312 9.55409 75.029 9.55516C74.462 9.58624 73.8659 9.61304 73.0887 9.64519C71.0191 9.72985 69.1759 9.77272 67.4523 9.77701C66.0509 9.78022 64.9008 9.75772 63.8337 9.70628C63.2408 9.67734 62.7191 9.64197 62.2383 9.59589C61.7188 9.54659 61.2962 9.49193 60.9071 9.42441L60.8995 9.4212C60.8014 9.36547 60.6818 9.30867 60.5244 9.24329C60.2107 9.11361 59.8895 9.01823 59.5683 8.96036C58.5561 8.77709 57.6431 8.99465 56.9284 9.58731C56.0262 10.3354 56.4035 11.2249 56.8778 11.8401C57.0988 12.1262 57.3844 12.4145 57.7272 12.6974C57.9029 12.8421 58.0484 12.9525 58.1832 13.0415C58.1929 13.0479 58.2069 13.0458 58.2133 13.035C58.2166 13.0297 58.2176 13.0243 58.2166 13.019C58.2155 13.0136 58.2123 13.0082 58.2069 13.005C58.0732 12.9161 57.9288 12.8078 57.7541 12.6632C57.4135 12.3824 57.13 12.0962 56.9112 11.8133C56.5889 11.3964 56.424 11.0041 56.4197 10.6462C56.4143 10.2646 56.5954 9.91955 56.9554 9.62054C57.6604 9.03645 58.5604 8.82318 59.5597 9.00323C59.8777 9.06003 60.1967 9.15541 60.5072 9.28402C60.6074 9.32581 60.7562 9.38905 60.8844 9.46407C60.8866 9.46514 60.8888 9.46621 60.8909 9.46621C61.2844 9.53587 61.7101 9.59053 62.234 9.63983C62.7169 9.68484 63.2397 9.72128 63.8315 9.75022C64.8997 9.80166 66.0509 9.82416 67.4523 9.82095C69.1769 9.81666 71.0213 9.77379 73.0898 9.68913C73.8605 9.65805 74.4512 9.63018 75.0053 9.60125L75.0193 9.60017Z" fill="#F0A38B"/>
<path fill-rule="evenodd" clip-rule="evenodd" d="M67.874 45.8722C68.0917 43.9345 68.3278 41.999 68.5854 40.0667C68.7008 39.1996 68.8183 38.3315 68.9487 37.4667C68.9519 37.4442 68.9703 37.4281 68.9929 37.4281L69.4586 37.4184C69.3712 36.8611 69.2915 36.3006 69.2193 35.7412C69.1826 35.4518 69.147 35.1614 69.119 34.872C69.0975 34.6566 69.0759 34.4305 69.0759 34.214C69.0759 33.9557 69.1276 33.676 69.1869 33.4263C69.2807 33.0276 69.4133 32.6332 69.5599 32.2506C69.7636 31.7233 70.0018 31.2078 70.2595 30.7052C70.5925 30.0568 70.9601 29.4245 71.3503 28.8082C71.3633 28.7868 71.3924 28.7804 71.4128 28.7943C71.4344 28.8072 71.4409 28.8361 71.4269 28.8565C71.0388 29.4706 70.6723 30.0997 70.3403 30.7459C70.0838 31.2464 69.8466 31.7587 69.644 32.2828C69.4984 32.6611 69.3669 33.0522 69.2742 33.4466C69.2171 33.6899 69.1654 33.9632 69.1654 34.214C69.1654 34.4273 69.1869 34.6502 69.2074 34.8624C69.2354 35.1518 69.271 35.4411 69.3076 35.7294C69.3799 36.2921 69.4596 36.8558 69.548 37.4163L75.0325 37.3006C75.0562 37.3006 75.0767 37.3177 75.0789 37.3413C75.1867 38.3369 75.288 39.3336 75.3882 40.3303C75.6459 42.8799 75.8895 45.4317 76.1212 47.9835C76.4166 51.2361 76.6915 54.492 76.9415 57.7479C76.9437 57.7726 76.9243 57.7951 76.8995 57.7961C76.8747 57.7983 76.8521 57.779 76.851 57.7543C76.6009 54.4985 76.326 51.2436 76.0307 47.991C75.7989 45.4392 75.5553 42.8874 75.2977 40.3378C75.1985 39.355 75.0983 38.3723 74.9926 37.3906L69.0295 37.517C68.9013 38.3691 68.7859 39.2243 68.6727 40.0774C68.4097 42.0569 68.1683 44.0395 67.9462 46.0244C67.9505 46.0372 67.9484 46.0501 67.9419 46.0608C67.915 46.2987 67.8891 46.5377 67.8632 46.7756C67.5194 49.9158 67.2219 53.0624 66.9793 56.2121C66.7023 59.811 66.4975 63.4184 66.3962 67.0269C66.3132 70.0063 66.3013 72.9921 66.4048 75.9715C66.4544 77.3861 66.5309 78.8019 66.6441 80.2133C66.7508 81.538 66.8888 82.8605 67.0742 84.1755C67.2434 85.379 67.4525 86.5794 67.7209 87.7647C67.9592 88.8182 68.2459 89.8674 68.6092 90.8866C69.1708 92.4642 69.9867 94.1682 71.208 95.3503C71.2264 95.3675 71.2264 95.3964 71.2091 95.4146C71.1919 95.4328 71.1628 95.4328 71.1444 95.4157C69.9124 94.2239 69.0899 92.5092 68.5229 90.9177C68.1586 89.8953 67.8708 88.8428 67.6315 87.785C67.3631 86.5965 67.1539 85.394 66.9836 84.1883C66.7982 82.8712 66.6592 81.5466 66.5535 80.2208C66.4404 78.8083 66.3638 77.3915 66.3142 75.9757C66.2097 72.9953 66.2226 70.0073 66.3056 67.0258C66.4059 63.4163 66.6117 59.8078 66.8888 56.2068C67.1313 53.0559 67.4277 49.9083 67.7727 46.7671C67.7996 46.5249 67.8266 46.2826 67.8535 46.0404C67.2035 44.6611 65.7365 43.4801 64.4893 42.6495C63.2928 41.8522 61.9928 41.1662 60.6853 40.5682C60.2444 40.3667 59.7982 40.1738 59.3487 39.9916C59.173 39.9209 58.9962 39.8502 58.8183 39.7848C58.7946 39.7762 58.7828 39.7505 58.7914 39.7269L60.5829 34.3833C60.4244 34.1947 60.2735 33.9879 60.1312 33.7885C59.7421 33.243 59.3853 32.6696 59.0587 32.0834C57.998 30.179 57.2381 28.0891 56.8608 25.9435C56.8565 25.9189 56.8727 25.8953 56.8975 25.891C56.9222 25.8867 56.946 25.9028 56.9503 25.9274C57.3265 28.0623 58.0832 30.1436 59.1385 32.0384C59.4629 32.6203 59.8176 33.1916 60.2056 33.7349C60.3511 33.9386 60.5064 34.1518 60.6691 34.3426C60.6745 34.349 60.6778 34.3555 60.6788 34.363C60.6799 34.3705 60.6799 34.378 60.6777 34.3865L58.8916 39.7141C59.0565 39.7752 59.2204 39.8405 59.3832 39.907C59.8337 40.0892 60.2811 40.2832 60.7241 40.4846C62.037 41.0848 63.3413 41.7728 64.5411 42.5723C65.7656 43.389 67.1884 44.5315 67.874 45.8722Z" fill="#F0A38B"/>
<path d="M71.1787 95.4504C71.1603 95.4504 71.1431 95.444 71.1302 95.4311C70.0813 94.4162 69.2222 92.9426 68.5032 90.9245C68.1669 89.9793 67.8748 88.9537 67.6118 87.7898C67.3606 86.6784 67.1483 85.5006 66.964 84.1909C66.7883 82.9434 66.6471 81.6456 66.5328 80.2213C66.4239 78.8698 66.3463 77.4809 66.2935 75.9751C66.1965 73.2111 66.1932 70.2832 66.2849 67.0241C66.3797 63.6128 66.5705 60.074 66.868 56.204C67.103 53.1475 67.4005 49.9709 67.7519 46.7643C67.7778 46.5242 67.8047 46.2842 67.8317 46.0441C67.3078 44.9381 66.1803 43.8031 64.4793 42.6682C63.382 41.9362 62.1381 41.2567 60.6786 40.589C60.2269 40.3822 59.7774 40.1882 59.343 40.0135C59.1835 39.9492 58.997 39.8742 58.8137 39.8067C58.7782 39.7938 58.7598 39.7542 58.7728 39.7188L60.56 34.387C60.4037 34.2005 60.2539 33.9947 60.1148 33.8008C59.7429 33.2799 59.3818 32.7055 59.0412 32.0935C57.9557 30.1451 57.2163 28.0767 56.8411 25.9461C56.8379 25.9279 56.8422 25.9097 56.853 25.8947C56.8638 25.8797 56.8799 25.87 56.8972 25.8668C56.9349 25.8604 56.9705 25.885 56.977 25.9225C57.3488 28.037 58.084 30.0915 59.1619 32.026C59.5004 32.6336 59.8583 33.2027 60.228 33.7204C60.3724 33.9229 60.5287 34.1362 60.6904 34.327C60.698 34.3355 60.7034 34.3463 60.7055 34.358C60.7077 34.3698 60.7077 34.3827 60.7034 34.3934L58.9248 39.6995C59.0735 39.7552 59.2212 39.8142 59.3958 39.8838C59.8313 40.0596 60.283 40.2547 60.7368 40.4626C62.2028 41.1324 63.4531 41.8161 64.5569 42.5524C66.1814 43.6349 67.2927 44.7237 67.8608 45.7912C68.0807 43.8363 68.3178 41.9094 68.5636 40.0628C68.6682 39.2762 68.791 38.3631 68.9269 37.4628C68.9323 37.4296 68.9603 37.4049 68.9937 37.4039L69.4324 37.3942C69.3473 36.8498 69.2686 36.2946 69.1974 35.7427C69.1522 35.3944 69.122 35.1265 69.0972 34.8725C69.0778 34.6785 69.0541 34.4363 69.0541 34.2123C69.0541 33.9937 69.0896 33.7418 69.1651 33.4192C69.2492 33.0602 69.3721 32.6754 69.5391 32.2403C69.7289 31.7484 69.9585 31.2415 70.2398 30.6928C70.5556 30.0755 70.9135 29.4549 71.3317 28.7937C71.3414 28.7787 71.3565 28.768 71.3748 28.7637C71.3932 28.7594 71.4115 28.7626 71.4266 28.7722C71.4428 28.7819 71.4535 28.7969 71.4568 28.8151C71.4611 28.8333 71.4578 28.8515 71.4481 28.8665C71.0321 29.5235 70.6774 30.1408 70.3627 30.7549C70.0835 31.3004 69.856 31.802 69.6674 32.2896C69.5025 32.7183 69.3818 33.0977 69.2988 33.4503C69.2255 33.7632 69.191 34.0055 69.191 34.2123C69.191 34.4299 69.2136 34.6581 69.233 34.8585C69.2578 35.1093 69.2891 35.3762 69.3332 35.7245C69.4044 36.2807 69.4842 36.8412 69.5704 37.391L75.0344 37.2753C75.07 37.2742 75.1012 37.301 75.1045 37.3364C75.2166 38.3759 75.3233 39.4241 75.4138 40.3254C75.6639 42.8053 75.9108 45.3807 76.1468 47.9796C76.4519 51.3437 76.7278 54.6286 76.9671 57.7451C76.9682 57.7634 76.9628 57.7816 76.951 57.7955C76.9391 57.8094 76.9219 57.818 76.9035 57.8191C76.8852 57.8202 76.8669 57.8148 76.8529 57.803C76.8389 57.7912 76.8302 57.7741 76.8292 57.7559C76.5899 54.6382 76.3139 51.3534 76.0089 47.9925C75.7728 45.3914 75.5259 42.8171 75.2759 40.3404C75.1875 39.4594 75.0829 38.4349 74.973 37.4157L69.0519 37.5411C68.9204 38.4199 68.7997 39.3126 68.6983 40.0821C68.444 41.9941 68.1993 43.9928 67.9718 46.0237C67.9751 46.0387 67.974 46.0548 67.9664 46.0687C67.9395 46.3056 67.9136 46.5424 67.8877 46.7793C67.5363 49.9859 67.2388 53.1603 67.0038 56.2147C66.7063 60.0826 66.5166 63.6192 66.4218 67.0284C66.3312 70.2843 66.3345 73.2101 66.4304 75.9708C66.4832 77.4744 66.5608 78.8623 66.6697 80.2116C66.784 81.6327 66.9241 82.9284 67.0998 84.1727C67.2841 85.4781 67.4954 86.6516 67.7455 87.7598C68.0074 88.9183 68.2984 89.9386 68.6326 90.8785C69.3343 92.8483 70.2064 94.3466 71.2261 95.3325C71.239 95.3454 71.2466 95.3625 71.2466 95.3808C71.2466 95.399 71.2401 95.4161 71.2272 95.4301C71.2153 95.4429 71.1981 95.4504 71.1787 95.4504C71.1797 95.4504 71.1797 95.4504 71.1787 95.4504ZM56.9069 25.914C56.9058 25.914 56.9047 25.914 56.9026 25.914C56.8972 25.915 56.8918 25.9182 56.8886 25.9225C56.8853 25.9279 56.8843 25.9332 56.8853 25.9386C57.2594 28.0638 57.9978 30.1269 59.0811 32.071C59.4206 32.6808 59.7817 33.2542 60.1525 33.774C60.2927 33.9712 60.4447 34.1791 60.6031 34.3677L60.6117 34.3773L60.6074 34.3902L58.8159 39.7338C58.8116 39.7456 58.8181 39.7574 58.8288 39.7617C59.0132 39.8292 59.1996 39.9042 59.3592 39.9685C59.7936 40.1443 60.2442 40.3382 60.6969 40.5451C62.1596 41.2128 63.4046 41.8944 64.5052 42.6274C66.217 43.7688 67.3509 44.9124 67.877 46.028L67.8802 46.0344L67.8791 46.0409C67.8522 46.2831 67.8252 46.5253 67.7983 46.7675C67.4469 49.9741 67.1494 53.1496 66.9144 56.2061C66.6169 60.0751 66.4261 63.6139 66.3312 67.0241C66.2407 70.2821 66.2439 73.209 66.3398 75.9719C66.3927 77.4777 66.4713 78.8655 66.5791 80.217C66.6934 81.6392 66.8335 82.937 67.0092 84.1834C67.1936 85.492 67.4048 86.6677 67.6571 87.778C67.9201 88.9397 68.2111 89.9643 68.5474 90.9074C69.2632 92.9179 70.1191 94.3862 71.1625 95.3958C71.1668 95.4001 71.1711 95.4043 71.1787 95.4022C71.1841 95.4022 71.1905 95.4001 71.1938 95.3958C71.1981 95.3915 71.2002 95.3861 71.2002 95.3797C71.2002 95.3743 71.1981 95.3679 71.1938 95.3647C70.1546 94.3594 69.3031 92.8965 68.5895 90.8924C68.2542 89.9503 67.9632 88.9279 67.7002 87.7683C67.449 86.6591 67.2378 85.4845 67.0534 84.177C66.8777 82.9317 66.7376 81.6349 66.6233 80.2127C66.5155 78.8623 66.4369 77.4744 66.384 75.9697C66.287 73.2079 66.2838 70.2811 66.3754 67.0241C66.4703 63.615 66.6611 60.0772 66.9586 56.2083C67.1936 53.1528 67.4911 49.9784 67.8425 46.7707C67.8683 46.5328 67.8953 46.2938 67.9212 46.0559L67.9244 46.0462C67.9276 46.0409 67.9287 46.0344 67.9266 46.0291L67.9255 46.0248L67.9266 46.0194C68.154 43.9864 68.3987 41.9855 68.6531 40.0725C68.7566 39.2976 68.8773 38.3963 69.0099 37.511L69.0131 37.4918H69.0325L75.0172 37.3653L75.0193 37.3867C75.1303 38.4145 75.2349 39.4466 75.3244 40.334C75.5745 42.8107 75.8213 45.3861 76.0574 47.9871C76.3624 51.348 76.6384 54.6339 76.8777 57.7516C76.8777 57.7569 76.8809 57.7623 76.8852 57.7666C76.8895 57.7709 76.8949 57.7719 76.9014 57.7719C76.9068 57.7719 76.9122 57.7687 76.9165 57.7644C76.9208 57.7601 76.9219 57.7548 76.9219 57.7484C76.6826 54.6329 76.4066 51.347 76.1016 47.9839C75.8655 45.385 75.6186 42.8107 75.3686 40.3307C75.278 39.4294 75.1713 38.3813 75.0592 37.3417C75.0581 37.3299 75.0484 37.3235 75.0366 37.3224L69.5305 37.4392L69.5273 37.4189C69.44 36.8627 69.3591 36.2946 69.2869 35.7309C69.2416 35.3826 69.2114 35.1147 69.1867 34.8639C69.1672 34.6613 69.1446 34.432 69.1446 34.2123C69.1446 34.0012 69.1791 33.7557 69.2535 33.4396C69.3365 33.0848 69.4583 32.7033 69.6243 32.2725C69.8129 31.7838 70.0414 31.2801 70.3217 30.7335C70.6365 30.1194 70.9922 29.4999 71.4093 28.8419C71.4126 28.8365 71.4137 28.8312 71.4126 28.8258C71.4115 28.8205 71.4083 28.8151 71.4029 28.8119C71.3975 28.8087 71.3921 28.8076 71.3867 28.8087C71.3813 28.8097 71.3759 28.813 71.3727 28.8183C70.9555 29.4785 70.5987 30.098 70.2829 30.7131C70.0016 31.2608 69.773 31.7656 69.5844 32.2564C69.4173 32.6883 69.2955 33.072 69.2114 33.4289C69.136 33.7482 69.1015 33.9969 69.1015 34.2112C69.1015 34.4331 69.1252 34.6731 69.1446 34.8671C69.1694 35.12 69.2007 35.388 69.2449 35.7363C69.3171 36.2968 69.3968 36.8605 69.4831 37.4135L69.4874 37.4403L68.9948 37.451C68.984 37.451 68.9754 37.4585 68.9732 37.4693C68.8374 38.3695 68.7145 39.2826 68.61 40.0692C68.361 41.9394 68.1217 43.8921 67.8985 45.8737L67.8899 45.9519L67.8543 45.8823C67.3003 44.8009 66.1825 43.6938 64.53 42.5931C63.4284 41.8579 62.1801 41.1763 60.7163 40.5076C60.2625 40.3007 59.8119 40.1057 59.3764 39.9299C59.1943 39.856 59.0412 39.7949 58.886 39.7381L58.8644 39.7306L58.872 39.7091L60.657 34.3795C60.6581 34.3763 60.6581 34.372 60.6581 34.3688C60.657 34.3655 60.6559 34.3623 60.6538 34.3591C60.491 34.1673 60.3336 33.9529 60.1892 33.7493C59.8195 33.2306 59.4594 32.6594 59.121 32.0506C58.0409 30.1108 57.3036 28.052 56.9306 25.9322C56.9274 25.9215 56.9177 25.914 56.9069 25.914Z" fill="#A7D1F3"/>
<path fill-rule="evenodd" clip-rule="evenodd" d="M73.3751 15.7572C73.4387 15.9244 73.5152 16.0927 73.5907 16.2545C73.7545 16.6039 73.941 16.9522 74.1566 17.2737C74.2849 17.4656 74.4261 17.6531 74.5867 17.8192C74.6039 17.8375 74.6028 17.8664 74.5856 17.8835C74.5673 17.9007 74.5382 17.9007 74.5209 17.8825C74.3571 17.7121 74.2116 17.5202 74.0811 17.3241C73.8634 16.9983 73.6747 16.6468 73.5087 16.2931C73.4322 16.1291 73.3557 15.9587 73.2899 15.7894C73.2813 15.7658 73.2932 15.7401 73.3158 15.7305C73.3395 15.7219 73.3654 15.7337 73.3751 15.7572Z" fill="#3F4553"/>
<path d="M74.5535 17.9832C74.5525 17.9832 74.5514 17.9832 74.5503 17.9832C74.5147 17.9822 74.4813 17.9682 74.4565 17.9425C74.3056 17.785 74.1579 17.5996 74.007 17.3723C73.8044 17.069 73.6147 16.7282 73.4282 16.3296C73.3312 16.1238 73.2632 15.9662 73.2072 15.8194C73.1943 15.7862 73.1953 15.7498 73.2104 15.7176C73.2255 15.6855 73.2514 15.6608 73.2848 15.6479C73.3182 15.6351 73.3549 15.6362 73.3872 15.6512C73.4195 15.6662 73.4443 15.6919 73.4573 15.7251C73.5112 15.8655 73.5769 16.0177 73.6707 16.217C73.8518 16.6039 74.035 16.9329 74.2301 17.2244C74.3735 17.4377 74.5104 17.6124 74.6505 17.7582C74.7012 17.8118 74.7001 17.8964 74.6462 17.9468C74.6214 17.9704 74.5891 17.9832 74.5535 17.9832Z" fill="#3F4553"/>
<path fill-rule="evenodd" clip-rule="evenodd" d="M67.6839 13.8753C67.8456 13.9086 68.0084 13.9386 68.1712 13.9675C68.5237 14.0307 68.8794 14.0875 69.234 14.1325C69.4658 14.1615 69.6997 14.1861 69.9336 14.2001C70.1168 14.2108 70.3152 14.2161 70.4973 14.1947C70.5221 14.1915 70.5448 14.2097 70.548 14.2344C70.5512 14.259 70.5329 14.2815 70.5081 14.2847C70.3206 14.3072 70.1168 14.3008 69.9282 14.2901C69.6921 14.2772 69.4561 14.2515 69.2221 14.2226C68.8654 14.1776 68.5086 14.1208 68.1539 14.0575C67.9912 14.0286 67.8273 13.9986 67.6645 13.9654C67.6397 13.96 67.6236 13.9364 67.629 13.9118C67.6354 13.886 67.6602 13.87 67.6839 13.8753Z" fill="#3F4553"/>
<path d="M70.2202 14.3876C70.1178 14.3876 70.0165 14.3833 69.9249 14.3779C69.7136 14.3661 69.4873 14.3436 69.2124 14.3093C68.8836 14.2675 68.5333 14.214 68.1398 14.1432C68.004 14.1186 67.8262 14.0864 67.6483 14.05C67.5761 14.035 67.5297 13.9642 67.5438 13.8924C67.5513 13.8571 67.5718 13.8271 67.602 13.8078C67.6321 13.7885 67.6677 13.7821 67.7022 13.7885C67.8704 13.8228 68.0418 13.8539 68.1873 13.8807C68.5753 13.9503 68.9213 14.0039 69.2458 14.0446C69.5153 14.0789 69.7352 14.1004 69.94 14.1111C70.1103 14.1207 70.3086 14.1282 70.4887 14.1068C70.5242 14.1025 70.5587 14.1121 70.5878 14.1347C70.6158 14.1572 70.6342 14.1882 70.6385 14.2236C70.6471 14.2965 70.5943 14.3629 70.521 14.3715C70.4207 14.3833 70.3194 14.3876 70.2202 14.3876Z" fill="#3F4553"/>
<path fill-rule="evenodd" clip-rule="evenodd" d="M72.735 20.342C72.7382 20.4707 72.7522 20.6057 72.7684 20.7322C72.8029 21.0044 72.8611 21.2819 72.9549 21.5402C73.0368 21.7642 73.1554 21.9989 73.3311 22.164C73.3494 22.1811 73.3505 22.2101 73.3332 22.2283C73.316 22.2465 73.2869 22.2476 73.2686 22.2304C73.081 22.0547 72.956 21.8103 72.8686 21.5713C72.7727 21.3077 72.7134 21.0226 72.6778 20.7439C72.6606 20.6143 72.6466 20.476 72.6434 20.3442C72.6423 20.3195 72.6628 20.2981 72.6875 20.2981C72.7134 20.297 72.7339 20.3174 72.735 20.342Z" fill="#3F4553"/>
<path d="M73.2998 22.3301C73.2664 22.3301 73.2341 22.3183 73.2082 22.2936C73.0368 22.1329 72.8945 21.8992 72.7857 21.6013C72.6962 21.3559 72.6304 21.0708 72.5895 20.7557C72.569 20.5939 72.5571 20.4642 72.555 20.3474C72.5539 20.312 72.5668 20.2777 72.5916 20.252C72.6164 20.2263 72.6499 20.2113 72.6854 20.2113C72.721 20.2091 72.7555 20.2231 72.7813 20.2477C72.8072 20.2724 72.8223 20.3056 72.8234 20.341C72.8255 20.4481 72.8363 20.5692 72.8557 20.7225C72.8935 21.0194 72.9549 21.2841 73.0379 21.5113C73.1317 21.7706 73.2513 21.9689 73.3914 22.1007C73.4453 22.1511 73.4475 22.2358 73.3968 22.2893C73.371 22.3161 73.3354 22.3301 73.2998 22.3301Z" fill="#3F4553"/>
<path fill-rule="evenodd" clip-rule="evenodd" d="M65.3241 17.2394C65.4125 17.3059 65.5128 17.3691 65.6076 17.427C65.8512 17.5749 66.1089 17.7056 66.3719 17.816C67.1631 18.1504 68.0319 18.3176 68.8921 18.2211C68.9169 18.2179 68.9395 18.2361 68.9428 18.2608C68.946 18.2854 68.9277 18.3079 68.9029 18.3111C68.0276 18.4097 67.1437 18.2404 66.3374 17.8996C66.0701 17.7871 65.8092 17.6542 65.5613 17.5041C65.4642 17.4452 65.3608 17.3798 65.2702 17.3112C65.2497 17.2962 65.2465 17.2673 65.2616 17.248C65.2756 17.2276 65.3036 17.2244 65.3241 17.2394Z" fill="#3F4553"/>
<path d="M68.4061 18.4258C67.7162 18.4258 66.9983 18.2747 66.302 17.98C66.026 17.8632 65.762 17.7282 65.5151 17.5781C65.4224 17.5213 65.3135 17.4538 65.2165 17.3809C65.1572 17.3359 65.1465 17.2523 65.1907 17.1944C65.2122 17.1666 65.2435 17.1484 65.279 17.143C65.3146 17.1376 65.3502 17.1473 65.3782 17.1687C65.4655 17.2352 65.5669 17.2984 65.6542 17.3509C65.8892 17.4934 66.1425 17.6231 66.4066 17.7346C67.2333 18.084 68.0892 18.2222 68.8815 18.1333C68.917 18.129 68.9515 18.1397 68.9796 18.1611C69.0076 18.1836 69.0248 18.2147 69.0291 18.2501C69.0378 18.323 68.985 18.3894 68.9117 18.398C68.7457 18.4173 68.5764 18.4258 68.4061 18.4258Z" fill="#3F4553"/>
<path fill-rule="evenodd" clip-rule="evenodd" d="M64.1591 27.5569C64.3478 27.6448 64.5677 27.8527 64.7003 28.0059C65.1174 28.4871 65.3535 29.1141 65.4699 29.7314C65.4742 29.7561 65.458 29.7796 65.4332 29.7839C65.4084 29.7882 65.3847 29.7721 65.3804 29.7475C65.2662 29.1462 65.0376 28.5332 64.6313 28.0649C64.5256 27.9427 64.4049 27.828 64.2734 27.7337C64.2281 27.7016 64.1721 27.663 64.1214 27.6394C64.0988 27.6287 64.0891 27.6019 64.0999 27.5794C64.1085 27.5558 64.1365 27.5462 64.1591 27.5569Z" fill="#3F4553"/>
<path d="M65.4256 29.8717C65.362 29.8717 65.306 29.8267 65.2941 29.7635C65.1669 29.0937 64.9147 28.5257 64.5644 28.1216C64.4544 27.9951 64.3391 27.888 64.2216 27.8033C64.185 27.7765 64.13 27.739 64.0836 27.7176C64.0513 27.7026 64.0265 27.6758 64.0146 27.6425C64.0028 27.6093 64.0039 27.5729 64.019 27.5407C64.034 27.5086 64.061 27.4839 64.0944 27.4721C64.1278 27.4604 64.1645 27.4614 64.1968 27.4764C64.3973 27.5697 64.6226 27.7808 64.767 27.9469C65.1529 28.3928 65.4192 28.9865 65.5571 29.7131C65.5636 29.7485 65.5561 29.7839 65.5367 29.8128C65.5162 29.8417 65.486 29.8621 65.4504 29.8685C65.4418 29.8717 65.4332 29.8717 65.4256 29.8717ZM64.1569 27.559C64.1569 27.559 64.158 27.559 64.1569 27.559C64.158 27.559 64.1569 27.559 64.1569 27.559Z" fill="#3F4553"/>
<path fill-rule="evenodd" clip-rule="evenodd" d="M70.7398 22.1457C70.5242 22.8359 70.2978 23.5261 70.0607 24.2099C69.9022 24.6675 69.7373 25.1305 69.5519 25.5774C69.4883 25.7306 69.4204 25.8893 69.3406 26.0339C69.3083 26.0929 69.235 26.2268 69.1584 26.2354C68.9407 26.259 68.7176 26.1722 68.5354 26.0607C68.184 25.8464 67.8768 25.4895 67.6386 25.1616C67.6235 25.1412 67.6289 25.1133 67.6483 25.0983C67.6688 25.0833 67.6968 25.0887 67.7119 25.108C67.9426 25.4252 68.2433 25.7757 68.5828 25.9825C68.7478 26.0822 68.9515 26.1658 69.1477 26.1443C69.18 26.1336 69.2544 26.0007 69.2706 25.9707C69.3482 25.8271 69.4139 25.6717 69.4764 25.5206C69.6586 25.0812 69.8192 24.6268 69.9755 24.1777C70.2127 23.495 70.4379 22.8059 70.6535 22.1168C70.6611 22.0932 70.6869 22.0793 70.7107 22.0868C70.7344 22.0964 70.7473 22.1222 70.7398 22.1457Z" fill="#3F4553"/>
<path d="M69.0862 26.3287C68.9008 26.3287 68.696 26.2633 68.489 26.1379C68.1861 25.9536 67.8843 25.6513 67.5663 25.2151C67.5458 25.1862 67.5372 25.1508 67.5426 25.1165C67.548 25.0812 67.5674 25.0501 67.5965 25.0297C67.6568 24.9869 67.7398 24.9997 67.784 25.0597C68.0762 25.4606 68.3607 25.7467 68.6291 25.9107C68.7531 25.9857 68.9353 26.0714 69.111 26.0618C69.1304 26.0371 69.1649 25.9836 69.1918 25.9321C69.2694 25.7885 69.3363 25.6288 69.3945 25.4906C69.582 25.0362 69.7491 24.5614 69.8914 24.1531C70.1221 23.4875 70.3506 22.7952 70.5683 22.0943C70.5791 22.06 70.6017 22.0321 70.6341 22.016C70.6653 21.9989 70.702 21.9957 70.7365 22.0064C70.7699 22.0171 70.7979 22.0396 70.8152 22.0718C70.8324 22.1029 70.8356 22.1393 70.8249 22.1736C70.606 22.8766 70.3764 23.5722 70.1447 24.2399C69.9992 24.6611 69.8267 25.1487 69.6338 25.6127C69.5702 25.7649 69.5012 25.9268 69.4182 26.0779C69.3503 26.2 69.2748 26.3126 69.1692 26.3244C69.1411 26.3265 69.1142 26.3287 69.0862 26.3287Z" fill="#3F4553"/>
</svg>
