<svg width="156" height="122" viewBox="0 0 156 122" fill="none" xmlns="http://www.w3.org/2000/svg">
<path d="M73.6816 62.1561C73.6816 62.1561 72.3301 77.0966 77.9284 76.8715C83.9338 76.6269 82.3185 62.1561 82.3185 62.1561C81.5336 59.8237 81.221 58.4405 81.5727 55.9939H74.2809C74.6326 58.4405 74.4632 59.8237 73.6816 62.1561Z" fill="#FDBCA0"/>
<path d="M74.4275 58.884C75.2547 59.1319 76.0884 59.3603 76.9514 59.432C77.7689 59.5005 78.6091 59.4483 79.4233 59.3603C80.1007 59.2852 80.8237 59.1645 81.5011 58.9394C81.3936 58.0521 81.4099 57.1387 81.576 55.9905H74.2842C74.4438 57.1159 74.4926 58.0163 74.4275 58.884Z" fill="#F0A38B"/>
<path d="M77.9283 58.0327C80.0094 58.0327 82.0122 57.2107 83.4778 55.7297C85.2234 53.9681 86.5912 52.0043 86.9918 49.698C87.5063 46.736 86.5065 43.7772 84.3245 41.3959H71.5288C69.3468 43.774 68.347 46.736 68.8616 49.698C69.2621 52.0043 70.6332 53.9681 72.3756 55.7297C73.8444 57.2074 75.8473 58.0327 77.9283 58.0327Z" fill="#FDBCA0"/>
<path d="M78.5635 63.8982C78.2997 64.1885 78.0522 64.5049 77.8177 64.8213C77.5344 64.6256 77.3097 64.3875 77.0622 64.1428C77.0394 64.12 76.9938 64.1428 77.0035 64.1754C77.1436 64.5604 77.4367 64.8735 77.7363 65.141C77.8014 65.1965 77.8926 65.203 77.9578 65.141C78.2737 64.8311 78.5831 64.469 78.8273 64.0971C78.9315 63.9438 78.6905 63.7579 78.5635 63.8982Z" fill="#DF8370"/>
<path d="M85.6047 63.3272C83.6604 63.4936 81.7422 63.81 79.85 64.2928C79.736 64.3222 79.7849 64.4951 79.8989 64.469C81.7813 64.0514 83.6832 63.7676 85.6047 63.6371C85.8066 63.6241 85.8033 63.3109 85.6047 63.3272Z" fill="#DF8370"/>
<path d="M70.2491 63.3272C72.1934 63.4936 74.1116 63.81 76.0037 64.2928C76.1177 64.3222 76.0689 64.4951 75.9549 64.469C74.0725 64.0514 72.1706 63.7676 70.2491 63.6371C70.0504 63.6241 70.0504 63.3109 70.2491 63.3272Z" fill="#DF8370"/>
<path d="M70.5843 36.4702C67.8649 38.0295 65.95 40.4858 65.9174 43.7871C65.8848 47.5092 70.4117 53.4365 70.3498 53.2897C68.8452 49.6687 68.4511 44.6842 72.2062 42.1887C72.5807 41.9407 73.0497 41.7972 73.3851 41.5069C73.3753 39.5398 72.2908 37.6347 70.5843 36.4702Z" fill="#3F4553"/>
<path d="M85.0047 36.4702C87.7241 38.0295 89.639 40.4858 89.6716 43.7871C89.7042 47.5092 87.4798 50.8203 85.2653 53.6322C85.8287 52.4056 87.1346 44.6809 83.3796 42.1887C83.0051 41.9407 82.5361 41.7972 82.2007 41.5069C82.2137 39.5398 83.3015 37.6347 85.0047 36.4702Z" fill="#424495"/>
<path d="M124.05 34.4999C121.972 33.4658 119.546 33.244 117.286 33.7039C116.192 33.9257 115.156 34.3139 114.169 34.8391C113.515 35.1849 112.85 35.6808 112.088 35.7395C111.163 35.808 110.352 35.2045 109.665 34.6695C107.529 33.0058 105.357 31.5476 102.608 31.1464C101.279 30.9507 99.794 31.0942 98.7649 31.9097C97.7097 30.5136 96.1367 29.5186 94.4041 29.1532C92.1114 28.6705 89.9327 29.3588 88.1317 30.7419C87.1156 30.2428 85.3374 29.5251 85.1127 29.4631C78.3387 27.5972 69.0896 32.3306 70.2881 40.313C71.3172 47.1732 79.9899 50.344 85.9985 48.9348C87.2947 51.3912 90.4016 51.962 92.7953 50.6833C92.9777 50.8236 93.1601 50.9638 93.3457 51.1008C97.1658 53.9063 101.611 55.7298 106.412 54.9012C108.235 54.5848 109.942 53.9258 111.512 52.9798C113.003 54.102 114.967 54.4576 116.775 53.5898C118.12 52.9472 119.022 51.7598 119.344 50.4158C119.367 50.4158 119.39 50.4158 119.413 50.4158C123.405 50.3669 127.639 48.3802 128.658 44.1884C129.587 40.3782 127.522 36.2255 124.05 34.4999Z" fill="#4E5567"/>
<path d="M105.897 33.257C107.21 34.3303 107.988 35.8015 107.17 37.4228C106.506 38.7439 105.311 39.7063 104.441 40.8774C103.422 42.2475 103.246 44.0058 104.917 45.0072C106.561 45.9924 108.623 44.7658 109.994 43.8361C111.688 42.6846 113.505 39.354 114.964 37.9251C121.445 31.5803 127.88 38.3623 127.906 38.3851C127.066 36.7345 125.724 35.335 124.05 34.4999C121.972 33.4658 119.546 33.244 117.286 33.7039C116.192 33.9258 115.156 34.314 114.169 34.8392C113.515 35.185 112.85 35.6808 112.088 35.7395C111.163 35.808 110.352 35.2045 109.665 34.6695C107.529 33.0059 105.356 31.5477 102.608 31.1464C101.308 30.9572 99.8591 31.0942 98.8333 31.8641C101.071 30.9931 104.103 31.7858 105.897 33.257Z" fill="#3F4553"/>
<path d="M123.158 49.3394C121.572 49.5253 120.087 49.4373 118.628 48.7881C117.999 50.4224 116.713 52.0731 114.895 52.3308C113.674 52.5037 112.231 52.122 111.981 50.8269C103.396 57.8275 93.7722 50.0179 92.844 48.5532C90.167 50.3017 86.793 48.1683 85.7932 45.4379C83.7545 46.2306 81.4031 45.9859 79.423 45.1345C75.7332 43.5524 73.6879 39.1909 74.9776 35.3416C76.0523 32.1415 78.915 29.9526 82.087 29.062C75.9025 29.0261 69.262 33.4757 70.2879 40.3131C71.317 47.1733 79.9864 50.3441 85.9984 48.9349C87.2945 51.3913 90.4015 51.9622 92.7952 50.6834C92.9775 50.8237 93.1599 50.9639 93.3455 51.101C97.1657 53.9064 101.611 55.7299 106.412 54.9013C108.235 54.5849 109.942 53.926 111.512 52.9799C113.003 54.1021 114.967 54.4577 116.774 53.59C118.119 52.9473 119.022 51.7599 119.344 50.4159C119.367 50.4159 119.39 50.4159 119.412 50.4159C121.318 50.3931 123.275 49.9266 124.916 48.9936C124.34 49.1665 123.741 49.2709 123.158 49.3394Z" fill="#3F4553"/>
<path d="M75.6419 51.4467C74.5021 51.6359 72.649 51.6978 71.5971 50.5691C71.3886 50.3441 71.1053 50.5985 71.3658 50.8236C71.4082 50.8595 71.4505 50.8921 71.4929 50.9247C71.3691 50.9606 71.2388 50.9769 71.1021 50.9671C71.0988 50.9671 71.0988 50.9704 71.1021 50.9736C71.2681 51.0291 71.4375 51.0454 71.6036 51.0128C71.6068 51.0161 71.6101 51.0193 71.6134 51.0193C71.4701 51.1139 71.2975 51.1531 71.1281 51.2085C71.1248 51.2085 71.1248 51.2118 71.1281 51.215C71.3365 51.2346 71.5547 51.2085 71.7273 51.0976C71.7469 51.1107 71.7664 51.1172 71.786 51.1302C71.6557 51.2314 71.5091 51.3064 71.3431 51.3455C71.3268 51.3488 71.33 51.3749 71.3463 51.3749C71.558 51.3847 71.7599 51.3325 71.9293 51.215C71.9651 51.2346 72.0042 51.2509 72.04 51.2705C71.9195 51.3586 71.7957 51.4369 71.6557 51.5021C71.6427 51.5086 71.6492 51.5315 71.6622 51.5315C71.8478 51.538 72.0107 51.4434 72.1572 51.3325C72.2028 51.3553 72.2484 51.3716 72.2973 51.3912C72.2354 51.4532 72.1637 51.5119 72.0954 51.5706C72.0856 51.5804 72.0954 51.5935 72.1084 51.5935C72.2256 51.5641 72.3331 51.5152 72.4243 51.4467C73.4697 51.8773 74.6942 51.8903 75.7429 51.5119C75.8536 51.4662 75.7689 51.4271 75.6419 51.4467Z" fill="#3F4553"/>
<path d="M80.3217 51.4467C81.4616 51.6359 83.3146 51.6978 84.3666 50.5691C84.575 50.3441 84.8583 50.5985 84.5978 50.8236C84.5555 50.8595 84.5131 50.8921 84.4708 50.9247C84.5978 50.9606 84.7248 50.9769 84.8616 50.9671C84.8648 50.9671 84.8648 50.9704 84.8616 50.9736C84.6955 51.0291 84.5261 51.0454 84.3601 51.0128C84.3568 51.0161 84.3535 51.0193 84.3503 51.0193C84.4936 51.1139 84.6662 51.1531 84.8355 51.2085C84.8388 51.2085 84.8388 51.2118 84.8355 51.215C84.6271 51.2346 84.4089 51.2085 84.2363 51.0976C84.2168 51.1107 84.1972 51.1172 84.1777 51.1302C84.3079 51.2314 84.4545 51.3064 84.6206 51.3455C84.6369 51.3488 84.6336 51.3749 84.6173 51.3749C84.4056 51.3847 84.2037 51.3325 84.0344 51.215C83.9986 51.2346 83.9595 51.2509 83.9236 51.2705C84.0441 51.3586 84.1679 51.4369 84.3079 51.5021C84.321 51.5086 84.3145 51.5315 84.3014 51.5315C84.1158 51.538 83.953 51.4434 83.8064 51.3325C83.7608 51.3553 83.7152 51.3716 83.6696 51.3912C83.7315 51.4532 83.8032 51.5119 83.8715 51.5706C83.8813 51.5804 83.8715 51.5935 83.8585 51.5935C83.7413 51.5641 83.6338 51.5152 83.5426 51.4467C82.4972 51.8773 81.2727 51.8903 80.2207 51.5119C80.1133 51.4662 80.1947 51.4271 80.3217 51.4467Z" fill="#3F4553"/>
<path d="M78.7001 53.8248C78.166 54.1021 77.6352 54.213 77.0848 53.8803C77.0457 53.8574 77.0001 53.9129 77.0359 53.9455C77.5082 54.3663 78.3484 54.474 78.8206 53.9814C78.8988 53.8966 78.8011 53.7726 78.7001 53.8248Z" fill="#3F4553"/>
<path d="M79.9212 55.7493C79.2536 55.9483 78.5957 56.0233 77.9444 55.9939C77.293 56.0233 76.6352 55.9483 75.9675 55.7493C75.9512 55.7428 75.9382 55.7721 75.9545 55.7786C76.5961 56.0527 77.2702 56.1995 77.9444 56.2158C78.6185 56.1995 79.2927 56.0527 79.9342 55.7786C79.9505 55.7721 79.9375 55.746 79.9212 55.7493Z" fill="#3F4553"/>
<path d="M74.883 53.0451C74.8277 53.019 74.7691 52.9962 74.7104 52.9799C73.9647 52.7874 73.0821 52.4221 72.3037 52.5558C71.7533 52.6504 71.6263 53.3191 71.939 53.7139C72.2744 54.1379 72.9323 54.2586 73.4403 54.2978C73.9516 54.3369 74.7528 54.3924 75.1338 53.9911C75.479 53.629 75.2445 53.2213 74.883 53.0451Z" fill="#FBAD8B"/>
<path d="M80.9794 53.0451C81.0348 53.019 81.0934 52.9962 81.1521 52.9799C81.8978 52.7874 82.7804 52.4221 83.5588 52.5558C84.1092 52.6504 84.2362 53.3191 83.9235 53.7139C83.5881 54.1379 82.9302 54.2586 82.4222 54.2978C81.9109 54.3369 81.1097 54.3924 80.7287 53.9911C80.3835 53.629 80.6212 53.2213 80.9794 53.0451Z" fill="#FBAD8B"/>
<path d="M68.093 48.1616C67.3212 48.0474 66.494 48.3671 66.634 49.2838C66.7448 50.0145 67.5296 50.742 68.7281 50.5234C68.4024 49.7666 68.1777 48.9706 68.093 48.1616Z" fill="#F9CDB9"/>
<path d="M67.3471 48.8794C67.5588 48.7032 67.8878 48.625 68.1711 48.6706C68.1548 48.5825 68.145 48.4912 68.132 48.4031C67.7445 48.3672 67.2885 48.5271 67.0671 48.8076C66.7219 49.248 66.9824 49.7373 67.3634 50.0375C67.4188 50.0831 67.497 50.0114 67.4448 49.9559C67.168 49.6623 66.9759 49.1893 67.3471 48.8794Z" fill="#F8C4AB"/>
<path d="M68.3243 49.3686C68.1223 49.1859 67.8586 49.0848 67.5557 49.0978C67.4873 49.1011 67.4612 49.2153 67.5394 49.2251C67.8162 49.2642 68.054 49.4077 68.2005 49.6296C68.0312 49.7209 67.9074 49.9199 68.08 50.083C68.2168 50.2135 68.4187 50.2428 68.6109 50.2233C68.5034 49.9427 68.4024 49.6589 68.3243 49.3686Z" fill="#F8C4AB"/>
<path d="M68.0248 50.3114C68.0216 50.3081 68.0151 50.3114 68.0183 50.3146C68.1421 50.6213 68.318 51.339 67.8946 51.4857C67.6112 51.5836 67.5852 51.2183 67.6275 51.0258C67.6666 50.8496 67.7643 50.667 67.8457 50.5104C67.8457 50.5104 67.6503 50.468 67.4712 50.3766C67.2269 50.5854 67.139 50.8953 67.1814 51.2215C67.2204 51.5184 67.4093 51.8446 67.7448 51.8544C68.0444 51.8642 68.2593 51.6064 68.3049 51.3324C68.357 50.9769 68.2137 50.6017 68.0248 50.3114Z" fill="#FDCA27"/>
<path d="M130.345 106.492C128.515 104.309 124.555 104.133 121.956 103.862C114.143 103.047 106.132 103.249 98.3154 103.882C94.4236 104.198 90.5514 104.672 86.6954 105.295C83.9044 105.748 80.7877 106.064 78 106.958C75.2122 106.064 72.0955 105.745 69.3045 105.295C65.4518 104.668 61.5763 104.195 57.6845 103.882C49.8683 103.249 41.8535 103.047 34.0439 103.862C31.4483 104.133 27.4848 104.309 25.6546 106.492C23.8862 108.599 26.0682 111.153 27.7486 112.494C30.0707 114.347 33.018 115.26 35.8318 116.06C39.3654 117.058 42.9804 117.736 46.6149 118.252C62.8822 120.548 71.7145 118.855 80.2178 118.751C80.5435 119.165 80.8496 119.596 81.1297 120.043C89.7502 120.098 100.823 119.41 109.382 118.252C113.02 117.759 116.631 117.061 120.165 116.06C122.982 115.264 125.926 114.35 128.248 112.494C129.928 111.153 132.111 108.599 130.345 106.492Z" fill="#93BFA8"/>
<path d="M118.803 108.002C119.074 107.656 120.712 107.229 121.357 106.942C118.318 107.187 115.267 107.552 112.235 107.865C106.467 108.459 100.693 109.989 95.228 111.904C92.6128 112.82 90.0042 113.783 87.4053 114.748C85.3471 115.512 83.3116 116.347 81.3804 117.387C81.6767 117.296 81.9731 117.205 82.2695 117.117C85.3503 116.21 97.905 109.408 121.152 108.57C120.614 108.452 118.699 108.136 118.803 108.002Z" fill="#66A986"/>
<path d="M37.5384 107.523C37.2681 107.177 35.6299 106.749 34.9851 106.462C38.0236 106.707 41.0752 107.072 44.1072 107.386C49.8749 107.979 55.649 109.509 61.1138 111.424C63.729 112.341 66.3376 113.303 68.9365 114.269C70.9948 115.032 73.0302 115.867 74.9614 116.908C74.6651 116.816 74.3687 116.725 74.0724 116.637C70.9915 115.73 58.4368 108.929 35.1903 108.09C35.7244 107.973 37.6393 107.656 37.5384 107.523Z" fill="#66A986"/>
<path d="M85.8586 114.735C84.5494 114.21 83.1653 114.197 81.8919 114.742C79.7164 115.678 77.0492 114.243 74.789 114.5C72.708 114.739 71.4411 117.11 73.0336 118.624C73.4179 118.989 77.2804 120.392 83.3998 117.534C84.0707 117.221 84.7253 117.042 85.4841 117.051C85.66 117.055 85.8261 117.221 86.0117 117.201C86.409 117.153 86.7347 117.081 86.9561 116.696C87.4772 115.789 86.6077 115.035 85.8586 114.735Z" fill="#FDB597"/>
<path d="M70.5844 119.547C71.6884 118.669 73.0139 118.258 74.385 118.418C76.7364 118.692 78.8826 116.552 81.1232 116.151C83.1847 115.782 85.0769 117.691 83.9826 119.602C83.7188 120.062 80.4165 122.512 73.7369 121.527C73.0042 121.419 72.3268 121.436 71.6038 121.661C71.4377 121.713 71.3237 121.922 71.1381 121.954C70.744 122.023 70.4118 122.046 70.0894 121.742C69.3338 121.021 69.9526 120.049 70.5844 119.547Z" fill="#FDBCA0"/>
<path d="M114.967 65.9565C114.214 66.3447 113.423 66.7818 112.684 67.1896C113.074 66.8699 115.243 64.6582 116.087 64.1134C116.178 64.0547 115.963 63.1576 113.745 64.9322C113.084 65.4607 112.303 65.9957 111.681 66.5731C112.472 65.0692 113.133 63.5458 114.169 62.1692C114.211 62.1137 114.198 62.0518 114.162 62.0094C113.95 61.843 113.42 62.0322 113.182 62.2866C112.758 62.7368 111.15 64.4788 110.368 66.3154C110.381 65.6858 110.326 64.6647 109.88 64.456C109.599 64.3222 109.134 64.4984 108.834 64.5212C108.245 64.5636 107.473 64.6484 106.922 64.4135C106.841 64.3809 106.636 64.3548 106.711 64.6256C106.962 65.5129 108.199 65.6238 108.968 65.8195C109.228 66.4524 108.495 67.4897 108.033 67.8029C107.281 68.315 106.183 67.8127 106.372 66.8079C106.538 65.9239 107.066 65.5227 106.6 64.6549C106.447 64.3679 105.789 64.1069 105.936 64.5701C106.313 65.7543 105.229 66.7492 105.089 67.8942C104.978 68.8011 105.457 69.6068 105.939 70.3343C105.91 70.4093 105.887 70.4844 105.861 70.5561C105.206 71.6913 104.698 72.8885 104.33 74.1412C105.17 74.4185 107.639 74.2423 107.629 74.2228C107.639 74.2423 107.926 72.4873 108.583 71.7468C109.303 70.9345 110.208 70.3082 111.075 69.6688C112.895 68.3216 114.745 67.0135 116.621 65.7412C116.728 65.6727 116.64 65.0921 114.967 65.9565Z" fill="#FDBCA0"/>
<path d="M41.2314 65.9565C41.9837 66.3447 42.775 66.7818 43.5143 67.1896C43.1235 66.8699 40.9545 64.6582 40.111 64.1134C40.0199 64.0547 40.2348 63.1576 42.4526 64.9322C43.1137 65.4607 43.8954 65.9957 44.5174 66.5731C43.726 65.0692 43.0649 63.5458 42.0293 62.1692C41.9869 62.1137 41.9999 62.0518 42.0358 62.0094C42.2475 61.843 42.7783 62.0322 43.016 62.2866C43.4394 62.7368 45.0482 64.4788 45.8299 66.3154C45.8168 65.6858 45.8722 64.6647 46.3184 64.456C46.5984 64.3222 47.0642 64.4984 47.3638 64.5212C47.9532 64.5636 48.7251 64.6484 49.2755 64.4135C49.3569 64.3809 49.5621 64.3548 49.4872 64.6256C49.2364 65.5129 47.9988 65.6238 47.2303 65.8195C46.9697 66.4524 47.7025 67.4897 48.1649 67.8029C48.9172 68.315 50.0148 67.8127 49.8259 66.8079C49.6598 65.9239 49.1322 65.5227 49.5979 64.6549C49.751 64.3679 50.4088 64.1069 50.2623 64.5701C49.8845 65.7543 50.969 66.7492 51.109 67.8942C51.2197 68.8011 50.741 69.6068 50.259 70.3343C50.2883 70.4093 50.3111 70.4844 50.3372 70.5561C50.9918 71.6913 51.4998 72.8885 51.8678 74.1412C51.0276 74.4185 48.559 74.2423 48.5688 74.2228C48.559 74.2423 48.2724 72.4873 47.6145 71.7468C46.8948 70.9345 45.9894 70.3082 45.1231 69.6688C43.3026 68.3216 41.4528 67.0135 39.5769 65.7412C39.4695 65.6727 39.5574 65.0921 41.2314 65.9565Z" fill="#FDBCA0"/>
<path d="M103.451 72.9865C102.23 76.1409 98.0876 87.7867 96.3582 92.7256C95.3291 90.0833 92.5479 78.6104 90.2063 65.2911C89.4768 61.1515 84.8164 61.7419 82.3217 62.1562C82.1426 64.9355 79.4493 72.6407 78.0033 72.657C76.5573 72.6407 73.6914 65.4803 73.6849 62.1562C71.1935 61.7419 66.5299 61.1515 65.8004 65.2911C63.4555 78.6104 60.6775 90.0865 59.6484 92.7256C57.9158 87.7867 53.7765 76.1409 52.5552 72.9865C50.9888 73.727 49.2562 74.1347 47.5269 74.2359C48.8654 77.8014 53.2848 103.05 59.7982 103.05C62.6218 103.05 64.4097 100.046 67.2887 88.9154C67.432 90.7748 67.4808 94.3469 67.4092 98.1016C67.3571 100.806 65.491 103.931 62.9931 103.328C62.4883 103.207 61.8304 103.588 62.4557 104.267C62.625 104.453 62.8432 104.59 63.068 104.694C67.0575 106.586 67.2138 109.415 69.5684 111.062C70.9916 112.057 72.7437 112.37 74.4144 112.709C76.2251 113.075 78.0912 113.349 79.9346 113.071C82.9991 112.612 85.3798 110.56 87.9168 108.955C89.3335 108.058 90.7729 107.34 92.4371 107.095C96.7197 106.466 96.4364 103.438 95.5408 103.5C92.5413 103.706 88.5909 99.8762 88.5681 95.6615C88.5519 92.8561 88.6072 90.3671 88.7179 88.9154C91.5969 100.046 93.3848 103.05 96.2084 103.05C102.722 103.05 107.141 77.8014 108.48 74.2359C106.75 74.1347 105.018 73.7237 103.451 72.9865Z" fill="#F2EDE4"/>
<path d="M86.2201 84.0124C86.1875 84.0352 86.1615 84.058 86.1354 84.0809C85.6046 84.5996 85.191 85.2226 84.6699 85.7511C84.1488 86.2763 83.4747 86.7167 82.7354 86.7134C80.9605 86.7036 80.0714 84.5702 79.0032 83.4839C77.3618 81.8202 75.7692 85.6108 74.548 86.3546C73.2941 87.1179 72.4441 86.658 71.5192 85.7543C70.9525 85.1998 70.4705 84.5767 69.9462 83.983C69.8094 83.8264 69.4968 83.9928 69.5815 84.195C70.1937 85.6695 71.5778 88.1161 73.4049 88.1553C74.5252 88.1781 75.4436 87.5355 76.1796 86.746C76.5411 86.3578 77.5377 84.2733 78.1857 84.5474C78.3062 84.5996 78.3909 84.7072 78.4723 84.8116C78.7948 85.2357 79.0944 85.6826 79.4396 86.0871C79.6187 86.2959 80.1365 86.6416 80.1365 86.9287C80.8693 87.6757 81.8756 88.2629 82.9145 88.1357C83.9762 88.0052 84.8164 87.1734 85.432 86.2959C85.8684 85.6728 86.2364 85.0008 86.5262 84.2962C86.5686 84.195 86.6044 84.0678 86.5295 83.9863C86.4481 83.9015 86.3243 83.9406 86.2201 84.0124Z" fill="#D9C9AC"/>
<g clip-path="url(#clip0_460_1037)">
<path d="M143.99 86.9552L155.135 83.2195L149.548 66.8198L138.403 70.5555C137.966 70.7012 137.729 71.1707 137.88 71.6037L142.933 86.4331C143.08 86.8662 143.553 87.1009 143.99 86.9552Z" fill="#011C2D"/>
<path d="M143.998 86.6315L155.421 82.8027L150.038 67.006L138.615 70.8348C138.333 70.9279 138.182 71.2314 138.276 71.5147L143.312 86.2956C143.41 86.5748 143.716 86.7246 143.998 86.6315Z" fill="#DDDDE3"/>
<path d="M144.239 86.5506L155.662 82.7219L150.279 66.9252L138.856 70.7539C138.574 70.847 138.423 71.1506 138.517 71.4339L143.553 86.2147C143.651 86.494 143.957 86.6478 144.239 86.5506Z" fill="#E2E5FF"/>
<path d="M144.855 86.6638L156 82.9281L150.413 66.5324L139.268 70.2681C138.831 70.4138 138.594 70.8833 138.745 71.3163L143.798 86.1457C143.945 86.5788 144.418 86.8095 144.855 86.6638Z" fill="#011C2D"/>
<path d="M149.789 66.7419L149.549 66.8223L155.136 83.2221L155.376 83.1418L149.789 66.7419Z" fill="#011C2D"/>
<path d="M151.381 79.5527L151.63 79.0265L152.152 79.2936L148.071 67.3176C147.997 67.1072 147.814 67.1233 147.602 67.1962C147.389 67.269 147.23 67.3662 147.304 67.5766L151.381 79.5527Z" fill="#93BFA8"/>
<path d="M126.338 71.0902L133.84 62.2698L132.323 61.0017L124.822 69.8221L126.338 71.0902Z" fill="#011C2D"/>
<path d="M124.82 69.8191L126.335 71.0859L124.147 72.2798C124.074 72.3203 123.976 72.2353 124 72.1584L124.82 69.8191Z" fill="#F2EDE4"/>
<path d="M124.151 72.2838L124.743 71.96L124.229 71.5269L124.008 72.1583C123.98 72.2352 124.078 72.3202 124.151 72.2838Z" fill="#011C2D"/>
<path d="M125.836 70.67L133.337 61.8497L132.822 61.4192L125.321 70.2395L125.836 70.67Z" fill="#011C2D"/>
</g>
<g clip-path="url(#clip1_460_1037)">
<path d="M45.5028 0C35.8335 0 28 7.83352 28 17.5028C28 27.1665 35.8335 35.0055 45.5028 35.0055C55.1665 35.0055 63.0055 27.172 63.0055 17.5028C63 7.83352 55.1665 0 45.5028 0ZM45.5028 32.0452C37.4708 32.0452 30.9603 25.5347 30.9603 17.5028C30.9603 9.47078 37.4708 2.96031 45.5028 2.96031C53.5347 2.96031 60.0452 9.47078 60.0452 17.5028C60.0452 25.5347 53.5347 32.0452 45.5028 32.0452Z" fill="#011C2D"/>
<path d="M58.9208 23.1097C62.0194 15.6998 58.5243 7.18094 51.1144 4.08236C43.7045 0.983775 35.1856 4.47881 32.087 11.8887C28.9885 19.2987 32.4835 27.8175 39.8934 30.9161C47.3034 34.0147 55.8222 30.5196 58.9208 23.1097Z" fill="#AEB4FC"/>
<path d="M45.5309 4.26147C44.511 4.26147 44.5055 5.84912 45.5309 5.84912C46.5562 5.84912 46.5562 4.26147 45.5309 4.26147Z" fill="#011C2D"/>
<path d="M58.738 17.5296C58.738 16.5097 57.1504 16.5042 57.1504 17.5296C57.1504 18.5549 58.738 18.5549 58.738 17.5296Z" fill="#011C2D"/>
<path d="M45.4689 30.7383C46.4887 30.7383 46.4942 29.1507 45.4689 29.1507C44.449 29.1507 44.4435 30.7383 45.4689 30.7383Z" fill="#011C2D"/>
<path d="M32.2617 17.4698C32.2617 18.4896 33.8494 18.4952 33.8494 17.4698C33.8494 16.45 32.2617 16.4444 32.2617 17.4698Z" fill="#011C2D"/>
<path d="M51.7544 21.753C51.6607 21.753 51.5669 21.7309 51.4843 21.6758L45.2274 17.9548C45.0675 17.861 44.9683 17.6846 44.9683 17.4972V7.4972C44.9683 7.20503 45.2053 6.96799 45.4975 6.96799C45.7897 6.96799 46.0267 7.20503 46.0267 7.4972V17.1995L52.0245 20.7662C52.2781 20.9151 52.3608 21.2403 52.2064 21.4939C52.1127 21.6593 51.9363 21.753 51.7544 21.753Z" fill="#011C2D"/>
</g>
<path d="M16.6207 80.4066L16.2715 78.4255L14.2463 78.7707C13.925 77.8457 13.4013 77.0312 12.7239 76.3686L13.9111 74.7051L12.249 73.5524L11.0688 75.209C10.2168 74.7948 9.26706 74.567 8.27541 74.5739L7.91925 72.5653L5.915 72.9104L6.26417 74.9122C5.32839 75.2297 4.50434 75.7474 3.83392 76.4169L2.15091 75.2435L0.984669 76.8863L2.6607 78.0528C2.24169 78.8949 2.01124 79.8337 2.01822 80.8138L0 81.1589L0.349173 83.14L2.37438 82.7948C2.69562 83.7198 3.21938 84.5343 3.89677 85.1969L2.70959 86.8604L4.37165 88.0131L5.55186 86.3565C6.40384 86.7707 7.35359 86.9985 8.34524 86.9916L8.7014 89.0002L10.7057 88.6551L10.3565 86.6533C11.2923 86.3358 12.1163 85.8181 12.7867 85.1486L14.4697 86.322L15.636 84.6792L13.96 83.5127C14.379 82.6706 14.6094 81.7318 14.6024 80.7517L16.6207 80.4066ZM8.63157 82.6223C7.605 82.8017 6.62731 82.1184 6.44574 81.1037C6.26417 80.089 6.95553 79.1227 7.9821 78.9432C9.00867 78.7638 9.98636 79.4471 10.1679 80.4618C10.3495 81.4764 9.66512 82.4428 8.63157 82.6223Z" fill="#011C2D"/>
<path d="M35.7278 76.4099V73.918H33.1788C32.9903 72.717 32.5224 71.6126 31.838 70.6601L33.6467 68.8723L31.8659 67.1122L30.0642 68.893C29.1074 68.2097 27.9971 67.7334 26.782 67.5332V65H24.2609V67.5194C23.0458 67.7058 21.9215 68.1683 20.9647 68.8447L19.156 67.0569L17.3752 68.8171L19.177 70.5979C18.4856 71.5436 18.0037 72.6411 17.8012 73.8421H15.2383V76.3339H17.7872C17.9758 77.535 18.4437 78.6394 19.1281 79.5919L17.3194 81.3797L19.1001 83.1398L20.9019 81.359C21.8586 82.0423 22.969 82.5186 24.1841 82.7187V85.252H26.7051V82.7325C27.9203 82.5462 29.0376 82.0837 30.0013 81.4073L31.81 83.195L33.5908 81.4349L31.7891 79.654C32.4805 78.7084 32.9623 77.6109 33.1648 76.4099H35.7278V76.4099ZM25.483 77.4452C24.1911 77.4452 23.1366 76.4098 23.1366 75.126C23.1366 73.849 24.1841 72.8067 25.483 72.8067C26.775 72.8067 27.8295 73.8421 27.8295 75.126C27.8225 76.4029 26.775 77.4452 25.483 77.4452Z" fill="#011C2D"/>
<path d="M144.808 16.3512C143.911 12.5596 140.119 10.2213 136.348 11.1218C132.572 12.0224 130.243 15.8293 131.14 19.6157C131.772 22.2764 133.831 24.2208 136.307 24.8297C136.45 25.2084 136.715 27.5058 137.189 28.2426C137.403 28.5752 137.673 28.6315 138.086 28.5445C138.417 29.7265 139.803 30.8113 140.945 30.7038C141.745 30.6271 142.326 30.0744 142.586 29.3325C142.79 28.7543 142.953 28.0891 143.055 27.4444C143.605 27.4291 143.87 27.3728 143.844 26.856C143.799 25.9605 142.83 23.4942 142.795 23.1156C144.553 21.4424 145.409 18.8942 144.808 16.3512Z" fill="#011C2D"/>
<path d="M141.154 16.0955C141.047 15.7117 140.67 15.4559 140.272 15.5531C139.9 15.6401 139.62 16.0545 139.732 16.4383C139.798 16.6737 139.971 16.863 140.18 16.95C140.028 17.9426 139.834 18.9199 139.752 19.9228C139.676 20.8541 139.599 21.7649 139.396 22.6706C138.29 21.0076 137.189 19.3498 135.971 17.7687C136.307 17.4463 136.053 16.7248 135.487 16.8579C134.819 17.0165 135.064 18.0603 135.737 17.9017C135.742 17.9017 135.747 17.8966 135.752 17.8915C137.016 19.6875 138.254 21.509 139.284 23.4534C139.396 23.6632 139.701 23.6172 139.773 23.4023C140.109 22.3994 140.206 21.376 140.277 20.3271C140.359 19.1962 140.578 18.0859 140.67 16.9602C141.011 16.8476 141.256 16.4588 141.154 16.0955Z" fill="#AEB4FC"/>
<path d="M132.668 9.91443C131.247 9.20831 129.82 8.49708 128.398 7.78584C128.102 7.64257 127.832 8.06727 128.128 8.22589C129.514 8.99341 130.905 9.75581 132.291 10.5233C132.699 10.7485 133.076 10.1191 132.668 9.91443Z" fill="#808AFF"/>
<path d="M135.344 4.49057C135.227 4.22961 134.891 4.41893 134.916 4.6543C135.089 6.12794 135.635 7.63228 136.063 9.05475C136.17 9.40269 136.705 9.28501 136.618 8.92171C136.267 7.45831 135.961 5.86699 135.344 4.49057Z" fill="#808AFF"/>
<path d="M141.969 4.06083C141.602 4.38319 141.378 4.89487 141.149 5.32468C140.909 5.77496 140.695 6.23547 140.491 6.7011C140.328 7.07974 140.955 7.2793 141.113 6.89042C141.301 6.41456 141.505 5.95404 141.74 5.49865C141.938 5.10466 142.229 4.7209 142.346 4.2962C142.412 4.06595 142.137 3.90732 141.969 4.06083Z" fill="#808AFF"/>
<defs>
<clipPath id="clip0_460_1037">
<rect width="32" height="26" fill="white" transform="translate(124 61)"/>
</clipPath>
<clipPath id="clip1_460_1037">
<rect width="35" height="35" fill="white" transform="translate(28)"/>
</clipPath>
</defs>
</svg>
