<svg width="393" height="902" viewBox="0 0 393 852" fill="none" xmlns="http://www.w3.org/2000/svg">
<g clip-path="url(#clip0_381_5)">
<path d="M65.71 -174.938C67.643 -178.286 71.9241 -179.433 75.2721 -177.5L612.561 132.704C615.909 134.637 617.057 138.918 615.124 142.266L441.494 443.002C439.273 446.849 433.378 444.557 434.338 440.22V440.22C457.848 334.047 368.555 236.861 260.775 251.314L149.397 266.25V266.25C48.6933 274.15 -49.5904 232.734 -114.268 155.142L-120.146 148.089C-120.375 147.815 -120.408 147.428 -120.229 147.119L65.71 -174.938Z" fill="#4FC4E7"/>
<path d="M-115.859 -131.557C-115.859 -135.422 -112.725 -138.557 -108.859 -138.557H440.141C444.007 -138.557 447.141 -135.423 447.141 -131.557V168.512C447.141 172.433 441.632 173.301 440.427 169.57V169.57C411.136 78.917 301.236 44.1522 225.138 101.467L144.223 162.41V162.41C70.1476 212.107 -23.136 223.648 -107.089 193.5L-115.348 190.534C-115.655 190.424 -115.859 190.134 -115.859 189.809V-131.557Z" fill="#011C2D"/>
<path d="M472.692 1020.57C472.414 1024.43 469.063 1027.33 465.207 1027.05L-141.018 983.369C-144.874 983.092 -147.775 979.74 -147.497 975.884L-120.822 605.7C-120.503 601.276 -114.177 600.838 -113.252 605.176V605.176C-89.9802 714.332 37.8679 763.48 128.266 698.021L212.334 637.146V637.146C297.272 582.648 404.467 576.339 495.212 620.496L500.835 623.232C501.12 623.371 501.293 623.67 501.27 623.986L472.692 1020.57Z" fill="url(#paint0_linear_381_5)"/>
</g>
<defs>
<linearGradient id="paint0_linear_381_5" x1="195.736" y1="538.345" x2="162.094" y2="1005.21" gradientUnits="userSpaceOnUse">
<stop stop-color="#011C2D"/>
<stop offset="0.5" stop-color="#023C60"/>
<stop offset="1" stop-color="#035B93"/>
</linearGradient>
<clipPath id="clip0_381_5">
<rect width="393" height="852" fill="white"/>
</clipPath>
</defs>
</svg>
