<svg width="393" height="169" viewBox="0 0 393 169" fill="none" xmlns="http://www.w3.org/2000/svg">
<g clip-path="url(#clip0_469_1617)">
<path d="M88.71 -284.938C90.643 -288.286 94.9241 -289.433 98.2721 -287.5L635.561 22.7041C638.909 24.6371 640.057 28.9182 638.124 32.2662L464.494 333.002C462.273 336.849 456.378 334.557 457.338 330.22C480.848 224.047 391.555 126.861 283.775 141.314L172.397 156.25C71.6933 164.15 -26.5904 122.734 -91.2676 45.1416L-97.1461 38.0892C-97.3746 37.8151 -97.4078 37.4277 -97.2294 37.1186L88.71 -284.938Z" fill="#4FC4E7"/>
<path d="M-12 -149C-12 -152.866 -8.86599 -156 -5 -156H431C434.866 -156 438 -152.866 438 -149V89.6542C438 92.7892 433.596 93.4825 432.632 90.4991C409.228 18 321.331 -9.79652 260.497 36.0627L195.88 84.7731C136.678 124.527 62.0992 133.759 -5.00912 109.639L-11.5927 107.272C-11.837 107.185 -12 106.953 -12 106.693V-149Z" fill="#011C2D"/>
</g>
<defs>
<clipPath id="clip0_469_1617">
<rect width="393" height="173" fill="white" transform="translate(0 -4)"/>
</clipPath>
</defs>
</svg>
