<svg width="204" height="114" viewBox="0 0 204 114" fill="none" xmlns="http://www.w3.org/2000/svg">
<mask id="mask0_460_217" style="mask-type:alpha" maskUnits="userSpaceOnUse" x="0" y="0" width="204" height="114">
<rect x="0.181885" width="203.818" height="114" rx="10" fill="#FEB18F"/>
</mask>
<g mask="url(#mask0_460_217)">
<path fill-rule="evenodd" clip-rule="evenodd" d="M1.44291 56.1914C6.62619 66.1966 14.6915 81.7651 42.7879 76.9392C65.4073 73.0541 72.083 85.1305 78.3426 96.4542C79.461 98.4774 80.5661 100.476 81.7465 102.356C83.2135 104.693 85.8526 105.939 88.6113 105.939H102.091H115.571C118.329 105.939 120.968 104.693 122.435 102.356C123.616 100.476 124.721 98.4774 125.839 96.4542C132.099 85.1305 138.775 73.0541 161.394 76.9392C189.49 81.7651 197.556 66.1966 202.739 56.1914V56.1914C203.188 55.3252 203.424 54.3642 203.424 53.3888V6.56732C203.424 0.151345 196.903 -4.20407 190.976 -1.74596L105.539 33.691C103.331 34.6067 100.85 34.6067 98.6428 33.691L13.2057 -1.74596C7.27927 -4.20407 0.757568 0.151345 0.757568 6.56732V53.3888C0.757568 54.3643 0.994201 55.3252 1.44291 56.1914V56.1914Z" fill="#4FC4E7"/>
<path d="M120.806 11.8523C120.806 11.8523 122.028 11.9883 123.075 12.9249C124.122 13.8615 125.088 11.4741 123.355 10.9866C121.626 10.4991 120.806 11.8523 120.806 11.8523Z" fill="#F5E2D5"/>
<path d="M119.642 11.7429C119.642 11.7429 120.441 10.8152 121.81 10.4813C123.179 10.1474 121.724 8.0171 120.346 9.16351C118.971 10.3129 119.642 11.7429 119.642 11.7429Z" fill="#F5E2D5"/>
<path d="M103.68 17.2887C103.68 17.2887 102.83 18.1692 102.633 19.555C102.436 20.9377 100.149 19.7204 101.163 18.246C102.174 16.7717 103.68 17.2887 103.68 17.2887Z" fill="#F5E2D5"/>
<path d="M104.504 16.4673C104.504 16.4673 103.29 16.2634 102.023 16.878C100.755 17.4926 100.493 14.9338 102.294 14.9368C104.092 14.9398 104.504 16.4673 104.504 16.4673Z" fill="#F5E2D5"/>
<path d="M122.131 24.548C124.784 20.2183 123.393 14.5773 119.023 11.9485C114.654 9.31969 108.961 10.6985 106.307 15.0282C103.654 19.3579 105.046 24.9989 109.416 27.6277C113.785 30.2565 119.478 28.8777 122.131 24.548Z" fill="#F5E2D5"/>
<path d="M107.046 18.2253C106.888 18.2667 106.718 18.1987 106.638 18.051C106.546 17.8796 106.608 17.6639 106.784 17.5723L109.089 16.3402L107.544 16.287C107.348 16.2811 107.193 16.1157 107.199 15.9206C107.205 15.7256 107.372 15.572 107.568 15.5779L110.431 15.6754C110.592 15.6813 110.729 15.7936 110.768 15.9502C110.804 16.1068 110.732 16.2663 110.589 16.3432L107.121 18.1957C107.097 18.2076 107.073 18.2164 107.046 18.2253Z" fill="#3F4553"/>
<path d="M119.386 14.8628C119.359 14.8688 119.332 14.8747 119.302 14.8747L115.536 14.9929C115.375 14.9988 115.229 14.8953 115.181 14.7417C115.134 14.5881 115.196 14.4226 115.333 14.3369L117.877 12.765C118.044 12.6616 118.265 12.7119 118.369 12.8773C118.473 13.0428 118.423 13.2614 118.256 13.3648L116.839 14.2394L119.279 14.1626C119.475 14.1567 119.642 14.3103 119.648 14.5053C119.651 14.6767 119.541 14.8185 119.386 14.8628Z" fill="#3F4553"/>
<path d="M106.891 19.821C108.853 23.405 112.336 25.4467 115.545 24.5721C118.75 23.6975 120.691 20.1755 120.527 16.104L119.29 16.2311C115.327 16.6359 111.471 17.6966 107.866 19.3689L106.891 19.821Z" fill="#3F4553"/>
<path d="M119.469 20.7045C118.08 20.2524 116.323 20.214 114.531 20.7045C112.703 21.2038 111.192 22.1522 110.234 23.275C111.86 24.318 113.696 24.7198 115.453 24.2412C117.23 23.7537 118.614 22.4566 119.469 20.7045Z" fill="#4E5567"/>
<path d="M57.9587 55.6053C59.3763 50.7387 56.5438 45.6549 51.6323 44.2503C46.7208 42.8457 41.5901 45.6523 40.1726 50.5189C38.7551 55.3855 41.5875 60.4693 46.499 61.8738C51.4105 63.2784 56.5412 60.4719 57.9587 55.6053Z" fill="#F5E2D5"/>
<path d="M44.3363 47.4942C44.1842 47.4321 44.0918 47.2755 44.1186 47.1101C44.1514 46.918 44.3333 46.785 44.5301 46.8175L47.1155 47.2312L45.9227 46.2591C45.7706 46.135 45.7497 45.9105 45.875 45.7598C46.0002 45.6091 46.2269 45.5884 46.3789 45.7125L48.5915 47.5178C48.7168 47.6183 48.7555 47.7926 48.6899 47.9374C48.6243 48.0821 48.4663 48.1678 48.3082 48.1412L44.4168 47.5207C44.387 47.5119 44.3602 47.506 44.3363 47.4942Z" fill="#3F4553"/>
<path d="M56.1928 52.2661C56.166 52.2542 56.1421 52.2424 56.1183 52.2247L53.0588 50.0471C52.9276 49.9525 52.8769 49.7841 52.9336 49.6334C52.9902 49.4827 53.1423 49.3912 53.3033 49.4059L56.2853 49.6925C56.4821 49.7103 56.6252 49.8846 56.6073 50.0796C56.5894 50.2746 56.4135 50.4164 56.2167 50.3987L54.5558 50.2391L56.5387 51.6485C56.6998 51.7638 56.7355 51.9824 56.6192 52.142C56.5179 52.2808 56.3419 52.3281 56.1928 52.2661Z" fill="#3F4553"/>
<path d="M50.2318 56.9165C48.881 56.9165 47.6763 56.6152 46.6267 56.0154C43.8624 54.4346 43.2243 51.3677 43.1975 51.2377C43.1498 50.9983 43.3078 50.7649 43.5493 50.7176C43.7909 50.6704 44.0264 50.827 44.0741 51.0663C44.0801 51.0929 44.6676 53.8762 47.0829 55.2531C48.8422 56.2576 51.1443 56.2901 53.9264 55.3506C54.162 55.2708 54.4155 55.3949 54.493 55.6283C54.5735 55.8588 54.4483 56.1129 54.2127 56.1897C52.7724 56.6713 51.4425 56.9165 50.2318 56.9165Z" fill="#3F4553"/>
<path d="M104.909 81.5363C108.883 77.5982 108.883 71.2133 104.909 67.2752C100.934 63.3371 94.4904 63.3371 90.5159 67.2752C86.5415 71.2133 86.5415 77.5982 90.5159 81.5363C94.4904 85.4744 100.934 85.4744 104.909 81.5363Z" fill="#F5E2D5"/>
<path d="M91.979 77.7052C91.979 77.7052 98.5243 74.003 104.831 73.1078C104.831 73.1078 106.641 79.0171 100.612 81.304C95.3844 83.2866 91.979 77.7052 91.979 77.7052Z" fill="#3F4553"/>
<path d="M93.2702 74.857C93.0555 74.857 92.8468 74.7418 92.7394 74.5379L91.2544 71.6955C91.1023 71.406 91.2186 71.0485 91.5109 70.8978C91.8031 70.7471 92.1639 70.8623 92.316 71.1519L93.801 73.9943C93.9531 74.2838 93.8368 74.6413 93.5445 74.792C93.4551 74.8363 93.3626 74.857 93.2702 74.857Z" fill="#3F4553"/>
<path d="M101.184 72.0116C100.91 72.0116 100.662 71.8225 100.603 71.5448L99.9109 68.3095C99.8423 67.9904 100.048 67.6772 100.37 67.6092C100.692 67.5413 101.008 67.7451 101.077 68.0642L101.769 71.2996C101.837 71.6187 101.631 71.9319 101.309 71.9998C101.265 72.0087 101.223 72.0116 101.184 72.0116Z" fill="#3F4553"/>
<path d="M102.213 80.1251C101.664 78.7866 99.7466 78.24 97.8739 78.9078C96.8362 79.2801 96.0311 79.9478 95.5928 80.7013C96.9495 81.3779 98.6373 81.6822 100.576 80.9465C101.205 80.7101 101.741 80.4324 102.213 80.1251Z" fill="#4E5567"/>
<path d="M156.59 48.2682C161.755 46.07 164.143 40.1397 161.924 35.0226C159.706 29.9054 153.721 27.5392 148.556 29.7374C143.392 31.9356 141.004 37.8659 143.222 42.9831C145.441 48.1002 151.426 50.4665 156.59 48.2682Z" fill="#F5E2D5"/>
<path d="M153.871 41.2481C150.356 41.2481 147.687 39.2212 147.648 39.1916C147.52 39.0912 147.496 38.905 147.597 38.778C147.699 38.6509 147.887 38.6273 148.015 38.7277C148.23 38.8932 153.332 42.7549 158.645 39.1503C158.783 39.0587 158.968 39.0941 159.06 39.2271C159.152 39.363 159.12 39.5462 158.982 39.6378C157.217 40.8344 155.458 41.2481 153.871 41.2481Z" fill="#3F4553"/>
<path d="M156.773 35.8943C156.773 36.5148 156.528 37.02 156.224 37.02C155.92 37.02 155.676 36.5177 155.676 35.8943C155.676 35.2708 155.92 34.7686 156.224 34.7686C156.528 34.7686 156.773 35.2738 156.773 35.8943Z" fill="#3F4553"/>
<path d="M151.504 35.6786C151.504 36.2991 151.259 36.8043 150.955 36.8043C150.651 36.8043 150.406 36.302 150.406 35.6786C150.406 35.0581 150.651 34.5529 150.955 34.5529C151.259 34.5529 151.504 35.0551 151.504 35.6786Z" fill="#3F4553"/>
<path d="M126.836 109.253C140.552 109.253 151.671 106.763 151.671 103.692C151.671 100.621 140.552 98.1312 126.836 98.1312C113.12 98.1312 102.001 100.621 102.001 103.692C102.001 106.763 113.12 109.253 126.836 109.253Z" fill="#4FC4E7"/>
<path opacity="0.5" d="M126.836 109.253C140.552 109.253 151.671 106.763 151.671 103.692C151.671 100.621 140.552 98.1312 126.836 98.1312C113.12 98.1312 102.001 100.621 102.001 103.692C102.001 106.763 113.12 109.253 126.836 109.253Z" fill="#4FC4E7"/>
<path d="M124.914 30.1828C124.914 30.1828 123.012 30.0115 122.839 28.2978C122.666 26.5841 127.165 24.439 130.019 24.3533C132.876 24.2676 135.643 27.3552 135.643 29.8401C135.643 32.325 136.075 35.841 138.237 36.5265C140.399 37.212 141.872 41.4135 140.572 42.9558C139.275 44.4982 139.362 44.4982 140.659 45.8721C141.956 47.2431 140.832 49.6452 139.967 50.1593C139.102 50.6734 136.505 51.4446 130.708 50.9305C124.911 50.4164 121.449 45.1866 121.19 43.0415C120.93 40.8994 122.919 39.4398 123.611 38.4973C124.303 37.5547 123.092 36.7836 123.179 35.7524C123.265 34.7242 124.562 33.8673 124.908 33.0075C125.26 32.1536 124.914 30.1828 124.914 30.1828Z" fill="#3F4553"/>
<path d="M134.25 51.2466C133.233 51.2466 132.058 51.1964 130.699 51.0752C124.622 50.5345 121.288 45.0507 121.046 43.0592C120.835 41.3219 122.027 40.0396 122.895 39.1029C123.14 38.84 123.348 38.6125 123.497 38.4116C123.846 37.9329 123.635 37.5045 123.39 37.0051C123.196 36.6151 122.999 36.2133 123.038 35.7435C123.092 35.0905 123.575 34.5291 124.043 33.9884C124.353 33.628 124.645 33.2882 124.78 32.9572C125.063 32.257 124.851 30.7294 124.789 30.3128C124.353 30.239 122.85 29.8696 122.692 28.3096C122.65 27.9048 122.832 27.4734 123.226 27.0272C124.475 25.6179 127.711 24.2705 130.016 24.2026C131.319 24.1671 132.711 24.7728 133.857 25.8749C135.052 27.0243 135.795 28.543 135.795 29.8401C135.795 31.9911 136.12 35.6992 138.288 36.3876C139.424 36.7481 140.476 38.0688 140.971 39.75C141.377 41.1298 141.273 42.3649 140.694 43.0533C139.519 44.4479 139.519 44.4479 140.661 45.6505L140.778 45.7716C141.425 46.4541 141.457 47.311 141.374 47.9078C141.222 48.9952 140.581 49.9702 140.053 50.2863C139.606 50.5464 138.067 51.2466 134.25 51.2466ZM130.132 24.4981C130.096 24.4981 130.061 24.498 130.022 24.501C127.824 24.566 124.628 25.8897 123.447 27.2252C123.107 27.6064 122.952 27.9639 122.984 28.283C123.143 29.8578 124.908 30.0351 124.926 30.038C124.994 30.044 125.048 30.0942 125.06 30.1592C125.075 30.2419 125.409 32.1831 125.051 33.0695C124.899 33.4448 124.592 33.8023 124.267 34.1805C123.831 34.6887 123.378 35.2117 123.333 35.7701C123.301 36.1601 123.482 36.5235 123.655 36.8781C123.921 37.4129 124.192 37.9654 123.739 38.5888C123.581 38.8045 123.366 39.0379 123.116 39.3068C122.287 40.2021 121.151 41.4283 121.344 43.0297C121.577 44.9591 124.818 50.2627 130.729 50.7886C137.11 51.3559 139.358 50.3573 139.898 50.0382C140.357 49.7663 140.939 48.8592 141.079 47.8724C141.153 47.3376 141.123 46.5753 140.56 45.9784L140.447 45.8573C139.218 44.5632 139.158 44.4272 140.47 42.8672C140.986 42.2526 141.07 41.121 140.691 39.8357C140.309 38.5327 139.391 37.0495 138.204 36.6742C135.854 35.9296 135.506 32.0768 135.506 29.846C135.506 28.6257 134.799 27.1897 133.66 26.0936C132.592 25.0742 131.316 24.4981 130.132 24.4981Z" fill="#3F4553"/>
<path d="M138.714 43.9634C138.66 43.9634 138.628 43.9575 138.619 43.9546C138.538 43.9368 138.487 43.8571 138.505 43.7773C138.523 43.6975 138.604 43.6473 138.684 43.665C138.687 43.665 138.83 43.6886 139.009 43.5586C139.239 43.3932 139.543 42.9766 139.695 41.9158C139.892 40.5508 137.709 38.7603 135.401 36.8663C134.375 36.0243 133.314 35.1526 132.383 34.2603C129.3 31.3027 128.865 27.8044 128.859 27.7689C128.85 27.6892 128.909 27.6153 128.99 27.6064C129.065 27.5976 129.145 27.6567 129.154 27.7364C129.157 27.7689 129.583 31.1697 132.589 34.0476C133.511 34.931 134.566 35.7997 135.589 36.6359C138.067 38.6687 140.208 40.4267 139.987 41.9543C139.85 42.9027 139.573 43.5261 139.161 43.8068C138.979 43.9398 138.812 43.9634 138.714 43.9634Z" fill="#AC9B8F"/>
<path d="M124.007 28.7794C123.041 28.7794 122.734 28.4071 122.719 28.3864C122.668 28.3214 122.68 28.2298 122.746 28.1796C122.809 28.1294 122.904 28.1412 122.955 28.2062C122.958 28.2092 123.456 28.7617 125.296 28.3037C127.228 27.8251 129.196 26.2798 129.214 26.262C129.279 26.2118 129.372 26.2207 129.423 26.2857C129.473 26.3507 129.464 26.4423 129.399 26.4925C129.315 26.5575 127.362 28.0939 125.367 28.5874C124.812 28.7292 124.365 28.7794 124.007 28.7794Z" fill="#AC9B8F"/>
<path d="M115.828 100.687C115.828 100.687 117.116 102.362 118.556 103.151C119.997 103.94 122.582 103.396 121.837 101.526C121.091 99.6558 119.898 98.669 119.004 98.3262C118.109 97.9805 115.783 98.864 115.828 100.687Z" fill="#E49621"/>
<path d="M120.021 103.65C119.49 103.65 118.941 103.529 118.485 103.281C117.033 102.486 115.762 100.846 115.709 100.779C115.691 100.755 115.679 100.722 115.679 100.693C115.661 99.9158 116.049 99.2096 116.776 98.7014C117.51 98.1902 118.491 97.9686 119.057 98.1873C119.505 98.3587 121.031 99.1032 121.974 101.473C122.239 102.138 122.129 102.729 121.664 103.133C121.273 103.476 120.659 103.65 120.021 103.65ZM115.977 100.637C116.177 100.888 117.352 102.324 118.628 103.024C119.517 103.509 120.844 103.455 121.47 102.912C121.839 102.59 121.917 102.132 121.699 101.582C120.802 99.3248 119.367 98.6246 118.95 98.465C118.536 98.3055 117.674 98.4414 116.949 98.9466C116.582 99.1978 115.977 99.7533 115.977 100.637Z" fill="#3F4553"/>
<path d="M117.662 102.51L117.677 102.554C117.957 102.776 118.252 102.983 118.556 103.148C119.997 103.937 122.582 103.393 121.837 101.523C119.502 100.099 117.662 102.51 117.662 102.51Z" fill="#F1BD54"/>
<path d="M120.021 103.65C119.49 103.65 118.941 103.529 118.485 103.281C118.199 103.125 117.898 102.921 117.584 102.672C117.561 102.655 117.543 102.628 117.534 102.599L117.519 102.551C117.504 102.507 117.513 102.457 117.543 102.418C117.564 102.395 119.49 99.9158 121.914 101.396C121.941 101.414 121.962 101.437 121.974 101.467C122.239 102.132 122.129 102.723 121.664 103.127C121.273 103.476 120.659 103.65 120.021 103.65ZM117.856 102.51C118.124 102.717 118.384 102.888 118.628 103.024C119.517 103.509 120.844 103.455 121.47 102.912C121.828 102.599 121.914 102.158 121.717 101.629C119.77 100.474 118.211 102.09 117.856 102.51Z" fill="#3F4553"/>
<path d="M118.556 103.151C119.907 103.89 122.263 103.461 121.938 101.863C121.455 102.374 120.492 103.001 119.153 102.51C117.715 101.987 116.484 100.554 115.974 99.8952C115.878 100.135 115.819 100.398 115.828 100.687C115.828 100.687 117.116 102.362 118.556 103.151Z" fill="#F1BD54"/>
<path d="M120.02 103.648C119.487 103.648 118.935 103.526 118.485 103.278C117.032 102.483 115.762 100.844 115.709 100.776C115.691 100.752 115.679 100.72 115.679 100.69C115.673 100.403 115.723 100.117 115.837 99.839C115.858 99.7888 115.902 99.7533 115.956 99.7474C116.007 99.7386 116.06 99.7622 116.093 99.8036C116.558 100.403 117.79 101.854 119.203 102.371C120.578 102.873 121.496 102.111 121.827 101.76C121.866 101.718 121.923 101.703 121.977 101.718C122.03 101.733 122.072 101.777 122.081 101.83C122.194 102.392 122.006 102.885 121.55 103.216C121.162 103.506 120.602 103.648 120.02 103.648ZM115.977 100.637C116.177 100.888 117.352 102.324 118.628 103.024C119.46 103.479 120.721 103.461 121.377 102.983C121.663 102.776 121.813 102.507 121.818 102.182C121.332 102.596 120.396 103.125 119.099 102.652C117.766 102.164 116.6 100.909 116.028 100.205C115.995 100.347 115.977 100.489 115.977 100.637Z" fill="#3F4553"/>
<path d="M137.429 100.625C137.429 100.625 136.141 102.3 134.701 103.089C133.26 103.878 130.675 103.334 131.421 101.464C132.166 99.5938 133.359 98.6069 134.253 98.2642C135.148 97.9185 137.474 98.8019 137.429 100.625Z" fill="#E49621"/>
<path d="M133.237 103.589C132.598 103.589 131.984 103.411 131.591 103.068C131.125 102.664 131.015 102.076 131.28 101.408C132.223 99.0413 133.752 98.2967 134.197 98.1224C134.763 97.9037 135.744 98.1253 136.478 98.6365C137.206 99.1417 137.596 99.8509 137.575 100.628C137.575 100.657 137.563 100.69 137.545 100.714C137.492 100.785 136.222 102.424 134.769 103.216C134.316 103.464 133.767 103.589 133.237 103.589ZM134.713 98.3351C134.552 98.3351 134.414 98.3558 134.304 98.3972C133.887 98.5567 132.455 99.2599 131.555 101.514C131.337 102.064 131.415 102.522 131.784 102.844C132.411 103.391 133.738 103.441 134.626 102.956C135.902 102.259 137.077 100.823 137.277 100.572C137.277 99.6884 136.672 99.1329 136.305 98.8788C135.771 98.5065 135.163 98.3351 134.713 98.3351Z" fill="#3F4553"/>
<path d="M135.595 102.448L135.58 102.492C135.3 102.714 135.005 102.921 134.7 103.086C133.26 103.875 130.675 103.331 131.42 101.461C133.755 100.034 135.595 102.448 135.595 102.448Z" fill="#F1BD54"/>
<path d="M133.237 103.589C132.598 103.589 131.984 103.411 131.591 103.069C131.125 102.664 131.015 102.076 131.28 101.408C131.292 101.378 131.313 101.352 131.34 101.337C133.764 99.8568 135.694 102.333 135.712 102.359C135.741 102.398 135.75 102.448 135.735 102.492L135.721 102.537C135.712 102.566 135.694 102.59 135.67 102.608C135.357 102.856 135.053 103.06 134.769 103.216C134.316 103.464 133.767 103.589 133.237 103.589ZM131.54 101.562C131.343 102.091 131.43 102.534 131.787 102.844C132.414 103.391 133.741 103.441 134.629 102.956C134.874 102.823 135.133 102.652 135.401 102.442C135.044 102.025 133.484 100.412 131.54 101.562Z" fill="#3F4553"/>
<path d="M134.701 103.089C133.35 103.828 130.994 103.399 131.319 101.801C131.803 102.312 132.766 102.938 134.105 102.448C135.542 101.925 136.773 100.492 137.283 99.833C137.379 100.072 137.438 100.335 137.429 100.625C137.429 100.625 136.141 102.3 134.701 103.089Z" fill="#F1BD54"/>
<path d="M133.237 103.586C132.655 103.586 132.095 103.441 131.701 103.157C131.245 102.826 131.057 102.333 131.17 101.771C131.182 101.718 131.221 101.674 131.275 101.659C131.328 101.644 131.388 101.659 131.424 101.701C131.755 102.052 132.673 102.812 134.048 102.312C135.461 101.795 136.696 100.344 137.158 99.7446C137.191 99.7032 137.244 99.6825 137.295 99.6884C137.349 99.6943 137.393 99.7298 137.414 99.78C137.525 100.058 137.578 100.344 137.572 100.631C137.572 100.663 137.56 100.693 137.543 100.717C137.489 100.788 136.219 102.427 134.766 103.219C134.322 103.464 133.77 103.586 133.237 103.586ZM131.436 102.117C131.444 102.442 131.591 102.711 131.877 102.918C132.533 103.397 133.794 103.414 134.626 102.959C135.902 102.262 137.077 100.826 137.277 100.575C137.277 100.43 137.259 100.285 137.223 100.143C136.651 100.844 135.485 102.102 134.152 102.59C132.858 103.06 131.922 102.531 131.436 102.117Z" fill="#3F4553"/>
<path d="M127.336 36.4084C127.336 36.4084 126.99 39.239 126.73 39.8388C126.471 40.4386 123.268 40.61 121.885 41.1241C120.501 41.6382 117.558 44.126 115.742 45.8397C113.926 47.5534 112.28 52.0977 112.28 52.6975C112.28 53.2973 114.096 50.9838 115.742 49.3528C117.385 47.7248 121.02 45.6654 121.02 45.6654C121.02 45.6654 122.32 52.0445 122.493 52.7329C122.666 53.4184 122.49 54.5619 122.49 54.8189C122.49 55.076 118.855 61.334 118.25 66.5637C117.644 71.7935 118.768 81.7389 118.768 81.7389C118.768 81.7389 116.78 85.5977 116.607 89.8849C116.434 94.1721 115.482 99.2305 115.569 99.5732C115.655 99.916 115.396 100.601 115.828 100.687C116.261 100.773 116.607 99.5732 117.644 99.3162C118.682 99.0591 120.066 99.7446 120.242 99.0591C120.414 98.3736 120.242 97.0027 120.414 95.2003C120.587 93.4009 123.444 86.0261 123.617 83.5412C123.79 81.0563 125.865 68.8802 126.301 68.2804C126.733 67.6806 126.733 67.6806 126.733 67.6806C126.733 67.6806 127.166 66.6524 127.425 67.7663C127.684 68.8802 127.425 79.9395 127.944 81.5705C128.463 83.1985 132.551 94.1366 133.07 95.4219C133.589 96.7072 132.464 98.2525 132.81 98.938C133.156 99.6234 134.107 99.3664 134.972 99.3664C135.837 99.3664 136.738 100.625 137.429 100.625C138.121 100.625 138.348 99.6234 138.348 98.5095C138.348 97.3956 135.297 86.5431 135.124 83.8839C134.951 81.2248 134.346 79.1683 134.346 79.1683C134.346 79.1683 135.47 66.9094 135.211 64.2502C134.951 61.591 132.703 54.8189 132.703 54.8189L134.26 46.3538C134.26 46.3538 139.019 49.013 140.662 51.1551C142.305 53.2973 143.432 53.2116 143.256 51.4979C143.083 49.7842 139.016 44.7258 136.854 42.495C134.692 40.2672 131.749 40.6956 130.884 40.0958C130.019 39.496 130.538 33.5808 130.538 33.5808L127.336 36.4084Z" fill="#FED9CE"/>
<path d="M115.876 100.841C115.852 100.841 115.825 100.838 115.801 100.832C115.384 100.749 115.411 100.306 115.432 99.9838C115.441 99.8449 115.449 99.7001 115.426 99.6085C115.39 99.4697 115.449 99.0087 115.646 97.6141C115.927 95.6257 116.35 92.6208 116.46 89.8788C116.624 85.8428 118.408 82.1376 118.619 81.7121C118.539 80.9883 117.525 71.557 118.103 66.5488C118.589 62.3502 121.044 57.4366 121.968 55.587C122.162 55.2 122.329 54.8661 122.344 54.8011C122.341 54.7568 122.353 54.6415 122.365 54.4908C122.406 54.0329 122.475 53.2706 122.35 52.7712C122.195 52.1508 121.142 47.0096 120.915 45.9016C120.167 46.3389 117.251 48.0704 115.846 49.462C115.274 50.0293 114.677 50.6852 114.149 51.2644C112.84 52.7003 112.509 53.0253 112.268 52.9337C112.217 52.9131 112.131 52.8599 112.131 52.7033C112.131 52.0296 113.792 47.4794 115.637 45.7362C117.116 44.3416 120.313 41.5524 121.831 40.991C122.415 40.7753 123.301 40.6187 124.16 40.468C125.188 40.2878 126.471 40.0632 126.59 39.7855C126.837 39.2123 127.18 36.426 127.183 36.3965C127.186 36.361 127.204 36.3285 127.231 36.3049L130.434 33.4743C130.478 33.433 130.547 33.4271 130.601 33.4537C130.654 33.4802 130.687 33.5393 130.681 33.5984C130.484 35.8528 130.386 39.5787 130.964 39.9805C131.224 40.1607 131.74 40.2464 132.339 40.3469C133.663 40.5685 135.473 40.8728 136.955 42.4004C139.108 44.6193 143.217 49.6954 143.399 51.4889C143.5 52.5024 143.149 52.7978 142.928 52.8835C142.364 53.1051 141.514 52.523 140.536 51.2496C139.111 49.3911 135.246 47.1012 134.361 46.593L132.849 54.8159C133.046 55.4068 135.103 61.6707 135.354 64.2442C135.607 66.8472 134.564 78.3616 134.492 79.1623C134.564 79.4164 135.106 81.4019 135.267 83.8809C135.366 85.3818 136.418 89.6425 137.265 93.0669C137.948 95.8325 138.491 98.0189 138.491 98.5153C138.491 99.9749 138.112 100.779 137.423 100.779C137.048 100.779 136.654 100.483 136.239 100.173C135.813 99.8538 135.372 99.5199 134.966 99.5199C134.781 99.5199 134.59 99.5317 134.406 99.5435C133.708 99.5879 132.986 99.6322 132.67 99.0087C132.491 98.6571 132.631 98.1667 132.792 97.5994C132.983 96.9228 133.198 96.1575 132.927 95.4838C132.402 94.1838 128.325 83.2752 127.798 81.6206C127.488 80.6426 127.452 76.5179 127.419 72.8777C127.398 70.4962 127.38 68.2507 127.276 67.8046C127.189 67.4382 127.106 67.3998 127.106 67.3998C127.058 67.4086 126.936 67.58 126.867 67.7425C126.864 67.7543 126.858 67.7632 126.852 67.772L126.42 68.3718C126.038 68.9007 123.957 80.8198 123.766 83.5559C123.668 84.9505 122.737 87.8697 121.914 90.4461C121.258 92.4967 120.641 94.4349 120.563 95.2209C120.477 96.1132 120.477 96.9109 120.477 97.5551C120.477 98.2169 120.477 98.7428 120.388 99.1033C120.256 99.6263 119.654 99.5524 119.016 99.4756C118.583 99.4224 118.094 99.3633 117.683 99.4667C117.149 99.5997 116.806 100.013 116.529 100.347C116.308 100.607 116.117 100.841 115.876 100.841ZM121.02 45.5205C121.041 45.5205 121.061 45.5234 121.082 45.5323C121.127 45.553 121.157 45.5914 121.166 45.6387C121.178 45.7037 122.469 52.0237 122.639 52.6974C122.776 53.244 122.705 54.0388 122.663 54.5145C122.651 54.6534 122.639 54.7597 122.639 54.8188C122.639 54.8986 122.582 55.0168 122.233 55.717C121.315 57.5548 118.879 62.433 118.399 66.5813C117.802 71.7343 118.906 81.6235 118.917 81.724C118.92 81.7535 118.914 81.7831 118.903 81.8067C118.882 81.8451 116.926 85.6862 116.756 89.8907C116.645 92.6474 116.222 95.6611 115.942 97.6555C115.807 98.601 115.694 99.4165 115.715 99.5406C115.748 99.6735 115.739 99.842 115.727 100.002C115.706 100.359 115.718 100.516 115.858 100.542C115.962 100.56 116.132 100.353 116.299 100.152C116.586 99.8035 116.979 99.3278 117.611 99.1713C118.08 99.056 118.595 99.1181 119.052 99.1742C119.66 99.2481 120.033 99.2776 120.098 99.0235C120.182 98.6985 120.182 98.1903 120.182 97.5491C120.182 96.9021 120.182 96.0954 120.268 95.1884C120.346 94.3699 120.942 92.5085 121.631 90.3516C122.448 87.7928 123.375 84.8914 123.471 83.5322C123.62 81.3812 125.68 68.8889 126.181 68.1946L126.605 67.6066C126.667 67.4618 126.858 67.0807 127.139 67.0984C127.401 67.1191 127.511 67.4707 127.571 67.7307C127.681 68.2064 127.699 70.2628 127.723 72.8659C127.753 76.3051 127.789 80.5864 128.087 81.5201C128.615 83.1718 132.685 94.0656 133.21 95.3627C133.52 96.1309 133.278 96.9818 133.088 97.6673C132.95 98.1548 132.819 98.6158 132.947 98.8669C133.174 99.316 133.741 99.2806 134.397 99.2392C134.59 99.2274 134.784 99.2156 134.978 99.2156C135.485 99.2156 135.965 99.579 136.43 99.9276C136.803 100.208 137.158 100.474 137.432 100.474C138.127 100.474 138.202 99.0974 138.202 98.5065C138.202 98.0455 137.611 95.6552 136.985 93.129C136.09 89.5154 135.079 85.4202 134.978 83.8927C134.808 81.2837 134.212 79.2302 134.206 79.2095C134.2 79.1918 134.2 79.1741 134.2 79.1564C134.212 79.0323 135.321 66.8797 135.065 64.2649C134.811 61.6529 132.584 54.934 132.563 54.8661C132.554 54.8425 132.554 54.8188 132.557 54.7922L134.113 46.3271C134.122 46.2798 134.152 46.2414 134.197 46.2207C134.242 46.2001 134.292 46.203 134.334 46.2267C134.531 46.336 139.138 48.9243 140.784 51.0664C141.801 52.393 142.519 52.724 142.827 52.6028C143.068 52.5083 143.172 52.1123 143.113 51.5125C142.94 49.8107 138.819 44.7316 136.752 42.5983C135.339 41.1417 133.583 40.8462 132.3 40.6305C131.638 40.5182 131.117 40.4326 130.803 40.2139C129.995 39.6525 130.258 35.321 130.365 33.9323L127.485 36.4792C127.434 36.8899 127.124 39.3216 126.876 39.8948C126.7 40.2996 125.752 40.4857 124.222 40.7517C123.378 40.8994 122.502 41.053 121.944 41.2599C120.665 41.7356 117.889 44.0225 115.852 45.943C114.12 47.5769 112.599 51.7282 112.45 52.5851C112.73 52.3783 113.365 51.6839 113.935 51.0575C114.465 50.4755 115.065 49.8166 115.643 49.2463C117.283 47.6213 120.805 45.621 120.954 45.5353C120.969 45.5264 120.996 45.5205 121.02 45.5205Z" fill="#3F4553"/>
<path d="M132.807 98.938C133.153 99.6234 134.104 99.3664 134.969 99.3664C135.833 99.3664 136.734 100.625 137.426 100.625C138.118 100.625 138.344 99.6234 138.344 98.5095C138.344 97.3956 135.294 86.5431 135.121 83.884C134.948 81.2248 134.342 79.1683 134.342 79.1683C134.342 79.1683 135.467 66.9094 135.207 64.2502C135.165 63.8277 135.073 63.2988 134.948 62.7138L119.624 61.2365C118.992 62.9531 118.452 64.8175 118.249 66.5667C117.644 71.7964 118.768 81.7418 118.768 81.7418C118.768 81.7418 116.779 85.6006 116.606 89.8878C116.433 94.175 115.482 99.2334 115.568 99.5762C115.655 99.9189 115.395 100.604 115.828 100.69C116.26 100.776 116.606 99.5762 117.644 99.3191C118.681 99.062 120.065 99.7475 120.241 99.062C120.414 98.3766 120.241 97.0056 120.414 95.2033C120.587 93.4039 123.444 86.029 123.616 83.5442C123.789 81.0593 125.865 68.8831 126.3 68.2833C126.733 67.6836 126.733 67.6836 126.733 67.6836C126.733 67.6836 127.165 66.6553 127.424 67.7692C127.684 68.8831 127.424 79.9424 127.943 81.5734C128.462 83.2014 132.55 94.1396 133.069 95.4249C133.588 96.7072 132.461 98.2525 132.807 98.938Z" fill="#3F4553"/>
<path d="M115.876 100.841C115.852 100.841 115.825 100.838 115.801 100.832C115.384 100.749 115.411 100.306 115.432 99.9838C115.44 99.8449 115.449 99.7002 115.426 99.6086C115.39 99.4697 115.449 99.0088 115.646 97.6142C115.927 95.6257 116.35 92.6208 116.46 89.8789C116.624 85.8428 118.407 82.1376 118.619 81.7122C118.539 80.9883 117.525 71.557 118.103 66.5489C118.282 64.9977 118.747 63.1924 119.487 61.1832C119.511 61.1211 119.57 61.0827 119.642 61.0857L134.966 62.563C135.032 62.5689 135.085 62.6162 135.097 62.6782C135.231 63.3046 135.318 63.8276 135.36 64.2324C135.613 66.8355 134.569 78.3498 134.498 79.1505C134.569 79.4046 135.112 81.3901 135.273 83.8691C135.372 85.3701 136.424 89.6307 137.271 93.0551C137.954 95.8207 138.497 98.0071 138.497 98.5035C138.497 99.9631 138.118 100.767 137.429 100.767C137.053 100.767 136.66 100.471 136.245 100.161C135.819 99.842 135.378 99.5081 134.972 99.5081C134.787 99.5081 134.596 99.5199 134.411 99.5317C133.714 99.5761 132.992 99.6204 132.676 98.9969C132.497 98.6453 132.637 98.1549 132.798 97.5876C132.989 96.911 133.204 96.1457 132.932 95.472C132.408 94.172 128.331 83.2634 127.804 81.6088C127.493 80.6308 127.458 76.5061 127.425 72.8659C127.404 70.4845 127.386 68.2389 127.282 67.7928C127.195 67.4264 127.112 67.388 127.112 67.388C127.064 67.3968 126.942 67.5682 126.873 67.7307C126.87 67.7425 126.864 67.7514 126.858 67.7603L126.426 68.3601C126.044 68.8889 123.963 80.8081 123.772 83.5441C123.674 84.9387 122.743 87.8579 121.92 90.4343C121.264 92.4849 120.647 94.4231 120.569 95.2091C120.483 96.1014 120.483 96.8991 120.483 97.5433C120.483 98.2051 120.483 98.7281 120.393 99.0915C120.262 99.6145 119.66 99.5406 119.022 99.4638C118.589 99.4106 118.1 99.3515 117.689 99.4549C117.155 99.5879 116.812 100.002 116.535 100.335C116.308 100.607 116.117 100.841 115.876 100.841ZM119.728 61.393C119.022 63.3371 118.574 65.0833 118.399 66.5814C117.802 71.7343 118.905 81.6235 118.917 81.724C118.92 81.7535 118.914 81.7831 118.902 81.8067C118.882 81.8451 116.925 85.6862 116.756 89.8907C116.645 92.6474 116.222 95.6611 115.941 97.6555C115.807 98.601 115.694 99.4165 115.715 99.5406C115.748 99.6736 115.739 99.842 115.727 100.002C115.706 100.359 115.718 100.516 115.858 100.542C115.962 100.56 116.132 100.353 116.299 100.152C116.586 99.8036 116.979 99.3279 117.611 99.1713C118.079 99.056 118.595 99.1181 119.052 99.1742C119.66 99.2481 120.033 99.2776 120.098 99.0235C120.182 98.6985 120.182 98.1903 120.182 97.5492C120.182 96.9021 120.182 96.0955 120.268 95.1884C120.346 94.37 120.942 92.5085 121.631 90.3516C122.448 87.7929 123.375 84.8914 123.471 83.5322C123.62 81.3813 125.68 68.8889 126.181 68.1946L126.605 67.6066C126.667 67.4618 126.858 67.0807 127.139 67.0984C127.401 67.1191 127.511 67.4707 127.571 67.7307C127.681 68.2064 127.699 70.2629 127.723 72.8659C127.753 76.3051 127.789 80.5865 128.087 81.5201C128.615 83.1718 132.685 94.0656 133.21 95.3627C133.52 96.1309 133.278 96.9819 133.087 97.6674C132.95 98.1549 132.819 98.6158 132.947 98.8669C133.174 99.3161 133.741 99.2806 134.397 99.2392C134.59 99.2274 134.784 99.2156 134.978 99.2156C135.485 99.2156 135.965 99.579 136.43 99.9277C136.803 100.208 137.158 100.474 137.432 100.474C138.127 100.474 138.201 99.0974 138.201 98.5065C138.201 98.0456 137.611 95.6552 136.985 93.129C136.09 89.5154 135.079 85.4203 134.978 83.8927C134.808 81.2808 134.212 79.2303 134.206 79.2096C134.2 79.1918 134.2 79.1741 134.2 79.1564C134.212 79.0323 135.321 66.8798 135.064 64.2649C135.029 63.8926 134.951 63.4169 134.832 62.8496L119.728 61.393Z" fill="#3F4553"/>
<path d="M136.854 42.4978C134.692 40.27 131.749 40.6984 130.884 40.0986C130.252 39.6613 130.359 36.3964 130.46 34.662L129.903 34.142L127.335 36.4112C127.335 36.4112 126.989 39.2418 126.73 39.8416C126.471 40.4414 123.268 40.6127 121.884 41.1268C120.522 41.6321 117.656 44.0461 115.834 45.7539L117.626 47.828C119.251 46.6698 121.02 45.6711 121.02 45.6711C121.02 45.6711 122.32 52.0502 122.493 52.7387C122.666 53.4242 122.49 54.5676 122.49 54.8247C122.49 55.0138 120.507 58.4796 119.227 62.3827C121.708 63.5143 126.593 64.7996 135.148 63.7773C134.707 60.8699 132.7 54.8217 132.7 54.8217L134.256 46.3566C134.256 46.3566 135.753 47.1928 137.358 48.3037L139.833 45.9341C138.777 44.6045 137.677 43.3458 136.854 42.4978Z" fill="#9776A5"/>
<path d="M129.253 64.2974C124.303 64.2974 121.115 63.4022 119.168 62.5128C119.099 62.4803 119.067 62.4035 119.087 62.3326C120.021 59.4872 121.336 56.8517 121.968 55.5871C122.162 55.2 122.329 54.8632 122.344 54.7982C122.341 54.7539 122.353 54.6386 122.365 54.4879C122.406 54.03 122.475 53.2677 122.35 52.7683C122.195 52.1478 121.142 47.0067 120.915 45.8987C120.426 46.1824 119.019 47.0185 117.716 47.9434C117.653 47.9877 117.567 47.9788 117.516 47.9197L115.724 45.8485C115.673 45.7894 115.676 45.7008 115.736 45.6446C117.304 44.1732 120.352 41.5347 121.837 40.9851C122.421 40.7694 123.307 40.6128 124.166 40.4622C125.194 40.2819 126.477 40.0574 126.596 39.7796C126.843 39.2064 127.186 36.4172 127.189 36.3906C127.192 36.3552 127.21 36.3227 127.237 36.299L129.804 34.0298C129.861 33.9796 129.951 33.9796 130.007 34.0328L130.565 34.5528C130.598 34.5824 130.616 34.6267 130.613 34.6681C130.398 38.2491 130.657 39.7589 130.973 39.9746C131.233 40.1549 131.749 40.2406 132.348 40.341C133.672 40.5626 135.482 40.8669 136.964 42.3945C137.826 43.2809 138.941 44.5691 139.952 45.8426C140 45.9017 139.994 45.9874 139.94 46.0406L137.465 48.4102C137.414 48.4604 137.334 48.4663 137.277 48.425C136.019 47.5533 134.817 46.8472 134.37 46.5901L132.858 54.8129C133.025 55.3182 134.883 60.9852 135.3 63.7567C135.306 63.7951 135.297 63.8365 135.27 63.869C135.243 63.9015 135.211 63.9222 135.169 63.9251C132.962 64.1851 130.997 64.2974 129.253 64.2974ZM119.412 62.3001C122.022 63.4583 126.814 64.6017 134.978 63.6474C134.501 60.7311 132.581 54.9252 132.56 54.8661C132.551 54.8425 132.551 54.8189 132.554 54.7923L134.11 46.3272C134.119 46.2799 134.149 46.2415 134.194 46.2208C134.239 46.2001 134.289 46.2031 134.331 46.2267C134.346 46.2356 135.789 47.0422 137.343 48.1118L139.633 45.9194C138.652 44.6903 137.578 43.4552 136.746 42.5984C135.333 41.1417 133.577 40.8463 132.294 40.6306C131.632 40.5183 131.111 40.4326 130.797 40.214C130.282 39.8564 130.115 38.0068 130.308 34.7153L129.903 34.3342L127.479 36.4763C127.428 36.887 127.118 39.3187 126.87 39.8919C126.694 40.2967 125.746 40.4828 124.216 40.7488C123.372 40.8965 122.496 41.0501 121.938 41.257C120.707 41.7149 118.044 43.8896 116.04 45.7569L117.653 47.6213C119.237 46.5044 120.93 45.5442 120.945 45.5353C120.987 45.5117 121.038 45.5087 121.082 45.5294C121.127 45.5501 121.157 45.5885 121.166 45.6358C121.178 45.7008 122.469 52.0208 122.639 52.6945C122.776 53.2411 122.705 54.0359 122.663 54.5116C122.651 54.6504 122.639 54.7568 122.639 54.8159C122.639 54.8957 122.582 55.0139 122.233 55.7141C121.616 56.961 120.337 59.5227 119.412 62.3001Z" fill="#3F4553"/>
<path d="M132.64 40.5417C131.856 40.4057 131.218 40.326 130.884 40.0955C130.252 39.6582 130.359 36.3933 130.46 34.6589L129.903 34.1389L127.335 36.4081C127.335 36.4081 126.989 39.2386 126.73 39.8384C126.629 40.0689 126.089 40.2373 125.388 40.3851C125.964 42.0988 127.228 45.1657 128.889 45.1657C130.505 45.1687 131.931 42.279 132.64 40.5417Z" fill="#FED9CE"/>
<path d="M128.889 45.3166C127.145 45.3166 125.86 42.2585 125.245 40.4325C125.233 40.3912 125.236 40.3498 125.257 40.3114C125.278 40.276 125.314 40.2494 125.356 40.2405C126.301 40.0425 126.548 39.88 126.593 39.7796C126.841 39.2064 127.184 36.4172 127.186 36.3906C127.189 36.3551 127.207 36.3226 127.234 36.299L129.802 34.0298C129.858 33.9796 129.948 33.9796 130.004 34.0328L130.562 34.5528C130.595 34.5823 130.613 34.6266 130.61 34.668C130.395 38.2491 130.654 39.7589 130.971 39.9746C131.23 40.1548 131.749 40.2405 132.348 40.341L132.664 40.3941C132.709 40.403 132.748 40.4296 132.769 40.468C132.79 40.5064 132.792 40.5537 132.778 40.5951C131.898 42.749 130.508 45.3166 128.889 45.3166ZM125.582 40.4946C126.092 41.9719 127.333 45.0182 128.889 45.0182C130.365 45.0182 131.716 42.359 132.432 40.6541L132.3 40.6305C131.638 40.5182 131.114 40.4326 130.801 40.2139C130.285 39.8564 130.118 38.0068 130.312 34.7153L129.906 34.3341L127.482 36.4763C127.431 36.887 127.121 39.3186 126.873 39.8918C126.763 40.1371 126.387 40.3144 125.582 40.4946Z" fill="#3F4553"/>
<path d="M130.442 34.9721C130.123 34.9928 129.771 35.0726 129.524 35.1346C129.166 35.2233 128.474 35.5985 127.815 35.9856L127.338 36.4081C127.338 36.4081 127.198 37.5604 127.028 38.5502C127.624 38.3375 129.357 37.6668 130.389 36.6917C130.392 36.0831 130.416 35.4833 130.442 34.9721Z" fill="#C6FF00"/>
<path d="M130.442 34.9721C130.123 34.9928 129.771 35.0726 129.524 35.1346C129.166 35.2233 128.474 35.5985 127.815 35.9856L127.338 36.4081C127.338 36.4081 127.198 37.5604 127.028 38.5502C127.624 38.3375 129.357 37.6668 130.389 36.6917C130.392 36.0831 130.416 35.4833 130.442 34.9721Z" fill="#BFB2AA"/>
<path d="M127.073 78.9614C136.544 78.9614 144.222 71.3537 144.222 61.9691C144.222 52.5845 136.544 44.9769 127.073 44.9769C117.602 44.9769 109.924 52.5845 109.924 61.9691C109.924 71.3537 117.602 78.9614 127.073 78.9614Z" fill="#FA6E5A"/>
<path d="M132.712 76.0953C123.241 76.0953 115.563 68.4871 115.563 59.1031C115.563 53.6399 118.169 48.7824 122.212 45.6741C115.109 47.7513 109.924 54.2574 109.924 61.9691C109.924 71.3531 117.602 78.9613 127.073 78.9613C131.03 78.9613 134.671 77.6288 137.572 75.401C136.031 75.8501 134.399 76.0953 132.712 76.0953Z" fill="#E3604D"/>
<path d="M115.04 55.6817C114.739 55.6817 114.465 55.4749 114.396 55.1735C114.313 54.8189 114.537 54.4673 114.894 54.3875L119.624 53.3091L116.892 52.4641C116.543 52.3547 116.35 51.9884 116.457 51.6427C116.564 51.297 116.937 51.1049 117.286 51.2113L122.352 52.7802C122.638 52.8689 122.829 53.1348 122.817 53.4332C122.805 53.7287 122.597 53.9798 122.304 54.0478L115.19 55.6699C115.139 55.6787 115.088 55.6817 115.04 55.6817Z" fill="#3F4553"/>
<path d="M138.747 55.6818C138.696 55.6818 138.643 55.6759 138.592 55.6641L131.808 54.042C131.516 53.9711 131.31 53.717 131.301 53.4215C131.292 53.126 131.486 52.8601 131.775 52.7744L137.098 51.2055C137.45 51.1021 137.817 51.3 137.921 51.6487C138.025 51.9973 137.826 52.3608 137.477 52.4642L134.513 53.3388L138.905 54.3877C139.26 54.4734 139.48 54.8279 139.394 55.1795C139.316 55.4809 139.045 55.6818 138.747 55.6818Z" fill="#3F4553"/>
<path d="M113.973 58.4592C115.703 65.8163 120.912 71.1613 127.073 71.1613C133.233 71.1613 138.446 65.8163 140.172 58.4592L137.897 58.0839C130.618 56.8784 123.205 56.8932 115.932 58.1283L113.973 58.4592Z" fill="#3F4553"/>
<path d="M136.004 66.1589C133.743 64.6727 130.627 63.7538 127.18 63.7538C123.668 63.7538 120.498 64.7141 118.229 66.2505C120.617 68.9068 123.7 70.5171 127.073 70.5171C130.487 70.5171 133.603 68.8713 136.004 66.1589Z" fill="#4E5567"/>
<path d="M124.828 29.2374C124.828 29.2374 124.222 31.0367 123.703 32.0679C123.185 33.0961 123.963 36.2695 124.568 37.212C125.174 38.1545 126.298 37.9832 126.73 37.8975C127.163 37.8118 129.065 36.6122 129.76 35.9267C130.452 35.2412 130.798 34.8985 130.798 34.8985C130.798 34.8985 131.143 34.8985 131.489 34.213C131.835 33.5275 130.452 31.9852 129.241 30.0972C128.03 28.2121 127.511 28.2978 127.511 28.2978L124.828 29.2374Z" fill="#FED9CE"/>
<path d="M126.08 38.1131C125.183 38.1131 124.7 37.6877 124.443 37.2888C123.82 36.3167 123.018 33.0961 123.57 31.9999C124.079 30.9924 124.682 29.2078 124.688 29.1901C124.703 29.1457 124.735 29.1132 124.78 29.0985L127.464 28.1559C127.589 28.1352 128.168 28.1441 129.369 30.0174C129.691 30.5196 130.022 30.9894 130.341 31.4445C131.26 32.7534 131.922 33.6989 131.627 34.278C131.328 34.8689 131.012 35.0048 130.872 35.0373L129.867 36.0331C129.158 36.7363 127.225 37.9536 126.763 38.0452C126.51 38.0925 126.283 38.1131 126.08 38.1131ZM124.947 29.3526C124.831 29.6953 124.303 31.2081 123.838 32.1329C123.343 33.1109 124.13 36.2547 124.697 37.1322C125.081 37.732 125.758 37.9388 126.707 37.7527C127.079 37.6788 128.964 36.5088 129.659 35.8203L130.696 34.7921C130.723 34.7655 130.762 34.7478 130.801 34.7478C130.798 34.7478 131.069 34.7182 131.358 34.145C131.573 33.7225 130.887 32.7445 130.094 31.6129C129.775 31.1549 129.444 30.6822 129.116 30.1769C128.114 28.6168 127.616 28.4602 127.535 28.4455L124.947 29.3526Z" fill="#3F4553"/>
<path d="M125.436 33.5128C125.418 33.5128 125.4 33.5098 125.382 33.5039C124.478 33.1582 124.559 32.9248 124.583 32.851C124.642 32.6707 125.337 31.6543 125.549 31.347C125.597 31.2791 125.689 31.2613 125.755 31.3086C125.823 31.3559 125.841 31.4475 125.793 31.5125C125.397 32.0887 124.97 32.7328 124.878 32.91C124.952 32.9869 125.218 33.1257 125.486 33.2292C125.564 33.2587 125.603 33.3444 125.573 33.4212C125.552 33.4744 125.495 33.5128 125.436 33.5128Z" fill="#3F4553"/>
<path d="M128.457 32.1624C128.4 32.1624 128.346 32.1299 128.322 32.0767C128.185 31.7871 128.006 31.604 127.789 31.5301C127.496 31.4326 127.225 31.5596 127.222 31.5596C127.147 31.5951 127.058 31.5655 127.022 31.4946C126.986 31.4208 127.016 31.3321 127.088 31.2967C127.103 31.2878 127.473 31.1105 127.887 31.2524C128.182 31.3528 128.421 31.5892 128.594 31.9526C128.629 32.0265 128.597 32.1151 128.522 32.1506C128.498 32.1565 128.477 32.1624 128.457 32.1624Z" fill="#3F4553"/>
<path d="M125.257 31.341C125.209 31.341 125.164 31.3204 125.135 31.279C125.132 31.2731 124.992 31.0869 124.783 31.0633C124.649 31.0485 124.5 31.1106 124.347 31.2435C124.285 31.2967 124.192 31.2938 124.136 31.2317C124.082 31.1697 124.085 31.0781 124.148 31.0219C124.365 30.8269 124.589 30.7442 124.819 30.7678C125.161 30.8063 125.37 31.0929 125.376 31.1047C125.424 31.1726 125.406 31.2642 125.34 31.3115C125.317 31.3322 125.287 31.341 125.257 31.341Z" fill="#3F4553"/>
<path d="M128.931 31.2228C128.869 31.2228 128.812 31.1844 128.791 31.1224C128.374 29.9287 127.637 30.0941 127.607 30.103C127.527 30.1207 127.446 30.0764 127.425 29.9966C127.404 29.9169 127.452 29.8371 127.53 29.8164C127.539 29.8135 128.558 29.5623 129.071 31.0249C129.098 31.1017 129.056 31.1874 128.979 31.214C128.964 31.2199 128.946 31.2228 128.931 31.2228Z" fill="#3F4553"/>
<path d="M124.547 30.6347C124.523 30.6347 124.502 30.6288 124.481 30.62C124.407 30.5845 124.377 30.4959 124.416 30.422C124.583 30.0881 124.806 29.8902 125.081 29.8281C125.498 29.7336 125.868 30.0083 125.883 30.0202C125.948 30.0704 125.96 30.162 125.91 30.227C125.859 30.292 125.767 30.3038 125.701 30.2536C125.698 30.2506 125.424 30.0497 125.143 30.1147C124.961 30.1561 124.806 30.3038 124.681 30.552C124.654 30.6052 124.601 30.6347 124.547 30.6347Z" fill="#3F4553"/>
<path d="M124.902 34.1863C124.902 34.1863 125.967 34.597 127.329 33.8347C127.329 33.8347 126.62 34.8895 125.791 35.0077C124.962 35.123 124.902 34.1863 124.902 34.1863Z" fill="#3F4553"/>
<path d="M115.268 46.3861C115.268 46.3861 111.519 49.5033 110.92 51.5095C110.321 53.5157 110.771 58.1191 110.696 59.5284C110.622 60.9378 111.597 62.4979 112.044 62.7963C112.494 63.0947 112.569 62.5747 112.494 62.0547C112.42 61.5347 112.42 58.8607 112.42 58.8607C112.42 58.8607 113.094 60.7901 113.168 60.4207C113.243 60.0485 113.243 59.3807 112.945 58.3407C112.646 57.3006 111.895 55.8174 111.97 55.519C112.044 55.2205 114.442 50.7679 114.817 49.3555" fill="#FED9CE"/>
<path d="M112.274 63.0299C112.19 63.0299 112.086 63.0003 111.96 62.9176C111.489 62.6074 110.467 61 110.544 59.5198C110.565 59.1002 110.541 58.3822 110.511 57.549C110.443 55.5841 110.347 52.8925 110.774 51.4683C111.379 49.4444 115.011 46.4011 115.166 46.274C115.229 46.2208 115.324 46.2297 115.375 46.2917C115.428 46.3538 115.42 46.4483 115.357 46.4986C115.321 46.5281 111.638 49.6128 111.057 51.551C110.645 52.9309 110.738 55.593 110.806 57.5401C110.836 58.3793 110.86 59.1061 110.839 59.5375C110.768 60.8907 111.707 62.4005 112.122 62.6753C112.208 62.7315 112.268 62.7433 112.286 62.7344C112.342 62.699 112.399 62.4715 112.342 62.0785C112.268 61.5555 112.265 58.9761 112.265 58.8638C112.265 58.7929 112.318 58.7309 112.39 58.719C112.461 58.7072 112.533 58.7486 112.557 58.8165C112.715 59.2716 112.915 59.7827 113.055 60.0841C113.07 59.7384 113.028 59.1888 112.798 58.3852C112.67 57.9361 112.45 57.3924 112.256 56.9137C111.934 56.116 111.77 55.6905 111.82 55.4866C111.847 55.3803 112.041 54.9932 112.476 54.1305C113.204 52.6856 114.418 50.2687 114.671 49.3232C114.692 49.2434 114.775 49.1962 114.853 49.2169C114.933 49.2375 114.981 49.3173 114.96 49.3971C114.701 50.3721 113.523 52.7122 112.745 54.2605C112.432 54.8839 112.136 55.4689 112.113 55.5576C112.086 55.6876 112.336 56.3051 112.536 56.8015C112.733 57.289 112.953 57.8386 113.088 58.3024C113.425 59.4754 113.377 60.1521 113.314 60.4505C113.284 60.5953 113.18 60.613 113.147 60.6159C113.058 60.6218 112.936 60.6307 112.572 59.7059C112.578 60.5332 112.596 61.7121 112.64 62.0312C112.682 62.3149 112.712 62.8172 112.447 62.9797C112.408 63.0092 112.348 63.0299 112.274 63.0299Z" fill="#3F4553"/>
<path d="M112.247 62.9175C112.187 62.9175 112.128 62.8791 112.107 62.82C112.101 62.8082 111.624 61.4934 111.388 59.8506C111.376 59.7708 111.433 59.694 111.513 59.6822C111.594 59.6703 111.671 59.7265 111.683 59.8063C111.916 61.4165 112.384 62.7018 112.387 62.7166C112.414 62.7934 112.375 62.8791 112.298 62.9057C112.28 62.9146 112.262 62.9175 112.247 62.9175Z" fill="#3F4553"/>
<path d="M111.713 62.5631C111.659 62.5631 111.606 62.5335 111.579 62.4803C111.558 62.4419 111.093 61.5053 110.795 59.9718C110.78 59.8921 110.833 59.8152 110.914 59.7975C110.995 59.7827 111.072 59.833 111.09 59.9157C111.379 61.4078 111.844 62.3385 111.847 62.3474C111.883 62.4212 111.853 62.5099 111.782 62.5453C111.758 62.5601 111.734 62.5631 111.713 62.5631Z" fill="#3F4553"/>
<path d="M139.979 46.3861C139.979 46.3861 143.727 49.5033 144.327 51.5095C144.926 53.5157 144.476 58.1191 144.55 59.5284C144.625 60.9378 143.65 62.4979 143.202 62.7963C142.755 63.0947 142.678 62.5747 142.752 62.0547C142.827 61.5347 142.827 58.8607 142.827 58.8607C142.827 58.8607 142.153 60.7901 142.078 60.4207C142.004 60.0514 142.004 59.3807 142.302 58.3407C142.603 57.3006 143.352 55.8174 143.277 55.519C143.202 55.2205 140.805 50.7679 140.429 49.3555" fill="#FED9CE"/>
<path d="M142.973 63.0299C142.898 63.0299 142.842 63.0063 142.797 62.9797C142.535 62.8172 142.564 62.3149 142.603 62.0312C142.648 61.7121 142.666 60.5303 142.672 59.7059C142.308 60.6278 142.192 60.6218 142.096 60.6159C142.063 60.613 141.959 60.5953 141.929 60.4505C141.87 60.1521 141.819 59.4754 142.156 58.3024C142.29 57.8386 142.511 57.289 142.708 56.8015C142.907 56.3051 143.155 55.6876 143.128 55.5576C143.104 55.4719 142.809 54.8809 142.496 54.2575C141.718 52.7093 140.54 50.3692 140.283 49.3971C140.262 49.3173 140.31 49.2375 140.391 49.2169C140.468 49.1962 140.552 49.2434 140.573 49.3232C140.823 50.2658 142.04 52.6856 142.764 54.1275C143.2 54.9932 143.393 55.3803 143.42 55.4866C143.471 55.6905 143.307 56.116 142.985 56.9137C142.791 57.3924 142.573 57.9361 142.442 58.3852C142.21 59.1888 142.168 59.7384 142.186 60.0841C142.326 59.7798 142.523 59.2716 142.684 58.8165C142.708 58.7486 142.776 58.7072 142.851 58.719C142.922 58.7309 142.976 58.7929 142.976 58.8638C142.976 58.9731 142.976 61.5526 142.898 62.0785C142.842 62.4715 142.898 62.699 142.955 62.7344C142.973 62.7462 143.033 62.7344 143.119 62.6753C143.534 62.4005 144.473 60.8907 144.401 59.5375C144.377 59.1061 144.404 58.3793 144.434 57.5401C144.503 55.596 144.595 52.9309 144.184 51.551C143.602 49.6128 139.922 46.5311 139.884 46.4986C139.821 46.4454 139.812 46.3538 139.866 46.2917C139.919 46.2297 140.012 46.2208 140.075 46.274C140.23 46.4011 143.862 49.4444 144.467 51.4683C144.893 52.8925 144.798 55.5841 144.729 57.549C144.699 58.3822 144.676 59.1031 144.697 59.5198C144.774 61 143.751 62.6074 143.28 62.9176C143.158 63.0033 143.056 63.0299 142.973 63.0299Z" fill="#3F4553"/>
<path d="M142.978 62.7993C142.966 62.7993 142.955 62.7994 142.94 62.7934C142.859 62.7728 142.811 62.693 142.832 62.6132C142.838 62.5955 143.303 60.7931 143.303 59.5936C143.303 59.5108 143.369 59.4458 143.453 59.4458C143.536 59.4458 143.602 59.5108 143.602 59.5936C143.602 60.8316 143.142 62.6132 143.122 62.6871C143.107 62.755 143.044 62.7993 142.978 62.7993Z" fill="#3F4553"/>
<path d="M143.512 62.7403C143.495 62.7403 143.48 62.7373 143.462 62.7314C143.384 62.7048 143.345 62.6191 143.372 62.5423C143.378 62.5246 144.076 60.6188 144.076 59.889C144.076 59.8063 144.142 59.7413 144.225 59.7413C144.309 59.7413 144.374 59.8063 144.374 59.889C144.374 60.6691 143.682 62.563 143.653 62.6428C143.632 62.7048 143.572 62.7403 143.512 62.7403Z" fill="#3F4553"/>
<path d="M74.7067 109.391C88.211 109.391 99.1584 106.839 99.1584 103.692C99.1584 100.544 88.211 97.9921 74.7067 97.9921C61.2023 97.9921 50.2549 100.544 50.2549 103.692C50.2549 106.839 61.2023 109.391 74.7067 109.391Z" fill="#F4A17C"/>
<path d="M76.1167 109.393C90.4122 109.393 102.001 106.849 102.001 103.711C102.001 100.573 90.4122 98.0294 76.1167 98.0294C61.8212 98.0294 50.2324 100.573 50.2324 103.711C50.2324 106.849 61.8212 109.393 76.1167 109.393Z" fill="#4FC4E7"/>
<path d="M64.4319 99.7295C64.4319 99.7295 60.8059 101.618 60.123 102.596C59.4402 103.574 60.3496 104.351 61.7124 104.445C63.0751 104.54 68.6841 102.669 69.191 102.427C69.701 102.185 69.3312 100.716 68.9614 99.96C68.5947 99.2007 64.4319 99.7295 64.4319 99.7295Z" fill="#E49621"/>
<path d="M61.8168 104.596C61.7751 104.596 61.7363 104.596 61.7005 104.593C60.797 104.531 60.0843 104.173 59.8368 103.665C59.7175 103.417 59.646 103.015 59.9978 102.513C60.6956 101.517 64.2113 99.6793 64.3604 99.5995C64.3753 99.5906 64.3932 99.5847 64.4111 99.5847C65.1238 99.4931 68.6991 99.0854 69.0927 99.895C69.2985 100.317 69.4774 100.894 69.5489 101.363C69.6473 102.016 69.5489 102.418 69.2507 102.56C68.7498 102.799 63.3942 104.596 61.8168 104.596ZM64.4767 99.8713C64.1636 100.037 60.8715 101.78 60.2424 102.678C60.0247 102.988 59.9799 103.278 60.1052 103.535C60.305 103.949 60.9252 104.241 61.7214 104.297C63.0633 104.395 68.6216 102.533 69.1255 102.294C69.2806 102.22 69.3313 101.889 69.2567 101.408C69.1911 100.965 69.0211 100.421 68.8273 100.022C68.6066 99.567 66.1615 99.6615 64.4767 99.8713Z" fill="#3F4553"/>
<path d="M69.3784 101.227C67.9411 101.851 63.9751 103.532 62.6064 103.706C61.4912 103.848 60.4654 103.432 59.8988 103.133C59.8064 103.845 60.6115 104.368 61.7118 104.445C63.0746 104.54 68.6836 102.669 69.1905 102.427C69.4708 102.291 69.4827 101.783 69.3784 101.227Z" fill="#F1BD54"/>
<path d="M61.8163 104.596C61.7746 104.596 61.7358 104.596 61.7 104.593C60.9367 104.54 60.3105 104.283 59.9825 103.887C59.7946 103.659 59.7141 103.393 59.7469 103.116C59.7528 103.068 59.7827 103.024 59.8274 103.003C59.8691 102.98 59.9228 102.98 59.9646 103.003C60.4745 103.272 61.4943 103.701 62.5857 103.562C63.9514 103.387 68.0814 101.629 69.3159 101.095C69.3576 101.077 69.4053 101.077 69.4441 101.101C69.4829 101.121 69.5127 101.16 69.5216 101.204C69.6618 101.94 69.5693 102.409 69.2533 102.56C68.7493 102.799 63.3938 104.596 61.8163 104.596ZM60.051 103.376C60.0749 103.491 60.1286 103.597 60.2121 103.701C60.4834 104.029 61.047 104.25 61.7179 104.297C63.0598 104.395 68.6181 102.534 69.1221 102.294C69.2741 102.22 69.3218 101.901 69.2592 101.44C67.5744 102.167 63.9395 103.686 62.6215 103.854C61.5987 103.981 60.6385 103.65 60.051 103.376Z" fill="#3F4553"/>
<path d="M81.9926 99.7295C81.9926 99.7295 85.6186 101.618 86.3015 102.596C86.9844 103.574 86.0749 104.351 84.7121 104.445C83.3494 104.54 77.7404 102.669 77.2335 102.427C76.7236 102.185 77.0933 100.716 77.4631 99.96C77.8329 99.2007 81.9926 99.7295 81.9926 99.7295Z" fill="#E49621"/>
<path d="M84.6107 104.596C83.0303 104.596 77.6777 102.799 77.1708 102.56C76.8756 102.418 76.7742 102.016 76.8726 101.363C76.9442 100.894 77.1231 100.318 77.3289 99.895C77.7225 99.0825 81.2978 99.4932 82.0105 99.5848C82.0284 99.5877 82.0463 99.5936 82.0612 99.5995C82.2103 99.6764 85.7289 101.514 86.4237 102.513C86.7756 103.015 86.707 103.417 86.5848 103.665C86.3373 104.176 85.6246 104.531 84.721 104.593C84.6882 104.593 84.6495 104.596 84.6107 104.596ZM79.3357 99.697C78.4322 99.697 77.7135 99.7857 77.5972 100.022C77.4034 100.421 77.2334 100.965 77.1678 101.408C77.0933 101.889 77.144 102.22 77.299 102.294C77.7911 102.531 83.1019 104.303 84.5988 104.303C84.6376 104.303 84.6704 104.303 84.7032 104.3C85.4993 104.244 86.1166 103.952 86.3194 103.538C86.4446 103.281 86.3969 102.991 86.1822 102.681C85.556 101.783 82.261 100.04 81.9479 99.8743C81.1427 99.7709 80.1617 99.697 79.3357 99.697Z" fill="#3F4553"/>
<path d="M77.0481 101.228C78.4854 101.851 82.4513 103.532 83.82 103.707C84.9353 103.848 85.961 103.432 86.5276 103.133C86.62 103.845 85.8149 104.368 84.7146 104.445C83.3519 104.54 77.7429 102.669 77.2359 102.427C76.9527 102.291 76.9407 101.783 77.0481 101.228Z" fill="#F1BD54"/>
<path d="M84.6105 104.596C83.0301 104.596 77.6775 102.799 77.1706 102.56C76.8545 102.409 76.7621 101.94 76.9022 101.204C76.9112 101.16 76.938 101.121 76.9797 101.101C77.0215 101.08 77.0662 101.077 77.108 101.095C78.3425 101.629 82.4754 103.387 83.8382 103.562C84.9295 103.701 85.9494 103.272 86.4593 103.003C86.504 102.98 86.5547 102.98 86.5964 103.003C86.6412 103.027 86.671 103.068 86.6769 103.116C86.7127 103.393 86.6322 103.659 86.4414 103.887C86.1134 104.283 85.4872 104.54 84.7238 104.593C84.688 104.593 84.6492 104.596 84.6105 104.596ZM77.1646 101.44C77.099 101.901 77.1497 102.22 77.3018 102.294C77.7938 102.531 83.1046 104.3 84.6015 104.303C84.6403 104.303 84.6731 104.303 84.7059 104.3C85.3768 104.253 85.9404 104.029 86.2118 103.704C86.2953 103.603 86.3489 103.494 86.3728 103.379C85.7883 103.653 84.8311 103.987 83.7994 103.857C82.4814 103.686 78.8494 102.167 77.1646 101.44Z" fill="#3F4553"/>
<path d="M66.2268 62.7578C66.2268 62.7578 62.9259 76.9106 62.4666 78.9316C62.0074 80.9526 61.6705 83.2248 62.2072 84.5839C62.744 85.9431 64.4645 99.2804 64.4645 99.2804L69.4086 100.616C69.4086 100.616 69.4712 92.0474 69.3072 88.6791C69.1432 85.3108 68.9523 81.0531 68.9523 81.0531L74.2065 68.0792L75.0742 69.2167L79.0074 80.8463L76.6934 100.338L81.3959 99.1179C81.3959 99.1179 85.4364 86.7201 86.0954 84.1407C86.7514 81.5613 87.0675 79.8269 86.5546 78.6421C86.0417 77.4573 82.7139 64.2351 82.7139 64.2351L66.2268 62.7578Z" fill="#3F4553"/>
<path d="M69.4056 100.761C69.3937 100.761 69.3788 100.758 69.3668 100.755L64.4228 99.4193C64.3661 99.4045 64.3214 99.3543 64.3155 99.2952C64.2976 99.1622 62.5889 85.9608 62.0671 84.6341C61.6198 83.4966 61.7003 81.6204 62.3205 78.8962C62.7738 76.8988 66.048 62.8642 66.0808 62.7224C66.0986 62.6515 66.1642 62.6012 66.2388 62.6071L82.7199 64.0845C82.7825 64.0904 82.8362 64.1347 82.8511 64.1967C82.8839 64.3297 86.1819 77.4218 86.6859 78.58C87.2017 79.7678 86.9244 81.4608 86.2326 84.1732C85.5825 86.729 81.5719 99.0352 81.5331 99.1593C81.5182 99.2065 81.4794 99.2449 81.4287 99.2568L76.7262 100.477C76.6785 100.489 76.6278 100.477 76.5891 100.445C76.5503 100.412 76.5324 100.365 76.5384 100.315L78.8494 80.8581L74.9341 69.2817L74.2393 68.3717L69.1014 81.0767C69.1193 81.4727 69.2983 85.4703 69.4563 88.6702C69.6203 92.0031 69.5577 100.53 69.5577 100.616C69.5577 100.663 69.5368 100.705 69.498 100.731C69.4712 100.752 69.4384 100.761 69.4056 100.761ZM64.5987 99.1622L69.2595 100.421C69.2684 99.1327 69.3072 91.7283 69.1581 88.682C68.9941 85.3137 68.8033 81.056 68.8033 81.056C68.8033 81.0354 68.8062 81.0147 68.8152 80.994L74.0693 68.0201C74.0902 67.9698 74.1349 67.9344 74.1886 67.9285C74.2453 67.9226 74.296 67.9433 74.3288 67.9876L75.1965 69.1251C75.2054 69.1369 75.2144 69.1517 75.2174 69.1665L79.1505 80.796C79.1565 80.8167 79.1595 80.8374 79.1565 80.861L76.8664 100.137L81.2796 98.9908C81.6225 97.939 85.3291 86.5399 85.9493 84.0993C86.6232 81.452 86.8976 79.8033 86.4175 78.6953C85.9225 77.5577 82.9286 65.6918 82.5947 64.3681L66.3461 62.9115C66.0181 64.3208 63.0452 77.0643 62.6158 78.9582C62.0104 81.6233 61.924 83.4434 62.3504 84.5248C62.8633 85.8426 64.4288 97.8533 64.5987 99.1622Z" fill="#3F4553"/>
<path d="M78.2762 97.3775C78.2703 97.3775 78.2643 97.3775 78.2584 97.3775C78.1778 97.3687 78.1182 97.2948 78.1272 97.2121C78.145 97.0703 79.8477 83.0002 79.9372 82.2142C79.9849 81.8124 79.9968 81.6913 80.2741 81.6765C80.4053 81.6706 80.6827 81.6558 81.291 81.251C81.4371 81.1535 81.5325 81.0826 81.5922 81.0353C81.5116 81.0353 81.4103 81.0383 81.3238 81.0412C80.954 81.0531 80.4471 81.0708 80.0863 80.9142C79.2484 80.5508 77.0358 73.2232 76.6004 71.7547C76.5765 71.6779 76.6213 71.5952 76.7018 71.5715C76.7793 71.5479 76.8628 71.5922 76.8867 71.672C78.1301 75.8617 79.7165 80.4296 80.2056 80.6424C80.5067 80.7724 80.9749 80.7576 81.3148 80.7458C81.7055 80.7339 81.9231 80.7251 81.9828 80.9024C82.0335 81.056 81.9112 81.1949 81.4609 81.4963C80.784 81.9483 80.4531 81.966 80.292 81.9719C80.2861 81.9719 80.2801 81.9719 80.2741 81.9719C80.2622 82.0251 80.2503 82.1285 80.2384 82.2467C80.1489 83.0356 78.4432 97.1057 78.4253 97.2475C78.4164 97.3214 78.3508 97.3775 78.2762 97.3775Z" fill="#4E5567"/>
<path d="M69.119 94.2872C69.0444 94.2872 68.9788 94.2311 68.9699 94.1572L68.8446 93.1024C68.8357 93.0226 68.8953 92.9487 68.9758 92.9399C69.0564 92.931 69.1309 92.9901 69.1398 93.0699L69.2651 94.1247C69.274 94.2045 69.2144 94.2783 69.1339 94.2872C69.1309 94.2872 69.1249 94.2872 69.119 94.2872Z" fill="#4E5567"/>
<path d="M68.8119 91.6575C68.7374 91.6575 68.6718 91.6013 68.6629 91.5275L67.5506 82.0637C67.3538 82.0223 66.8976 81.9219 66.2982 81.7564C66.1908 81.7269 65.9642 81.6648 65.9553 81.4875C65.9433 81.2896 66.1789 81.195 66.6978 80.9882C67.1003 80.8287 67.6043 80.6277 68.0635 80.3411C68.6122 80.0014 69.9153 77.1767 71.6358 72.594C71.6656 72.5172 71.7491 72.4788 71.8267 72.5083C71.9042 72.5379 71.943 72.6206 71.9131 72.6974C70.6607 76.0303 69.0028 80.1048 68.2185 80.5923C67.7355 80.8907 67.1987 81.1064 66.8051 81.263C66.6351 81.3309 66.4503 81.4048 66.334 81.461C66.3459 81.4639 66.3578 81.4669 66.3727 81.4728C67.1689 81.6914 67.7057 81.7948 67.7116 81.7978C67.7742 81.8096 67.8249 81.8628 67.8309 81.9248L68.9551 91.495C68.964 91.5748 68.9044 91.6486 68.8239 91.6575C68.8239 91.6575 68.8179 91.6575 68.8119 91.6575Z" fill="#4E5567"/>
<path d="M72.3454 71.2495C72.3275 71.2495 72.3126 71.2465 72.2947 71.2406C72.2172 71.214 72.1784 71.1283 72.2053 71.0515C72.408 70.496 72.5273 70.1562 72.5273 70.1562C72.5542 70.0794 72.6406 70.038 72.7182 70.0646C72.7957 70.0912 72.8374 70.1769 72.8106 70.2537C72.8106 70.2537 72.6913 70.5935 72.4885 71.1519C72.4647 71.211 72.408 71.2495 72.3454 71.2495Z" fill="#4E5567"/>
<path d="M76.2129 39.7289C76.2129 39.7289 68.2124 38.4259 64.989 37.8527C61.7655 37.2795 58.9953 36.7388 58.9953 36.7388L57.5908 41.1974C57.5908 41.1974 63.987 43.3307 65.6718 43.83C67.3566 44.3294 68.0216 44.6012 68.0216 44.6012C68.0216 44.6012 68.2423 55.365 67.5504 57.6815C66.8586 59.9979 65.3021 64.6545 65.3021 64.6545L73.5441 69.2283L75.1991 66.6991L75.3273 69.0894C75.3273 69.0894 77.9186 68.9387 80.2534 68.1971C82.5883 67.4555 84.0017 66.5632 84.0017 66.5632L82.1499 58.5029L84.6756 48.1054C84.6756 48.1054 97.4025 45.5999 97.477 44.7873C97.5516 43.9748 95.7266 40.9965 95.7266 40.9965L78.4822 39.8826L76.2129 39.7289Z" fill="#FFF9F1"/>
<path d="M73.5447 69.3791C73.5209 69.3791 73.494 69.3732 73.4732 69.3614L65.2311 64.7876C65.1685 64.7521 65.1387 64.6783 65.1625 64.6133C65.1774 64.566 66.728 59.9331 67.4109 57.6432C68.052 55.4922 67.897 45.7921 67.8761 44.7047C67.6435 44.6161 66.9487 44.362 65.6307 43.972C63.9638 43.4786 57.6093 41.3601 57.5467 41.3394C57.4692 41.3128 57.4274 41.233 57.4513 41.1562L58.8558 36.6976C58.8796 36.6267 58.9512 36.5794 59.0257 36.5972C59.0526 36.6031 61.8317 37.1438 65.0164 37.7081C68.1623 38.2665 75.9571 39.537 76.2314 39.5843L78.4947 39.7409L95.7392 40.8548C95.7869 40.8578 95.8316 40.8844 95.8584 40.9257C96.0463 41.236 97.7072 43.972 97.6297 44.8082C97.6088 45.0238 97.5731 45.4227 91.0844 46.903C88.2307 47.553 85.3502 48.1322 84.8015 48.2415L82.3056 58.5148L84.1484 66.5397C84.1633 66.6017 84.1365 66.6638 84.0828 66.6963C84.0679 66.7052 82.6247 67.6093 80.2988 68.3479C77.9729 69.0866 75.3637 69.2462 75.3369 69.2462C75.2981 69.2491 75.2593 69.2343 75.2295 69.2078C75.1997 69.1812 75.1818 69.1457 75.1788 69.1043L75.0744 67.1661L73.67 69.3141C73.6401 69.3555 73.5924 69.3791 73.5447 69.3791ZM65.4816 64.5896L73.494 69.0364L75.0715 66.6254C75.1072 66.5722 75.1728 66.5486 75.2355 66.5633C75.2981 66.5811 75.3428 66.6342 75.3458 66.6992L75.4681 68.9389C76.0525 68.8946 78.2353 68.6907 80.2063 68.0643C82.1684 67.4409 83.4864 66.7022 83.8324 66.4983L82.0044 58.5444C81.9985 58.5207 81.9985 58.5001 82.0044 58.4764L84.5301 48.079C84.545 48.0228 84.5898 47.9815 84.6464 47.9696C90.5864 46.7996 97.0512 45.2809 97.3345 44.7668C97.3852 44.1729 96.1656 42.013 95.6408 41.1473L78.4738 40.0393L76.2016 39.8827C76.1956 39.8827 76.1927 39.8827 76.1867 39.8798C76.1062 39.868 68.1504 38.5679 64.9627 38.0036C62.1657 37.5072 59.6847 37.0285 59.0973 36.9163L57.7763 41.1119C58.7186 41.4251 64.1874 43.2422 65.7142 43.6972C67.387 44.1936 68.052 44.4625 68.0789 44.4743C68.1325 44.4979 68.1683 44.5481 68.1713 44.6072C68.1802 45.0475 68.383 55.4213 67.6942 57.7318C67.071 59.8149 65.7291 63.8539 65.4816 64.5896Z" fill="#3F4553"/>
<path d="M73.4128 39.1736L73.064 44.2763L77.2893 42.6365L81.7801 46.0698L81.637 39.3627L73.4128 39.1736Z" fill="white"/>
<path d="M81.7806 46.2175C81.7478 46.2175 81.715 46.2057 81.6881 46.188L77.2659 42.8078L73.1181 44.4181C73.0704 44.4359 73.0167 44.43 72.975 44.4004C72.9332 44.3709 72.9123 44.3206 72.9153 44.2704L73.2642 39.1677C73.2702 39.0879 73.3447 39.0318 73.4163 39.0288L81.6374 39.2179C81.718 39.2209 81.7806 39.2829 81.7836 39.3627L81.9267 46.0698C81.9267 46.1259 81.8969 46.1791 81.8462 46.2057C81.8253 46.2116 81.8044 46.2175 81.7806 46.2175ZM77.2898 42.4887C77.3226 42.4887 77.3554 42.5006 77.3822 42.5183L81.6255 45.7625L81.4913 39.5075L73.5535 39.3243L73.2284 44.0547L77.2361 42.5006C77.254 42.4917 77.2719 42.4887 77.2898 42.4887Z" fill="#3F4553"/>
<path d="M75.3634 66.3624C75.3604 66.3624 75.3544 66.3624 75.3514 66.3624C75.268 66.3565 75.2083 66.2856 75.2143 66.2028L76.8722 46.6607C76.8782 46.578 76.9527 46.5218 77.0332 46.5248C77.1167 46.5307 77.1764 46.6016 77.1704 46.6843L75.5125 66.2265C75.5035 66.3062 75.4379 66.3624 75.3634 66.3624Z" fill="#3F4553"/>
<path d="M84.6761 48.2561C84.6463 48.2561 84.6164 48.2472 84.5926 48.2295C84.5329 48.1881 84.5091 48.1113 84.5419 48.0433L86.5368 43.8713C86.5726 43.7975 86.662 43.7679 86.7366 43.8004C86.8111 43.8359 86.8439 43.9245 86.8082 43.9984L85.2218 47.3135L88.8418 43.4754C88.8985 43.4163 88.9909 43.4134 89.0536 43.4695C89.1132 43.5256 89.1162 43.6172 89.0595 43.6793L84.7864 48.2117C84.7566 48.2413 84.7148 48.2561 84.6761 48.2561Z" fill="#3F4553"/>
<path d="M68.022 44.7519C67.9773 44.7519 67.9325 44.7312 67.9027 44.6928L64.6286 40.4322C64.5779 40.3672 64.5898 40.2756 64.6554 40.2253C64.721 40.1751 64.8134 40.1869 64.8641 40.2519L67.4524 43.6173L66.5489 41.4368C66.5191 41.3629 66.5549 41.2742 66.6294 41.2447C66.704 41.2152 66.7934 41.2506 66.8233 41.3245L68.1562 44.5451C68.183 44.613 68.1562 44.6928 68.0936 44.7282C68.0727 44.743 68.0458 44.7519 68.022 44.7519Z" fill="#3F4553"/>
<path d="M75.3513 39.5873L77.0182 46.6726L80.0061 39.9862L78.4794 39.8887L76.2101 39.7321C76.2131 39.7292 75.8881 39.676 75.3513 39.5873Z" fill="white"/>
<path d="M77.0185 46.8203C77.0125 46.8203 77.0096 46.8203 77.0036 46.8203C76.941 46.8144 76.8873 46.7701 76.8724 46.708L75.2055 39.6227C75.1936 39.5754 75.2085 39.5252 75.2413 39.4868C75.2741 39.4484 75.3248 39.4336 75.3755 39.4425L76.2372 39.5843L80.0183 39.8384C80.066 39.8414 80.1107 39.868 80.1376 39.9093C80.1614 39.9507 80.1674 40.0009 80.1465 40.0452L77.1586 46.7316C77.1318 46.7848 77.0781 46.8203 77.0185 46.8203ZM75.5484 39.7704L77.0632 46.2087L79.7857 40.1191L76.2015 39.8768L75.5484 39.7704Z" fill="#3F4553"/>
<path d="M75.3513 39.5873L77.0182 46.6726L80.0061 39.9862L78.4794 39.8887L76.2101 39.7321C76.2131 39.7292 75.8881 39.676 75.3513 39.5873Z" fill="#C6FF00"/>
<path d="M75.3513 39.5873L77.0182 46.6726L80.0061 39.9862L78.4794 39.8887L76.2101 39.7321C76.2131 39.7292 75.8881 39.676 75.3513 39.5873Z" fill="#FED9CE"/>
<path d="M100.633 43.1713C100.633 43.1713 100.779 44.3503 100.117 44.8673C99.4578 45.3844 96.6697 46.2797 95.8885 45.8158C95.1072 45.3519 94.0009 42.8966 94.4333 41.1681C94.8657 39.4426 97.4778 40.0837 97.4778 40.0837C97.4778 40.0837 100.03 40.8933 100.633 43.1713Z" fill="white"/>
<path d="M96.5411 46.0906C96.2399 46.0906 95.9865 46.0463 95.8135 45.9429C94.9428 45.4258 93.8604 42.8523 94.2898 41.1327C94.4836 40.3586 95.1098 39.9095 96.1057 39.8297C96.8303 39.7736 97.4864 39.9302 97.5132 39.939C97.6295 39.9745 100.161 40.8018 100.775 43.1301C100.778 43.136 100.778 43.1419 100.778 43.1507C100.784 43.201 100.925 44.4183 100.209 44.9797C99.69 45.3904 97.7428 46.0906 96.5411 46.0906ZM96.4308 40.1163C95.7002 40.1163 94.7997 40.3084 94.576 41.2036C94.1556 42.8819 95.2648 45.2722 95.9656 45.6888C96.6723 46.1084 99.3739 45.2604 100.024 44.7522C100.582 44.3149 100.495 43.3044 100.486 43.198C99.9077 41.0352 97.4566 40.2345 97.4327 40.2256C97.4238 40.2227 96.9735 40.1163 96.4308 40.1163Z" fill="#575C69"/>
<path d="M98.2708 44.4212C97.0482 44.4891 95.9717 43.6205 95.6616 42.4475C94.8833 39.481 92.9868 32.4991 92.2652 32.0205C91.3467 31.4148 90.643 31.2611 90.6549 30.6997C90.6669 30.1413 90.7146 27.9017 90.7146 27.9017C90.7146 27.9017 91.1231 27.293 91.3945 27.8603C91.6658 28.4246 91.6002 28.8708 91.6002 28.8708C91.6002 28.8708 92.0505 27.621 92.0028 27.228C91.9551 26.835 91.8626 25.7714 91.8686 25.4907C91.8745 25.21 92.2473 24.9677 92.7989 25.5379C93.3506 26.1082 94.4271 27.3344 94.2183 27.9164C94.0096 28.4985 93.6369 31.3734 93.6369 31.3734C93.6369 31.3734 100.543 41.4192 100.412 42.3115C100.316 42.9527 99.7588 44.3384 98.2708 44.4212Z" fill="#FED9CE"/>
<path d="M98.1366 44.5718C96.9289 44.5718 95.8405 43.712 95.5184 42.4829C93.9261 36.411 92.6468 32.4488 92.1846 32.1415C91.9193 31.9672 91.6718 31.8313 91.4541 31.7102C90.8994 31.4029 90.4969 31.1813 90.5088 30.6967L90.5684 27.8987C90.5684 27.8721 90.5774 27.8425 90.5923 27.8189C90.6162 27.7805 90.8458 27.4495 91.141 27.4702C91.302 27.482 91.4332 27.5914 91.5316 27.7952C91.5942 27.9252 91.639 28.0523 91.6747 28.1675C91.7851 27.7864 91.8745 27.4052 91.8566 27.2457C91.8089 26.8645 91.7165 25.7861 91.7224 25.4877C91.7254 25.3045 91.8387 25.142 92.0087 25.077C92.1578 25.0179 92.4769 24.9883 92.9093 25.4374C93.5533 26.1022 94.597 27.3136 94.3614 27.9696C94.1736 28.4866 93.8486 30.939 93.7949 31.3408C95.0234 33.1284 100.695 41.4428 100.564 42.3381C100.456 43.0708 99.8392 44.4832 98.2857 44.5689C98.229 44.5718 98.1813 44.5718 98.1366 44.5718ZM90.8607 27.9518L90.804 30.7026C90.7981 30.9951 91.0575 31.1517 91.5972 31.4531C91.8209 31.5772 92.0743 31.7161 92.3487 31.8963C93.0494 32.3572 94.6149 37.8677 95.8077 42.409C96.1059 43.5525 97.1376 44.3354 98.2618 44.2734C99.6245 44.1966 100.167 42.9467 100.263 42.2938C100.352 41.6851 96.1685 35.3267 93.5116 31.459C93.4907 31.4295 93.4818 31.394 93.4877 31.3586C93.5027 31.2404 93.8635 28.463 94.0752 27.8691C94.2004 27.5175 93.6577 26.6429 92.6886 25.6413C92.4232 25.3665 92.2174 25.3104 92.1101 25.3517C92.0415 25.3783 92.0147 25.4433 92.0147 25.4936C92.0087 25.7595 92.0952 26.7995 92.1459 27.2102C92.1966 27.6268 91.7851 28.788 91.7374 28.921C91.7105 28.9919 91.636 29.0332 91.5614 29.0155C91.4869 28.9978 91.4392 28.9269 91.4511 28.8501C91.4511 28.8471 91.5048 28.4364 91.2602 27.9223C91.2155 27.8277 91.1618 27.7687 91.1171 27.7657C91.0545 27.7568 90.9322 27.8632 90.8607 27.9518Z" fill="#3F4553"/>
<path d="M93.0793 28.9743C93.0644 28.9743 93.0495 28.9713 93.0376 28.9684C92.96 28.9447 92.9123 28.862 92.9392 28.7852L93.2612 27.7185C93.1926 27.5649 93.0018 27.1158 92.9809 26.7051C92.969 26.4776 93.0614 26.3742 93.139 26.3269C93.3388 26.2058 93.6191 26.3594 93.6727 26.3889C93.7443 26.4303 93.7652 26.5219 93.7234 26.5899C93.6817 26.6608 93.5892 26.6844 93.5207 26.6431C93.4312 26.5899 93.3179 26.5633 93.291 26.578C93.291 26.578 93.2702 26.6017 93.2761 26.6903C93.3 27.1276 93.5505 27.6388 93.5535 27.6447C93.5713 27.6772 93.5743 27.7156 93.5624 27.7511L93.2225 28.8738C93.2016 28.9329 93.1419 28.9743 93.0793 28.9743Z" fill="#263238"/>
<path d="M92.5693 28.8412C92.5574 28.8412 92.5454 28.8412 92.5335 28.8382C92.453 28.8175 92.4053 28.7378 92.4232 28.6609L92.6737 27.6475C92.5991 27.4879 92.4023 26.9827 92.5186 26.4509C92.5723 26.2115 92.6796 26.052 92.8406 25.9811C93.0613 25.8806 93.279 25.9958 93.3029 26.0077C93.3744 26.0461 93.4013 26.1377 93.3625 26.2086C93.3237 26.2795 93.2343 26.3061 93.1597 26.2677C93.1567 26.2647 93.0464 26.2115 92.9629 26.2499C92.8764 26.2884 92.8317 26.4154 92.8108 26.5129C92.6945 27.0388 92.9599 27.5559 92.9629 27.5618C92.9808 27.5943 92.9838 27.6298 92.9748 27.6652L92.7124 28.7319C92.6975 28.7969 92.6349 28.8412 92.5693 28.8412Z" fill="#263238"/>
<path d="M92.1429 28.8116C92.134 28.8116 92.125 28.8116 92.1161 28.8086C92.0356 28.7938 91.9819 28.717 91.9938 28.6372L92.2354 27.287C92.1966 27.1333 92.0356 26.4656 92.0117 25.9869C91.9998 25.7623 92.0922 25.6294 92.1728 25.5555C92.3994 25.3457 92.7721 25.3871 92.8139 25.393C92.8944 25.4048 92.954 25.4757 92.9421 25.5585C92.9331 25.6383 92.8586 25.6973 92.7751 25.6855C92.6976 25.6767 92.4799 25.6737 92.3725 25.7712C92.3248 25.8155 92.304 25.8805 92.3069 25.9721C92.3338 26.4744 92.5276 27.2397 92.5306 27.2456C92.5366 27.2663 92.5366 27.287 92.5336 27.3076L92.2861 28.6875C92.2771 28.7613 92.2145 28.8116 92.1429 28.8116Z" fill="#263238"/>
<path d="M79.7314 41.2508C89.9436 41.2508 98.2223 33.0478 98.2223 22.9289C98.2223 12.81 89.9436 4.60707 79.7314 4.60707C69.5191 4.60707 61.2405 12.81 61.2405 22.9289C61.2405 33.0478 69.5191 41.2508 79.7314 41.2508Z" fill="#FA6E5A"/>
<path opacity="0.3" d="M66.9691 22.1844C67.3389 13.285 74.0602 6.13467 82.6213 4.83462C81.9235 4.7253 81.2138 4.65143 80.4922 4.62189C70.288 4.20528 61.6762 12.0617 61.2528 22.1696C60.8323 32.2805 68.7613 40.8135 78.9624 41.2331C80.185 41.2833 81.3808 41.2124 82.5467 41.0351C73.3982 39.611 66.5785 31.5802 66.9691 22.1844Z" fill="#AC3E2F"/>
<path d="M68.5259 24.5747C68.5259 24.5747 82.0966 22.8049 93.3265 25.5911C93.3265 25.5911 92.2739 36.7598 80.549 36.5027C70.3836 36.2811 68.5259 24.5747 68.5259 24.5747Z" fill="#3F4553"/>
<path d="M81.1125 18.772C80.6682 18.772 80.2835 18.4469 80.2268 17.9978C79.9435 15.8143 77.9397 14.1686 75.5631 14.1686C73.4459 14.1686 71.5822 15.4923 71.0306 17.3833C70.8934 17.8531 70.3954 18.1249 69.9213 17.989C69.4472 17.8531 69.1728 17.3626 69.31 16.8898C70.0823 14.2425 72.6527 12.3958 75.5631 12.3958C78.8343 12.3958 81.6015 14.7063 82.0011 17.7733C82.0637 18.2578 81.7178 18.704 81.2288 18.766C81.19 18.769 81.1512 18.772 81.1125 18.772Z" fill="#3F4553"/>
<path d="M94.1405 20.8755C93.6575 20.8755 93.2609 20.4944 93.246 20.0128C93.1923 18.0657 91.5731 16.4406 89.4798 16.2338C87.6161 16.0506 85.8538 17.0493 85.1978 18.6655C85.0129 19.1205 84.491 19.3391 84.0348 19.1589C83.5756 18.9757 83.3549 18.4616 83.5368 18.0066C84.4881 15.6606 87.0018 14.2069 89.6557 14.4698C92.6406 14.7653 94.9516 17.129 95.0321 19.9626C95.047 20.453 94.6564 20.8608 94.1614 20.8726C94.1584 20.8755 94.1495 20.8755 94.1405 20.8755Z" fill="#3F4553"/>
<path d="M70.2913 24.9176C70.4016 25.3608 71.2216 27.7866 76.0106 27.9846C81.2826 28.2003 86.5487 28.611 89.2891 28.5282C90.9292 28.478 91.7134 27.0804 92.0802 25.9636C83.7785 24.0814 74.4361 24.5601 70.2913 24.9176Z" fill="white"/>
<path d="M84.0558 35.6075C84.0588 32.9808 81.214 30.7589 77.6029 30.6112C75.6021 30.5284 73.7861 31.1046 72.5217 32.0767C74.3347 34.1361 76.9618 35.7995 80.731 35.8823C81.9536 35.9089 83.0569 35.8055 84.0558 35.6075Z" fill="#4E5567"/>
<path d="M63.9007 99.7945L69.8079 101.632L69.8556 99.2183L63.6621 97.9537L63.9007 99.7945Z" fill="#4E5567"/>
<path d="M69.8084 101.78C69.7935 101.78 69.7786 101.777 69.7637 101.774L63.8565 99.9362C63.7998 99.9185 63.7611 99.8712 63.7521 99.8151L63.5136 97.9714C63.5076 97.9241 63.5255 97.8768 63.5613 97.8443C63.5971 97.8118 63.6448 97.7971 63.6925 97.8089L69.886 99.0735C69.9575 99.0882 70.0052 99.1503 70.0052 99.2212L69.9575 101.635C69.9575 101.682 69.9337 101.724 69.8949 101.753C69.871 101.771 69.8412 101.78 69.8084 101.78ZM64.0354 99.6821L69.6623 101.431L69.7041 99.3364L63.8356 98.1369L64.0354 99.6821Z" fill="#3F4553"/>
<path d="M76.0342 100.152L76.7618 102.291L82.5795 99.9452L82.1412 97.9508L76.0342 100.152Z" fill="#4E5567"/>
<path d="M76.7619 102.436C76.7411 102.436 76.7202 102.43 76.6993 102.421C76.6606 102.404 76.6337 102.374 76.6188 102.336L75.8912 100.199C75.8644 100.123 75.9061 100.04 75.9807 100.013L82.0877 97.812C82.1294 97.7972 82.1741 97.8002 82.2099 97.8208C82.2487 97.8415 82.2755 97.877 82.2845 97.9183L82.7228 99.9127C82.7377 99.9837 82.6989 100.055 82.6333 100.081L76.8156 102.424C76.8007 102.433 76.7798 102.436 76.7619 102.436ZM76.2222 100.241L76.8514 102.093L82.4067 99.8566L82.031 98.1488L76.2222 100.241Z" fill="#3F4553"/>
<path d="M54.3502 38.4C54.3502 38.4 53.9536 39.5198 54.4874 40.1669C55.0211 40.814 57.5498 42.2765 58.4116 41.987C59.2734 41.7004 60.8836 39.5317 60.8359 37.7559C60.7852 35.9772 58.0955 36.0511 58.0955 36.0511C58.0955 36.0511 55.4297 36.3022 54.3502 38.4Z" fill="white"/>
<path d="M58.1578 42.1697C57.0426 42.1697 54.8479 40.8342 54.3708 40.2581C53.7923 39.5578 54.1889 38.3996 54.2068 38.3494C54.2098 38.3434 54.2128 38.3375 54.2157 38.3316C55.3191 36.1836 57.97 35.9147 58.0803 35.9029C59.0763 35.8822 60.94 36.2279 60.9847 37.7496C61.0354 39.5194 59.4222 41.8034 58.459 42.1254C58.3725 42.155 58.2712 42.1697 58.1578 42.1697ZM54.4871 38.4557C54.4543 38.5591 54.1531 39.5253 54.6034 40.0719C55.1282 40.7072 57.5853 42.1047 58.3666 41.8477C59.1419 41.5877 60.7372 39.4899 60.6895 37.7614C60.6448 36.1511 58.128 36.2013 58.1012 36.2013C58.0833 36.2013 55.5188 36.4672 54.4871 38.4557Z" fill="#3F4553"/>
<path d="M55.7723 39.9538C56.9531 40.2788 58.1906 39.6583 58.7453 38.5769C60.1438 35.8438 63.5014 29.4234 64.3095 29.1102C65.3383 28.7113 66.0569 28.7113 66.1673 28.1617C66.2776 27.6122 66.713 25.4168 66.713 25.4168C66.713 25.4168 66.4446 24.7373 66.0599 25.2337C65.6752 25.7271 65.6424 26.1791 65.6424 26.1791C65.6424 26.1791 65.4725 24.8643 65.6037 24.4891C65.7349 24.1168 66.0539 23.0945 66.1076 22.8197C66.1613 22.5449 65.8512 22.2288 65.1892 22.669C64.5272 23.1093 63.2122 24.0784 63.2897 24.693C63.3702 25.3075 63.1108 28.1942 63.1108 28.1942C63.1108 28.1942 54.1978 36.547 54.1352 37.4482C54.0905 38.0894 54.335 39.5578 55.7723 39.9538Z" fill="#FED9CE"/>
<path d="M56.4135 40.1902C56.1869 40.1902 55.9602 40.1607 55.7336 40.0986C54.2337 39.685 53.9355 38.1781 53.9862 37.4365C54.0488 36.5323 61.3814 29.6096 62.9677 28.1234C63.0035 27.7186 63.2123 25.2544 63.1407 24.7107C63.0512 24.0223 64.3335 23.0591 65.1028 22.545C65.6246 22.1993 65.9258 22.2968 66.06 22.3854C66.2121 22.4859 66.2866 22.6661 66.2508 22.8493C66.1942 23.1418 65.8692 24.1759 65.7409 24.5394C65.6873 24.693 65.6932 25.083 65.7201 25.4789C65.7767 25.3726 65.8483 25.2603 65.9377 25.1451C66.0749 24.9678 66.227 24.888 66.388 24.9116C66.6773 24.953 66.8323 25.3253 66.8472 25.3667C66.8562 25.3932 66.8592 25.4198 66.8532 25.4494L66.3135 28.1884C66.218 28.6641 65.7797 28.7941 65.1714 28.9773C64.9328 29.0482 64.6615 29.1309 64.3633 29.2461C63.8444 29.447 61.7422 33.0488 58.8795 38.642C58.3875 39.6052 57.4154 40.1902 56.4135 40.1902ZM55.8141 39.812C56.8965 40.1104 58.0744 39.5638 58.6141 38.509C60.7552 34.3252 63.4717 29.2727 64.2559 28.9713C64.5631 28.8532 64.8404 28.7704 65.0849 28.6966C65.6783 28.5193 65.9646 28.4218 66.0212 28.1322L66.558 25.4317C66.5103 25.3312 66.4208 25.2071 66.3492 25.1982C66.3015 25.1894 66.2419 25.2367 66.1763 25.3194C65.8244 25.7685 65.7886 26.1821 65.7886 26.1851C65.7827 26.2619 65.7201 26.321 65.6425 26.321C65.5561 26.324 65.4994 26.2678 65.4905 26.191C65.4726 26.0521 65.3205 24.8289 65.4606 24.433C65.5978 24.043 65.9079 23.0443 65.9586 22.7843C65.9676 22.7341 65.9586 22.6661 65.896 22.6247C65.8006 22.5627 65.5889 22.5715 65.2698 22.7843C64.1068 23.5584 63.3882 24.2971 63.4359 24.6664C63.5164 25.2898 63.2689 28.079 63.26 28.2002C63.257 28.2356 63.2391 28.2711 63.2152 28.2947C59.786 31.5094 54.3291 36.8396 54.2874 37.4512C54.2367 38.1131 54.4991 39.4515 55.8141 39.812Z" fill="#3F4553"/>
<path d="M64.4915 26.1201C64.4885 26.1201 64.4855 26.1201 64.4855 26.1201C64.402 26.1171 64.3394 26.0462 64.3454 25.9664C64.3454 25.9576 64.3841 25.1539 64.3633 24.7609C64.3394 24.3354 64.9775 22.7872 65.0521 22.6129C65.0819 22.5361 65.1714 22.5006 65.2459 22.5331C65.3204 22.5627 65.3592 22.6513 65.3264 22.7252C65.061 23.3634 64.6465 24.4743 64.6614 24.7461C64.6823 25.1539 64.6436 25.9487 64.6436 25.9812C64.6376 26.058 64.572 26.1201 64.4915 26.1201Z" fill="#263238"/>
<path d="M63.9964 25.9546L63.6982 25.9486C63.6982 25.9486 63.7191 25.0859 63.734 24.7638C63.7489 24.4359 64.0799 23.4195 64.1157 23.3072C64.1396 23.2304 64.226 23.186 64.3036 23.2126C64.3811 23.2363 64.4258 23.322 64.399 23.3988C64.3006 23.7002 64.0412 24.5334 64.0292 24.7786C64.0173 25.0977 63.9964 25.9546 63.9964 25.9546Z" fill="#263238"/>
</g>
</svg>
