<svg width="132" height="117" viewBox="0 0 132 117" fill="none" xmlns="http://www.w3.org/2000/svg">
<g clip-path="url(#clip0_597_2)">
<path d="M112.621 13.5449C112.621 13.5449 113.974 14.2332 114.775 15.7696C115.577 17.306 117.73 14.9693 115.941 13.6534C114.156 12.3388 112.621 13.5449 112.621 13.5449Z" fill="#F5E2D5"/>
<path d="M111.325 12.9129C111.325 12.9129 112.651 12.189 114.376 12.3983C116.102 12.6076 115.348 9.51537 113.259 10.2404C111.172 10.9701 111.325 12.9129 111.325 12.9129Z" fill="#F5E2D5"/>
<path d="M90.4832 12.3791C90.4832 12.3791 89.1192 13.0265 88.2897 14.541C87.4615 16.0521 85.3497 13.6525 87.1611 12.3907C88.9691 11.1276 90.4832 12.3791 90.4832 12.3791Z" fill="#F5E2D5"/>
<path d="M91.7917 11.7887C91.7917 11.7887 90.4789 11.0259 88.7485 11.1847C87.018 11.3435 87.8271 8.27496 89.9055 9.06115C91.9804 9.84604 91.7917 11.7887 91.7917 11.7887Z" fill="#F5E2D5"/>
<path d="M108.634 28.7804C113.579 24.9341 114.424 17.8158 110.521 12.8812C106.618 7.94669 99.4449 7.06453 94.4997 10.9109C89.5545 14.7572 88.7097 21.8755 92.6127 26.8101C96.5157 31.7446 103.689 32.6268 108.634 28.7804Z" fill="#F5E2D5"/>
<path d="M93.9634 14.9236C93.7629 14.9027 93.5962 14.7504 93.5675 14.5448C93.5352 14.3068 93.7012 14.0849 93.9442 14.0556L97.1412 13.6347L95.3808 12.902C95.1561 12.8097 95.049 12.5512 95.1406 12.3286C95.2323 12.106 95.4919 12.0012 95.7165 12.0936L98.9796 13.4503C99.163 13.5271 99.2725 13.7164 99.2492 13.914C99.2225 14.1104 99.0705 14.2635 98.8719 14.29L94.0623 14.9219C94.0296 14.9252 93.9982 14.9251 93.9634 14.9236Z" fill="#3F4553"/>
<path d="M109.673 16.404C109.639 16.3991 109.606 16.3943 109.571 16.3813L105.171 14.881C104.983 14.8178 104.859 14.6349 104.871 14.4368C104.882 14.2386 105.027 14.0748 105.222 14.0355L108.842 13.3259C109.08 13.2791 109.313 13.433 109.362 13.6694C109.41 13.9058 109.257 14.1362 109.019 14.1831L107.003 14.5773L109.853 15.5487C110.083 15.6275 110.209 15.8774 110.131 16.1052C110.06 16.3044 109.871 16.4202 109.673 16.404Z" fill="#3F4553"/>
<path d="M93.0906 16.6987C93.7986 21.6898 96.9328 25.561 101.018 25.9456C105.099 26.3289 108.871 23.1059 110.452 18.3333L108.968 17.9422C104.216 16.6872 99.3026 16.2363 94.413 16.6005L93.0906 16.6987Z" fill="#3F4553"/>
<path d="M107.231 23.1855C105.822 22.0596 103.811 21.2519 101.529 21.0393C99.2009 20.8215 97.0431 21.2596 95.4498 22.14C96.8731 24.0506 98.8194 25.3129 101.055 25.5236C103.319 25.7331 105.481 24.8367 107.231 23.1855Z" fill="#4E5567"/>
<path d="M21.037 36.7513C24.7889 31.7481 23.7278 24.6469 18.6671 20.8905C13.6063 17.1341 6.46224 18.1448 2.71036 23.1481C-1.04151 28.1514 0.019554 35.2526 5.08032 39.009C10.1411 42.7654 17.2851 41.7546 21.037 36.7513Z" fill="#F5E2D5"/>
<path d="M8.83265 21.4651C8.68402 21.3274 8.64534 21.1064 8.74824 20.927C8.86958 20.7195 9.1374 20.645 9.35053 20.7681L12.156 22.3694L11.2012 20.7285C11.0795 20.5191 11.153 20.2508 11.3631 20.1312C11.5732 20.0116 11.8439 20.0863 11.9656 20.2956L13.7358 23.3418C13.8367 23.5122 13.8057 23.7304 13.6671 23.869C13.5284 24.0077 13.3087 24.0379 13.1377 23.9385L8.91406 21.5308C8.88348 21.5076 8.85506 21.4892 8.83265 21.4651Z" fill="#3F4553"/>
<path d="M20.4492 32.1281C20.4234 32.1028 20.401 32.0788 20.3811 32.048L17.7949 28.2039C17.6844 28.0377 17.6991 27.8212 17.83 27.6718C17.9609 27.5224 18.1763 27.4828 18.3558 27.5698L21.6745 29.1967C21.894 29.3027 21.9835 29.5662 21.8781 29.7836C21.7727 30.001 21.5079 30.0883 21.2883 29.9823L19.4399 29.0762L21.117 31.5654C21.2529 31.7685 21.1992 32.0365 20.9955 32.1702C20.8181 32.2865 20.5944 32.2646 20.4492 32.1281Z" fill="#3F4553"/>
<path d="M11.5451 34.9072C9.9853 34.3201 8.72525 33.4486 7.77393 32.2998C5.26913 29.2732 5.86523 25.4545 5.89074 25.2927C5.93966 24.9957 6.2236 24.7948 6.52304 24.8452C6.82248 24.8956 7.02643 25.1788 6.97751 25.4759C6.97284 25.5092 6.44149 28.9783 8.63204 31.6179C10.2269 33.5425 12.8709 34.5805 16.4917 34.7048C16.7984 34.715 17.0371 34.9685 17.0252 35.2717C17.018 35.5728 16.763 35.8118 16.4576 35.7981C14.5852 35.7282 12.943 35.4334 11.5451 34.9072Z" fill="#3F4553"/>
<path d="M19.9205 92.2542C26.2213 89.4343 28.9962 82.0618 26.1186 75.7872C23.2409 69.5126 15.8004 66.712 9.49959 69.5319C3.19883 72.3518 0.423865 79.7244 3.30152 85.999C6.17917 92.2736 13.6197 95.0741 19.9205 92.2542Z" fill="#F5E2D5"/>
<path d="M6.65593 82.2112C6.65593 82.2112 15.8227 80.781 23.4941 82.4882C23.4941 82.4882 23.0158 90.0983 15.0598 90.1185C8.16228 90.1359 6.65593 82.2112 6.65593 82.2112Z" fill="#3F4553"/>
<path d="M9.38478 79.4836C9.13688 79.3903 8.94594 79.1665 8.91059 78.8844L8.43122 74.957C8.38146 74.5565 8.67113 74.1943 9.07405 74.1473C9.47697 74.1003 9.84352 74.3902 9.89327 74.7906L10.3726 78.718C10.4224 79.1185 10.1327 79.4808 9.72981 79.5277C9.60725 79.54 9.49152 79.5237 9.38478 79.4836Z" fill="#3F4553"/>
<path d="M19.7595 79.6376C19.4428 79.5183 19.2392 79.1924 19.291 78.8458L19.8983 74.8094C19.9578 74.4111 20.3315 74.1389 20.7329 74.2004C21.1343 74.2619 21.4107 74.6347 21.3512 75.0329L20.7439 79.0694C20.6844 79.4676 20.3107 79.7399 19.9093 79.6784C19.8538 79.6692 19.8043 79.6544 19.7595 79.6376Z" fill="#3F4553"/>
<path d="M17.4209 89.453C17.369 87.669 15.3927 86.2046 12.9401 86.1617C11.5801 86.1406 10.3603 86.5617 9.52665 87.2412C10.7992 88.6121 12.6158 89.6971 15.1736 89.6899C16.0028 89.6905 16.7433 89.603 17.4209 89.453Z" fill="#4E5567"/>
<path d="M119.697 70.7196C126.615 70.4258 131.95 64.6161 131.612 57.7433C131.275 50.8704 125.392 45.537 118.474 45.8307C111.555 46.1245 106.22 51.9342 106.558 58.807C106.896 65.6799 112.778 71.0133 119.697 70.7196Z" fill="#F5E2D5"/>
<path d="M119.608 61.4319C115.549 59.9039 113.348 56.4036 113.316 56.3526C113.212 56.1809 113.265 55.9556 113.437 55.853C113.61 55.7503 113.837 55.8047 113.941 55.9764C114.117 56.2608 118.33 62.9373 126.032 61.0845C126.231 61.0383 126.429 61.1596 126.478 61.3533C126.525 61.5504 126.408 61.7477 126.21 61.7938C123.651 62.4083 121.44 62.1213 119.608 61.4319Z" fill="#3F4553"/>
<path d="M125.285 56.511C125.016 57.2275 124.514 57.7046 124.163 57.5724C123.811 57.4402 123.747 56.754 124.018 56.0341C124.289 55.3142 124.79 54.8405 125.141 54.9727C125.492 55.1049 125.555 55.7946 125.285 56.511Z" fill="#3F4553"/>
<path d="M119.295 53.972C119.025 54.6884 118.523 55.1655 118.172 55.0333C117.821 54.9012 117.757 54.2149 118.028 53.495C118.298 52.7786 118.799 52.3014 119.151 52.4336C119.502 52.5658 119.566 53.2521 119.295 53.972Z" fill="#3F4553"/>
<path d="M71.0243 8.05834C71.7155 10.3804 74.3986 11.4457 76.4928 10.2281C79.1775 8.66269 82.4801 10.8646 82.0859 13.9486C81.7763 16.3533 83.7906 18.4184 86.1967 18.1522C89.2856 17.8148 91.4071 21.1733 89.7947 23.8279C88.5324 25.901 89.5407 28.6048 91.8467 29.3435C94.799 30.2963 95.3854 34.2268 92.8255 35.9937C90.8353 37.3725 90.6547 40.2499 92.4593 41.8707C94.7715 43.9449 93.7046 47.7711 90.6531 48.3453C88.2767 48.7942 86.9404 51.3498 87.9279 53.5657C89.2021 56.4012 86.6682 59.4627 83.6518 58.7482C81.2942 58.1866 79.0395 59.9829 79.0416 62.4033C79.0539 65.5152 75.4989 67.2833 73.0269 65.3945C71.1027 63.9247 68.3106 64.6442 67.3348 66.8622C66.0841 69.7081 62.1126 69.8755 60.6233 67.145C59.4611 65.0197 56.6173 64.5331 54.8272 66.1666C52.5293 68.2551 48.8383 66.7912 48.5823 63.6897C48.3839 61.2722 45.9839 59.6739 43.6867 60.4335C40.7359 61.4061 37.9585 58.5591 38.9914 55.6283C39.7969 53.3383 38.251 50.9001 35.8373 50.658C32.7523 50.3445 31.3632 46.6157 33.496 44.3534C35.1555 42.5931 34.7339 39.7314 32.6377 38.5285C29.9473 36.982 30.193 33.012 33.0593 31.8168C35.293 30.8819 36.0709 28.1041 34.6404 26.1456C32.8091 23.637 34.6456 20.1112 37.7473 20.1872C40.1651 20.2462 42.0073 18.0221 41.4914 15.65C40.8369 12.6087 43.9483 10.142 46.7505 11.4699C48.9391 12.5087 51.5197 11.2228 52.0192 8.84916C52.6578 5.80899 56.502 4.81624 58.5206 7.17283C60.0982 9.01391 62.9804 8.88973 64.3932 6.92287C66.2176 4.41428 70.1338 5.08157 71.0243 8.05834Z" fill="#4F3422"/>
<path d="M110.285 80.6453C107.615 71.7896 99.7031 65.561 90.4816 65.0471C69.3756 63.8622 33.3661 63.8547 25.8459 72.1432C28.4126 69.9219 23.388 74.851 25.8459 72.1432C14.3025 82.1254 12.8352 105.945 12.8352 105.945L40.1364 105.35L116.183 104.437C116.571 102.262 113.248 90.4866 110.285 80.6453Z" fill="#9BB168"/>
<path d="M74.3409 55.4083L72.3703 49.4441C73.9529 49.7935 75.6797 49.3746 76.9414 48.1693C78.964 46.2409 79.0451 43.0395 77.1194 41.0137C75.1937 38.988 71.9971 38.9066 69.9744 40.8351C69.8543 40.9521 69.741 41.0691 69.6345 41.1927L67.3095 34.1624C67.019 33.2921 66.1446 32.7627 65.2396 32.9118C60.7553 33.6496 48.2534 36.988 47.5512 51.2366C47.4995 52.3153 48.3592 53.2247 49.4422 53.2086L54.9787 53.1195L54.5959 56.9763C61.2887 58.1583 67.9249 57.3614 74.3409 55.4083Z" fill="#CFD9B5"/>
<path d="M74.3408 55.4083C67.9317 57.3681 61.2886 58.1583 54.6026 56.9762L53.4604 68.4989C52.8832 74.3044 56.3371 79.8534 61.8813 81.6491C62.1398 81.7334 62.405 81.8108 62.6701 81.8883C72.2685 84.5255 80.8835 75.197 77.7505 65.7312L74.3408 55.4083Z" fill="#9BB168"/>
<path d="M56.9257 37.4287C54.2122 38.8861 51.492 40.3367 48.7785 41.7941C48.4225 41.9824 48.3964 42.5049 48.6644 42.7721C49.4889 43.587 50.3066 44.3953 51.1311 45.2102C51.7013 45.7712 52.5615 44.8838 51.9912 44.3228C51.1667 43.5079 50.3491 42.6996 49.5246 41.8847C49.4888 42.2107 49.453 42.5366 49.4105 42.8627C52.1239 41.4054 54.8442 39.9547 57.5576 38.4974C58.2695 38.1139 57.6241 37.0522 56.9257 37.4287Z" fill="#4F3422"/>
<path d="M56.2897 47.0387C56.3736 47.6748 55.6377 48.2688 55.0503 47.9182C54.3606 47.5149 53.7538 48.5951 54.4435 48.9985C55.7754 49.7855 57.7346 48.6038 57.5351 47.0202C57.4895 46.6887 57.2687 46.4072 56.9032 46.4126C56.5985 46.4104 56.2508 46.7003 56.2897 47.0387Z" fill="#4F3422"/>
<path d="M74.391 43.2917C73.3337 43.6667 72.2764 44.0418 71.2191 44.4168C70.4716 44.6856 70.8142 45.8738 71.5685 45.6049C72.6258 45.2299 73.6831 44.8548 74.7404 44.4798C75.488 44.2178 75.1453 43.0228 74.391 43.2917Z" fill="#4F3422"/>
<path d="M59.397 41.1007C60.6213 43.7606 64.327 44.3904 66.4721 42.5008C67.0735 41.9698 66.1806 41.1084 65.586 41.6393C63.9822 43.0531 61.3314 42.3466 60.4639 40.4611C60.1282 39.7338 59.0681 40.3801 59.397 41.1007Z" fill="#4F3422"/>
<path d="M60.4195 41.5805C59.9729 42.0481 59.5194 42.5091 59.0727 42.9768C58.5193 43.5478 59.4055 44.416 59.9588 43.8383C60.4055 43.3706 60.859 42.9096 61.3056 42.4419C61.8658 41.8709 60.9797 41.0094 60.4195 41.5805Z" fill="#4F3422"/>
<path d="M62.4023 43.3409C62.4159 43.8018 62.4294 44.2558 62.443 44.7167C62.4617 45.5164 63.7071 45.4979 63.6817 44.6983C63.6681 44.2374 63.6545 43.7834 63.6409 43.3225C63.6156 42.5296 62.3769 42.5413 62.4023 43.3409Z" fill="#4F3422"/>
<path d="M64.8387 43.2912C64.9936 43.6957 65.1419 44.1071 65.2969 44.5116C65.4166 44.8217 65.7244 45.0341 66.0681 44.934C66.3715 44.8482 66.6097 44.4785 66.4899 44.1616C66.335 43.7571 66.1867 43.3458 66.0318 42.9413C65.912 42.6244 65.6043 42.4188 65.2605 42.5188C64.9572 42.6114 64.7258 42.981 64.8387 43.2912Z" fill="#4F3422"/>
<path d="M69.7791 88.7661C69.7968 89.9523 68.85 90.936 67.6588 90.9536C66.4743 90.9712 65.4921 90.0231 65.4744 88.83C65.4568 87.6438 66.4035 86.6602 67.5948 86.6425C68.786 86.6248 69.7614 87.5731 69.7791 88.7661Z" fill="#4F3422"/>
<path d="M38.5297 82.4232C31.6853 86.0708 24.8409 89.7184 17.9898 93.3662C16.418 94.2031 14.8463 95.0401 13.2746 95.877C10.6954 97.2578 8.60992 99.0584 7.50734 101.855C6.52862 104.33 6.45724 107.728 7.64433 110.165C8.87334 112.689 10.8776 114.992 13.6065 115.941C16.1991 116.838 19.3855 117.143 21.9044 115.804C26.1964 113.517 30.4952 111.229 34.7871 108.934C40.9598 105.643 47.1326 102.358 53.3053 99.0656C49.652 92.8551 46.0255 86.6239 42.5934 80.261C41.2367 80.9863 39.8798 81.7048 38.5297 82.4232Z" fill="#9BB168"/>
<path d="M60.0356 95.4807C62.6149 94.1067 64.7003 92.3062 65.8029 89.51C66.7816 87.0343 66.853 83.6364 65.6659 81.1997C64.4369 78.6754 62.4327 76.3729 59.7038 75.4235C57.1111 74.5264 59.3097 70.7715 56.791 72.1174C53.8491 73.6866 45.5288 78.6987 42.5868 80.2611C46.019 86.6308 49.6387 92.8621 53.2986 99.0657C53.9703 98.71 54.6487 98.3473 55.3204 97.9916C56.8921 97.1546 58.4639 96.3177 60.0356 95.4807Z" fill="#CFD9B5"/>
<path d="M60.9745 80.3066C61.7118 74.797 62.449 69.2807 63.1864 63.7711C63.3995 62.1679 62.2227 60.4225 60.5549 60.2642C58.8939 60.1058 57.2851 61.1807 57.0534 62.8994C56.3161 68.409 55.5788 73.9254 54.8415 79.4349C54.6284 81.0382 55.8052 82.7835 57.473 82.9418C59.1341 83.107 60.7428 82.0254 60.9745 80.3066Z" fill="#CFD9B5"/>
<path d="M61.2736 80.3835C61.8278 76.2191 62.3887 72.0478 62.9429 67.8834C63.2717 65.4106 64.527 61.5002 61.4542 60.1831C60.3708 59.7178 59.0471 59.9341 58.1026 60.6126C56.9304 61.4504 56.7659 62.6868 56.5896 64.0318C56.0355 68.203 55.4745 72.3675 54.9204 76.5387C54.8653 76.9327 55.4701 77.0865 55.5184 76.6925C55.9695 73.3297 56.4137 69.967 56.8647 66.6042C56.9746 65.7957 57.0777 64.9873 57.1876 64.1857C57.2851 63.4588 57.3004 62.6653 57.6629 62.0022C58.4078 60.6487 60.3225 60.1118 61.6216 60.9739C63.1738 62.0085 62.8875 63.701 62.6743 65.2975C62.4612 66.9075 62.2415 68.5244 62.0285 70.1344C61.5775 73.4973 61.1331 76.8532 60.6821 80.216C60.6205 80.6237 61.2185 80.7776 61.2736 80.3835Z" fill="#4F3422"/>
<path d="M62.6117 90.7168C63.8795 81.7279 65.1473 72.7323 66.4151 63.7435C66.6418 62.14 65.4784 60.3877 63.8037 60.216C62.1425 60.044 60.5268 61.1122 60.2816 62.8312C59.0137 71.82 57.7459 80.8156 56.4781 89.8044C56.2514 91.4079 57.4148 93.1602 59.0895 93.3319C60.7507 93.5039 62.3664 92.4358 62.6117 90.7168Z" fill="#CFD9B5"/>
<path d="M64.3484 81.8294C64.8112 78.3512 65.2809 74.8728 65.7438 71.4014C65.9752 69.6622 66.2067 67.9231 66.4381 66.184C66.6023 64.934 67.0214 63.5243 66.6305 62.2758C66.0192 60.3187 63.9403 59.3732 62.0699 60.1536C61.1279 60.5473 60.3883 61.3447 60.1119 62.332C59.6683 63.9183 59.6274 65.7224 59.408 67.3596C58.8777 71.3067 58.354 75.2469 57.8236 79.194C57.7685 79.5881 58.3734 79.7418 58.4217 79.3479C58.9212 75.6046 59.4207 71.8614 59.9203 68.1182C60.1518 66.3858 60.2948 64.6209 60.6145 62.9008C60.9217 61.2487 62.5896 60.051 64.2767 60.5954C66.2971 61.2502 66.1925 63.3264 65.9604 65.0181C65.7164 66.8252 65.4793 68.6322 65.2352 70.4326C64.7357 74.1758 64.2361 77.919 63.7367 81.669C63.6952 82.0629 64.2933 82.2235 64.3484 81.8294Z" fill="#4F3422"/>
<path d="M62.5906 66.0445C61.6949 72.7429 60.7992 79.4414 59.9036 86.1398C59.6904 87.743 60.8672 89.4884 62.535 89.6467C64.196 89.8051 65.8048 88.7302 66.0365 87.0115C66.9322 80.313 67.8279 73.6146 68.7236 66.9162C68.9367 65.3129 67.7599 63.5676 66.0921 63.4093C64.4311 63.2509 62.8223 64.3257 62.5906 66.0445Z" fill="#CFD9B5"/>
<path d="M65.8667 90.6142C66.8601 83.2024 67.8467 75.7907 68.8401 68.3789C69.0293 66.9862 69.2604 65.681 68.3825 64.4601C67.5806 63.3465 66.2534 62.8713 64.9176 63.1827C61.8007 63.907 62.0538 67.7339 61.7188 70.2475C61.2195 74.0043 60.7134 77.7612 60.2142 81.5247C60.1591 81.9188 60.7639 82.0725 60.8122 81.6786C61.1836 78.8797 61.5618 76.0807 61.9331 73.2818C62.1338 71.7533 62.3413 70.2247 62.5421 68.703C62.7065 67.4666 62.6472 65.7521 63.4787 64.7567C64.7293 63.2668 67.094 63.4012 68.0606 65.1225C68.8187 66.4808 68.2106 68.3815 68.0155 69.8353C67.5708 73.1641 67.1261 76.4997 66.6814 79.8286C66.2059 83.368 65.7373 86.9142 65.2618 90.4536C65.2135 90.8476 65.8116 91.0082 65.8667 90.6142Z" fill="#4F3422"/>
<path d="M92.7361 81.9366C99.6858 85.3793 106.636 88.8221 113.592 92.2647C115.188 93.0546 116.784 93.8445 118.38 94.6344C120.999 95.9311 123.137 97.669 124.322 100.431C125.374 102.877 125.546 106.271 124.432 108.742C123.278 111.302 121.343 113.669 118.644 114.693C116.079 115.666 112.903 116.066 110.346 114.802C105.987 112.643 101.623 110.484 97.2645 108.318C90.9967 105.211 84.7291 102.111 78.4613 99.0038C81.9285 92.6876 85.3683 86.3514 88.6099 79.8893C89.9876 80.574 91.3653 81.2586 92.7361 81.9366Z" fill="#9BB168"/>
<path d="M71.6277 95.6204C69.0088 94.3236 66.8707 92.5858 65.6856 89.8236C64.6338 87.3781 64.4615 83.9838 65.5757 81.5129C66.7292 78.9532 68.664 76.5854 71.3636 75.5622C73.9285 74.5884 71.6193 70.9005 74.1769 72.1711C77.1641 73.6522 85.6296 78.4148 88.6169 79.896C85.3754 86.3648 81.9424 92.7009 78.4683 99.0105C77.7863 98.6749 77.0975 98.3325 76.4155 97.9969C74.8196 97.207 73.2237 96.4171 71.6277 95.6204Z" fill="#CFD9B5"/>
<path d="M70.2385 80.4876C69.3379 75.0024 68.4372 69.5104 67.5365 64.0251C67.2758 62.4289 68.4003 60.6494 70.0626 60.4417C71.7182 60.234 73.3582 61.2605 73.6409 62.9717C74.5415 68.4569 75.4423 73.9489 76.3429 79.4342C76.6036 81.0304 75.4791 82.8099 73.8168 83.0177C72.1613 83.2253 70.5212 82.1988 70.2385 80.4876Z" fill="#CFD9B5"/>
<path d="M70.5352 80.4019C69.9845 77.0539 69.4407 73.7127 68.89 70.3647C68.6292 68.7617 68.3616 67.1521 68.1008 65.5491C67.8403 63.9596 67.4971 62.2765 69.0246 61.1961C70.2974 60.289 72.2205 60.7757 73.0121 62.1064C73.3939 62.7449 73.433 63.5511 73.552 64.2748C73.6858 65.0796 73.8129 65.8846 73.9466 66.6826C74.4973 70.0306 75.0412 73.3786 75.592 76.7266C75.6587 77.1188 76.2518 76.9405 76.1852 76.555C75.5074 72.4021 74.823 68.2561 74.1452 64.1033C73.9222 62.7641 73.7279 61.533 72.5313 60.7304C71.567 60.0803 70.2375 59.9034 69.1685 60.4007C66.1294 61.8086 67.5069 65.6731 67.9092 68.1419C68.5868 72.288 69.2713 76.4408 69.949 80.5869C70.002 80.9658 70.6019 80.7873 70.5352 80.4019Z" fill="#4F3422"/>
<path d="M68.9113 90.9418C67.377 81.9946 65.8426 73.0406 64.3083 64.0934C64.0341 62.4974 65.145 60.7113 66.8138 60.4899C68.4692 60.2687 70.1159 61.2884 70.4121 62.9993C71.9464 71.9465 73.4808 80.9005 75.0151 89.8477C75.2893 91.4437 74.1785 93.2298 72.5096 93.4512C70.8542 93.6725 69.2075 92.6528 68.9113 90.9418Z" fill="#CFD9B5"/>
<path d="M67.5047 81.9317C66.8942 78.205 66.2837 74.4782 65.6731 70.7447C65.3901 69.0132 65.1072 67.2818 64.8242 65.5503C64.5412 63.8188 64.2581 61.6263 66.3458 60.8833C67.9149 60.3244 69.67 61.3492 70.0456 62.937C70.4506 64.6802 70.6402 66.5012 70.9236 68.2666C71.5341 71.9933 72.1446 75.7201 72.7551 79.4468C72.8219 79.8391 73.415 79.6607 73.3483 79.2753C72.7824 75.8123 72.2097 72.3494 71.6438 68.8932C71.3608 67.1617 71.0778 65.4303 70.7949 63.6988C70.609 62.5828 70.378 61.6167 69.4532 60.8846C67.8364 59.6001 65.4186 59.9886 64.3826 61.8007C63.7624 62.8879 63.927 63.9432 64.1205 65.12C64.4035 66.8515 64.6864 68.583 64.9694 70.3145C65.6168 74.2441 66.2573 78.167 66.9046 82.0966C66.9716 82.5024 67.5715 82.324 67.5047 81.9317Z" fill="#4F3422"/>
<path d="M68.1995 66.2798C69.2937 72.9487 70.388 79.6176 71.4822 86.2864C71.7429 87.8826 70.6184 89.6621 68.9561 89.8699C67.3006 90.0776 65.6605 89.051 65.3778 87.3399C64.2836 80.671 63.1893 74.0021 62.0951 67.3333C61.8344 65.737 62.9589 63.9575 64.6212 63.7498C66.2768 63.5421 67.9168 64.5687 68.1995 66.2798Z" fill="#CFD9B5"/>
<path d="M66.2478 90.7577C65.1909 84.3255 64.1339 77.8866 63.0838 71.4544C62.8454 69.9867 62.3954 68.4069 62.3734 66.9224C62.3371 64.9363 64.239 63.5385 66.1109 64.2226C67.7582 64.8287 67.9098 66.3723 68.1556 67.8806C68.3939 69.3415 68.6323 70.8025 68.8774 72.2633C69.3987 75.4558 69.9268 78.6481 70.4482 81.8473C70.515 82.2396 71.1081 82.0613 71.0414 81.6758C70.4983 78.382 69.9619 75.0881 69.4187 71.7875C69.1579 70.1845 68.8904 68.5816 68.6296 66.9786C68.3992 65.5921 67.9752 64.3983 66.6253 63.7607C63.8642 62.4593 61.4161 64.9161 61.8431 67.6828C62.4045 71.295 63.0266 74.8928 63.615 78.4978C64.2926 82.6439 64.9769 86.7831 65.6546 90.9292C65.7147 91.3283 66.3146 91.1499 66.2478 90.7577Z" fill="#4F3422"/>
<path d="M15.1607 95.232C23.0439 90.8706 30.9338 86.5091 38.8169 82.1477C39.9315 81.5277 41.0462 80.9145 42.1608 80.2945C42.5099 80.0995 42.1906 79.5686 41.8415 79.7636C33.9584 84.1251 26.0685 88.4866 18.1853 92.848C17.0707 93.468 15.956 94.0812 14.8414 94.7011C14.4855 94.8963 14.8116 95.427 15.1607 95.232Z" fill="#4F3422"/>
<path d="M112.36 91.3134C105.464 87.8564 98.5747 84.3924 91.6789 80.9353C90.7172 80.4546 89.7554 79.9672 88.7869 79.4867C88.4322 79.3089 88.1221 79.8491 88.4835 80.0268C95.3793 83.4839 102.268 86.9478 109.164 90.4049C110.126 90.8856 111.088 91.373 112.056 91.8536C112.411 92.0314 112.714 91.4912 112.36 91.3134Z" fill="#4F3422"/>
<path d="M19.7133 89.0759C21.1812 89.4541 22.6491 89.8256 24.1238 90.2037C24.5111 90.2996 24.6646 89.7007 24.2773 89.6047C22.8094 89.2265 21.3416 88.8551 19.8669 88.477C19.4795 88.3742 19.3259 88.9732 19.7133 89.0759Z" fill="#4F3422"/>
<path d="M106.095 88.4436C107.261 88.0602 108.398 87.6026 109.507 87.0708C109.863 86.9028 109.544 86.3719 109.188 86.5399C108.126 87.0439 107.035 87.4804 105.924 87.8495C105.547 87.9704 105.718 88.5712 106.095 88.4436Z" fill="#4F3422"/>
<path d="M91.9048 30.9834C93.0786 33.4407 96.2037 33.2586 98.0842 31.7933C100.099 30.2176 102.1 26.8724 101.168 24.2488C100.475 22.2996 97.4659 21.1578 96.3692 23.4387C95.8963 24.4152 96.2993 25.5686 97.0614 26.2828C98.0362 27.1904 99.5073 27.3245 100.774 27.3463C103.774 27.4035 107.26 26.0025 107.67 22.6403C107.767 21.8591 106.57 21.5379 106.474 22.3258C106.171 24.7643 103.887 25.9509 101.635 26.086C100.566 26.1494 99.2397 26.1758 98.277 25.6274C97.7513 25.3301 97.3098 24.7739 97.4495 24.1549C97.5889 23.5155 98.3236 23.2944 98.8948 23.469C100.065 23.8313 100.256 25.2929 100.074 26.3126C99.8557 27.5363 99.19 28.753 98.4189 29.7137C97.1626 31.2714 94.1735 32.8616 92.9715 30.3302C92.6157 29.6236 91.5625 30.2698 91.9048 30.9834Z" fill="#4F3422"/>
<path d="M24.9021 15.4489C24.7223 18.3806 27.1966 20.8796 30.1433 20.5443C33.0223 20.2099 34.943 17.3406 34.1635 14.5384C33.8775 13.5189 33 12.3251 31.8322 13.0069C30.6643 13.6887 30.4402 15.4616 30.6204 16.659C31.1232 19.9737 34.2349 21.6293 37.1718 22.4535C37.9401 22.6726 38.2471 21.468 37.4857 21.2556C35.6502 20.7404 33.6822 19.9696 32.5746 18.325C32.0207 17.4992 31.68 16.4398 31.8276 15.4342C31.8585 15.2371 31.9029 15.0331 31.9746 14.8489C32.0525 14.624 32.3897 14.0834 32.7169 14.2345C33.0169 14.3724 33.0949 15.5239 33.0981 15.7408C33.1415 17.747 31.5407 19.3641 29.5364 19.3396C27.4442 19.3165 26.0217 17.4392 26.1408 15.4305C26.1899 14.6365 24.9513 14.6549 24.9021 15.4489Z" fill="#4F3422"/>
<path d="M26.6793 62.6252C28.2785 64.093 30.787 64.3338 32.6172 63.1269C33.6162 62.4679 34.2102 61.4421 34.6137 60.3445C35.0167 59.2198 35.5087 57.7073 34.8218 56.5853C34.343 55.7991 33.2389 55.3002 32.3933 55.801C31.5343 56.3087 31.4291 57.4289 31.7127 58.2926C32.4079 60.4315 34.9146 61.4655 37.0045 61.326C39.9735 61.1259 42.1872 58.8421 43.7571 56.5136C44.2008 55.8493 43.1223 55.2483 42.6784 55.9058C41.5325 57.6043 40.0409 59.2808 38.019 59.8939C36.3746 60.3929 34.2025 60.0116 33.1917 58.5011C33.0047 58.2191 32.706 57.7083 32.8022 57.3475C33.0842 56.2789 33.7202 57.1644 33.8408 57.5355C33.9543 57.8864 33.905 58.2125 33.8358 58.5661C33.6478 59.5859 33.2591 60.7646 32.5532 61.5481C31.2677 62.9706 28.9189 62.9987 27.5392 61.7242C26.9559 61.1905 26.089 62.0848 26.6793 62.6252Z" fill="#4F3422"/>
<path d="M77.6348 13.2689C76.4847 11.4961 76.6034 9.00603 78.1994 7.52461C79.5751 6.24987 82.9033 5.61735 84.0559 7.55966C84.4448 8.21832 84.1807 9.12399 83.2708 8.94089C82.5646 8.79544 82.2357 8.07486 82.1718 7.41814C82.0685 6.38911 82.4451 5.31227 82.9534 4.43687C83.9833 2.67232 85.8268 1.44487 87.8545 1.21813C88.6385 1.1319 88.6268 -0.10867 87.836 -0.0223424C85.3554 0.245028 83.1355 1.65435 81.8746 3.82236C80.8184 5.63476 80.1331 9.17734 82.7257 10.0677C83.6375 10.3796 84.7241 10.1533 85.2392 9.28455C85.8866 8.20369 85.3663 6.90287 84.4616 6.15694C82.5359 4.58546 79.5142 4.88798 77.6475 6.37342C75.3927 8.16973 75.0365 11.5379 76.5747 13.9084C77.0111 14.5799 78.0713 13.9404 77.6348 13.2689Z" fill="#4F3422"/>
</g>
<defs>
<clipPath id="clip0_597_2">
<rect width="132" height="117" fill="white"/>
</clipPath>
</defs>
</svg>
