<svg width="326" height="153" viewBox="0 0 326 153" fill="none" xmlns="http://www.w3.org/2000/svg">
<rect x="1" y="1" width="91" height="26" rx="13" fill="#FFD88D" stroke="black" stroke-width="2"/>
<path d="M30.316 20C30.316 19.3313 30.316 18.6882 30.316 18.0705C30.316 17.4528 30.316 16.7672 30.316 16.0135V11.9335C30.316 11.1628 30.316 10.463 30.316 9.834C30.316 9.205 30.316 8.55333 30.316 7.879H32.3135C32.3135 8.55333 32.3135 9.205 32.3135 9.834C32.3135 10.463 32.3135 11.1628 32.3135 11.9335V16.0135C32.3135 16.7672 32.3135 17.4528 32.3135 18.0705C32.3135 18.6882 32.3135 19.3313 32.3135 20H30.316ZM22.4365 20C22.4365 19.3313 22.4365 18.6882 22.4365 18.0705C22.4365 17.4528 22.4365 16.7672 22.4365 16.0135V11.9335C22.4365 11.1628 22.4365 10.463 22.4365 9.834C22.4365 9.205 22.4365 8.55333 22.4365 7.879H24.434C24.434 8.55333 24.434 9.205 24.434 9.834C24.434 10.463 24.434 11.1628 24.434 11.9335V16.0135C24.434 16.7672 24.434 17.4528 24.434 18.0705C24.434 18.6882 24.434 19.3313 24.434 20H22.4365ZM23.8135 14.7215V13.03H30.9875V14.7215H23.8135ZM37.065 20.1785C36.5833 20.1785 36.1527 20.0822 35.773 19.8895C35.3933 19.6912 35.093 19.4078 34.872 19.0395C34.6567 18.6655 34.549 18.2122 34.549 17.6795C34.549 17.2092 34.6283 16.8153 34.787 16.498C34.9513 16.175 35.1667 15.9115 35.433 15.7075C35.6993 15.5035 35.9968 15.3448 36.3255 15.2315C36.6542 15.1182 36.9857 15.036 37.32 14.985L39.8275 14.594C39.8502 14.1237 39.7793 13.7638 39.615 13.5145C39.4563 13.2652 39.2297 13.0952 38.935 13.0045C38.646 12.9138 38.3173 12.8685 37.949 12.8685C37.7563 12.8685 37.5467 12.8827 37.32 12.911C37.099 12.9393 36.8638 12.9875 36.6145 13.0555C36.3708 13.1178 36.113 13.1972 35.841 13.2935C35.5747 13.3842 35.2998 13.4947 35.0165 13.625L34.9145 12.01C35.1242 11.925 35.3593 11.8428 35.62 11.7635C35.8807 11.6842 36.1612 11.6133 36.4615 11.551C36.7675 11.483 37.082 11.432 37.405 11.398C37.728 11.364 38.0567 11.347 38.391 11.347C39.0597 11.347 39.632 11.4462 40.108 11.6445C40.584 11.8428 40.9495 12.1602 41.2045 12.5965C41.4595 13.0272 41.587 13.5882 41.587 14.2795C41.587 14.5515 41.587 14.8887 41.587 15.291C41.587 15.6933 41.587 16.0673 41.587 16.413V17.433C41.587 17.8353 41.587 18.2433 41.587 18.657C41.587 19.0707 41.587 19.5183 41.587 20H39.9465L39.8445 18.878H39.683C39.5187 19.0877 39.3118 19.2917 39.0625 19.49C38.8188 19.6883 38.527 19.8527 38.187 19.983C37.8527 20.1133 37.4787 20.1785 37.065 20.1785ZM37.66 18.7335C37.932 18.7335 38.1983 18.674 38.459 18.555C38.7253 18.4303 38.9718 18.2547 39.1985 18.028C39.4252 17.8013 39.6207 17.5265 39.785 17.2035V15.7075C39.7 15.7585 39.5895 15.8067 39.4535 15.852C39.3232 15.8973 39.1248 15.9483 38.8585 16.005C38.5922 16.0617 38.2182 16.1325 37.7365 16.2175C37.4588 16.2628 37.2208 16.345 37.0225 16.464C36.8242 16.583 36.6683 16.7388 36.555 16.9315C36.4473 17.1185 36.3935 17.3423 36.3935 17.603C36.3935 18.0167 36.5182 18.3085 36.7675 18.4785C37.0225 18.6485 37.32 18.7335 37.66 18.7335ZM44.0072 23.3235C44.0072 22.7058 44.0072 22.0967 44.0072 21.496C44.0072 20.901 44.0072 20.255 44.0072 19.558V15.444C44.0072 14.815 44.0072 14.1747 44.0072 13.523C44.0072 12.8657 44.0072 12.2083 44.0072 11.551L45.6392 11.449L45.6902 12.571H45.8602C46.0246 12.333 46.2342 12.1205 46.4892 11.9335C46.7442 11.7465 47.0332 11.602 47.3562 11.5C47.6849 11.3923 48.0419 11.3385 48.4272 11.3385C49.1922 11.3385 49.8382 11.5312 50.3652 11.9165C50.8979 12.3018 51.3002 12.8288 51.5722 13.4975C51.8499 14.1662 51.9887 14.917 51.9887 15.75C51.9887 16.5377 51.8584 17.2715 51.5977 17.9515C51.3427 18.6258 50.9546 19.1698 50.4332 19.5835C49.9119 19.9972 49.2546 20.204 48.4612 20.204C48.0929 20.204 47.7557 20.1558 47.4497 20.0595C47.1494 19.9632 46.8746 19.8243 46.6252 19.643C46.3816 19.4617 46.1606 19.2435 45.9622 18.9885H45.8262V19.6515C45.8262 20.3032 45.8262 20.9123 45.8262 21.479C45.8262 22.0513 45.8262 22.6463 45.8262 23.264L44.0072 23.3235ZM47.8407 18.6145C48.3677 18.6145 48.8012 18.4813 49.1412 18.215C49.4812 17.943 49.7306 17.5917 49.8892 17.161C50.0479 16.7247 50.1272 16.26 50.1272 15.767C50.1272 15.2513 50.0422 14.781 49.8722 14.356C49.7079 13.9253 49.4557 13.5825 49.1157 13.3275C48.7757 13.0725 48.3422 12.945 47.8152 12.945C47.5546 12.945 47.2996 12.9847 47.0502 13.064C46.8066 13.1377 46.5799 13.251 46.3702 13.404C46.1606 13.5513 45.9792 13.7383 45.8262 13.965V17.399C45.9736 17.6483 46.1436 17.8637 46.3362 18.045C46.5289 18.2263 46.7499 18.368 46.9992 18.47C47.2486 18.5663 47.5291 18.6145 47.8407 18.6145ZM54.0678 23.3235C54.0678 22.7058 54.0678 22.0967 54.0678 21.496C54.0678 20.901 54.0678 20.255 54.0678 19.558V15.444C54.0678 14.815 54.0678 14.1747 54.0678 13.523C54.0678 12.8657 54.0678 12.2083 54.0678 11.551L55.6998 11.449L55.7508 12.571H55.9208C56.0851 12.333 56.2948 12.1205 56.5498 11.9335C56.8048 11.7465 57.0938 11.602 57.4168 11.5C57.7455 11.3923 58.1025 11.3385 58.4878 11.3385C59.2528 11.3385 59.8988 11.5312 60.4258 11.9165C60.9585 12.3018 61.3608 12.8288 61.6328 13.4975C61.9105 14.1662 62.0493 14.917 62.0493 15.75C62.0493 16.5377 61.919 17.2715 61.6583 17.9515C61.4033 18.6258 61.0151 19.1698 60.4938 19.5835C59.9725 19.9972 59.3151 20.204 58.5218 20.204C58.1535 20.204 57.8163 20.1558 57.5103 20.0595C57.21 19.9632 56.9351 19.8243 56.6858 19.643C56.4421 19.4617 56.2211 19.2435 56.0228 18.9885H55.8868V19.6515C55.8868 20.3032 55.8868 20.9123 55.8868 21.479C55.8868 22.0513 55.8868 22.6463 55.8868 23.264L54.0678 23.3235ZM57.9013 18.6145C58.4283 18.6145 58.8618 18.4813 59.2018 18.215C59.5418 17.943 59.7911 17.5917 59.9498 17.161C60.1085 16.7247 60.1878 16.26 60.1878 15.767C60.1878 15.2513 60.1028 14.781 59.9328 14.356C59.7685 13.9253 59.5163 13.5825 59.1763 13.3275C58.8363 13.0725 58.4028 12.945 57.8758 12.945C57.6151 12.945 57.3601 12.9847 57.1108 13.064C56.8671 13.1377 56.6405 13.251 56.4308 13.404C56.2211 13.5513 56.0398 13.7383 55.8868 13.965V17.399C56.0341 17.6483 56.2041 17.8637 56.3968 18.045C56.5895 18.2263 56.8105 18.368 57.0598 18.47C57.3091 18.5663 57.5896 18.6145 57.9013 18.6145ZM64.7374 23.3235C64.9641 22.7568 65.1936 22.1845 65.4259 21.6065C65.6582 21.0285 65.8877 20.459 66.1144 19.898V20.2975C65.9047 19.7138 65.6922 19.1273 65.4769 18.538C65.2616 17.943 65.0519 17.365 64.8479 16.804L64.2954 15.2655C64.0744 14.6592 63.8477 14.0387 63.6154 13.404C63.3887 12.7693 63.1649 12.1517 62.9439 11.551L64.8989 11.483C65.1142 12.1743 65.3239 12.8487 65.5279 13.506C65.7319 14.1633 65.9387 14.8348 66.1484 15.5205L66.9304 18.079H67.1004L67.9589 15.512C68.1856 14.8433 68.4066 14.1832 68.6219 13.5315C68.8429 12.8742 69.0667 12.214 69.2934 11.551H71.2229C71.0472 12.0043 70.8744 12.4435 70.7044 12.8685C70.5401 13.2878 70.3587 13.7525 70.1604 14.2625C69.9621 14.7725 69.7241 15.3817 69.4464 16.09L68.5114 18.47C68.0921 19.5467 67.7351 20.4618 67.4404 21.2155C67.1457 21.9692 66.8766 22.652 66.6329 23.264L64.7374 23.3235Z" fill="black"/>
<rect x="235" y="1" width="91" height="26" rx="13" fill="#FFFA8A" fill-opacity="0.5"/>
<path d="M252.428 20C252.428 19.3313 252.428 18.6882 252.428 18.0705C252.428 17.4528 252.428 16.7672 252.428 16.0135V11.925C252.428 11.1657 252.428 10.4687 252.428 9.834C252.428 9.19933 252.428 8.54767 252.428 7.879H260.146V9.562C259.596 9.562 259.007 9.562 258.378 9.562C257.749 9.562 257.007 9.562 256.151 9.562H253.27L254.383 8.185C254.383 8.85367 254.383 9.50533 254.383 10.14C254.383 10.769 254.383 11.466 254.383 12.231V15.7075C254.383 16.4555 254.383 17.1412 254.383 17.7645C254.383 18.3822 254.383 19.0253 254.383 19.694L253.389 18.317H256.312C257.027 18.317 257.704 18.317 258.344 18.317C258.984 18.317 259.599 18.317 260.189 18.317V20H252.428ZM253.941 14.679V13.0555H256.245C257.015 13.0555 257.675 13.0555 258.225 13.0555C258.78 13.0555 259.316 13.0555 259.832 13.0555V14.679C259.293 14.679 258.746 14.679 258.191 14.679C257.641 14.679 256.99 14.679 256.236 14.679H253.941ZM261.544 20C261.788 19.6147 262 19.2803 262.181 18.997C262.363 18.708 262.533 18.436 262.691 18.181C262.856 17.926 263.031 17.654 263.218 17.365L264.442 15.4355L264.451 15.8945L263.244 14.084C263.057 13.795 262.878 13.5258 262.708 13.2765C262.538 13.0272 262.363 12.7665 262.181 12.4945C262 12.2168 261.79 11.9023 261.552 11.551L263.592 11.483C263.83 11.857 264.04 12.1998 264.221 12.5115C264.408 12.8175 264.607 13.1433 264.816 13.489L265.607 14.781H265.751L266.542 13.489C266.74 13.149 266.927 12.8317 267.103 12.537C267.284 12.2367 267.485 11.908 267.706 11.551H269.772C269.523 11.9193 269.307 12.2367 269.126 12.503C268.95 12.7637 268.78 13.013 268.616 13.251C268.457 13.4833 268.279 13.7412 268.08 14.0245L266.839 15.852L266.754 15.4185L268.14 17.382C268.429 17.7957 268.709 18.1952 268.981 18.5805C269.253 18.9658 269.585 19.439 269.976 20H267.791C267.57 19.6543 267.369 19.3398 267.188 19.0565C267.012 18.7732 266.814 18.4587 266.593 18.113L265.692 16.685H265.547L264.74 18.045C264.525 18.402 264.329 18.7278 264.153 19.0225C263.983 19.3115 263.788 19.6373 263.567 20H261.544ZM275.093 20.17C274.163 20.17 273.373 19.9802 272.721 19.6005C272.075 19.2152 271.582 18.691 271.242 18.028C270.902 17.365 270.732 16.6142 270.732 15.7755C270.732 14.9312 270.891 14.1747 271.208 13.506C271.531 12.8373 272.004 12.3103 272.628 11.925C273.257 11.5397 274.027 11.347 274.94 11.347C275.268 11.347 275.594 11.3753 275.917 11.432C276.246 11.483 276.555 11.5567 276.844 11.653C277.133 11.7437 277.388 11.8513 277.609 11.976L277.456 13.591C277.138 13.4097 276.841 13.2708 276.563 13.1745C276.291 13.0782 276.039 13.013 275.807 12.979C275.574 12.9393 275.362 12.9195 275.169 12.9195C274.387 12.9195 273.761 13.1745 273.291 13.6845C272.82 14.1888 272.585 14.8717 272.585 15.733C272.585 16.2883 272.693 16.7842 272.908 17.2205C273.123 17.6568 273.444 18.0025 273.869 18.2575C274.299 18.5125 274.832 18.64 275.467 18.64C275.699 18.64 275.931 18.6202 276.164 18.5805C276.396 18.5352 276.623 18.47 276.844 18.385C277.07 18.2943 277.288 18.181 277.498 18.045L277.626 19.6685C277.433 19.7592 277.212 19.8442 276.963 19.9235C276.713 19.9972 276.433 20.0567 276.121 20.102C275.809 20.1473 275.467 20.17 275.093 20.17ZM279.669 20C279.669 19.3823 279.669 18.7845 279.669 18.2065C279.669 17.6285 279.669 16.991 279.669 16.294V15.444C279.669 14.9227 279.669 14.4438 279.669 14.0075C279.669 13.5712 279.669 13.1547 279.669 12.758C279.669 12.3613 279.669 11.959 279.669 11.551L281.488 11.4915C281.488 11.9052 281.488 12.3132 281.488 12.7155C281.488 13.1178 281.488 13.54 281.488 13.982C281.488 14.424 281.488 14.9113 281.488 15.444V16.294C281.488 16.991 281.488 17.6285 281.488 18.2065C281.488 18.7845 281.488 19.3823 281.488 20H279.669ZM280.553 9.834C280.191 9.834 279.896 9.7405 279.669 9.5535C279.448 9.36083 279.338 9.0605 279.338 8.6525C279.338 8.27283 279.448 7.98383 279.669 7.7855C279.896 7.58717 280.196 7.488 280.57 7.488C280.95 7.488 281.247 7.59 281.463 7.794C281.684 7.998 281.794 8.28417 281.794 8.6525C281.794 9.0605 281.684 9.36083 281.463 9.5535C281.242 9.7405 280.939 9.834 280.553 9.834ZM287.483 20.204C286.9 20.204 286.401 20.1077 285.987 19.915C285.579 19.7223 285.268 19.422 285.052 19.014C284.843 18.606 284.738 18.079 284.738 17.433C284.738 16.9853 284.738 16.5377 284.738 16.09C284.738 15.6367 284.738 15.1862 284.738 14.7385C284.738 14.2852 284.738 13.8347 284.738 13.387C284.738 12.9393 284.738 12.4917 284.738 12.044C284.738 11.4433 284.738 10.888 284.738 10.378C284.738 9.868 284.738 9.34383 284.738 8.8055L286.531 8.4485C286.531 8.87917 286.531 9.27867 286.531 9.647C286.531 10.0153 286.531 10.3922 286.531 10.7775C286.531 11.1572 286.531 11.5793 286.531 12.044V16.9315C286.531 17.5095 286.647 17.9458 286.88 18.2405C287.112 18.5295 287.475 18.674 287.968 18.674C288.172 18.674 288.39 18.64 288.622 18.572C288.86 18.4983 289.078 18.3878 289.277 18.2405L289.404 19.7705C289.274 19.8555 289.107 19.932 288.903 20C288.704 20.0623 288.481 20.1105 288.231 20.1445C287.988 20.1842 287.738 20.204 287.483 20.204ZM283.199 12.9535V11.551H289.336V12.9535C288.781 12.9535 288.223 12.9535 287.662 12.9535C287.101 12.9535 286.554 12.9535 286.021 12.9535H285.248H283.199ZM295.043 20.1955C294.006 20.1955 293.153 20.0028 292.485 19.6175C291.816 19.2322 291.32 18.7052 290.997 18.0365C290.68 17.3678 290.521 16.6 290.521 15.733C290.521 14.8773 290.674 14.118 290.98 13.455C291.292 12.792 291.745 12.2763 292.34 11.908C292.935 11.534 293.655 11.347 294.499 11.347C295.23 11.347 295.859 11.4858 296.386 11.7635C296.913 12.0355 297.318 12.4435 297.602 12.9875C297.885 13.5315 298.027 14.2058 298.027 15.0105C298.027 15.2258 298.021 15.4213 298.01 15.597C298.004 15.767 297.987 15.937 297.959 16.107L296.369 15.41C296.38 15.325 296.389 15.2428 296.395 15.1635C296.4 15.0785 296.403 14.9992 296.403 14.9255C296.403 14.2285 296.227 13.6902 295.876 13.3105C295.53 12.9252 295.077 12.7325 294.516 12.7325C294.08 12.7325 293.7 12.8515 293.377 13.0895C293.054 13.3275 292.802 13.6533 292.621 14.067C292.445 14.4807 292.357 14.9567 292.357 15.495V15.767C292.357 16.3677 292.459 16.8833 292.663 17.314C292.873 17.7447 293.19 18.0762 293.615 18.3085C294.046 18.5408 294.587 18.657 295.239 18.657C295.488 18.657 295.76 18.6372 296.055 18.5975C296.355 18.5522 296.655 18.4842 296.956 18.3935C297.256 18.3028 297.539 18.1867 297.806 18.045L297.874 19.626C297.658 19.7393 297.406 19.8385 297.117 19.9235C296.828 20.0085 296.508 20.0737 296.157 20.119C295.811 20.17 295.44 20.1955 295.043 20.1955ZM291.252 16.107V14.866L296.871 14.798L297.959 15.2485V16.107H291.252ZM303.03 20.204C302.237 20.204 301.577 19.9972 301.05 19.5835C300.529 19.1698 300.138 18.6258 299.877 17.9515C299.622 17.2715 299.494 16.5377 299.494 15.75C299.494 14.917 299.63 14.1662 299.902 13.4975C300.18 12.8288 300.585 12.3018 301.118 11.9165C301.651 11.5312 302.297 11.3385 303.056 11.3385C303.424 11.3385 303.764 11.3867 304.076 11.483C304.388 11.5793 304.662 11.7125 304.9 11.8825C305.138 12.0525 305.337 12.2452 305.495 12.4605H305.665V11.6105C305.665 10.9022 305.665 10.2137 305.665 9.545C305.665 8.87067 305.665 8.20767 305.665 7.556L307.484 7.3605C307.484 8.0405 307.484 8.729 307.484 9.426C307.484 10.1173 307.484 10.8455 307.484 11.6105V16.294C307.484 16.991 307.484 17.6285 307.484 18.2065C307.484 18.7845 307.484 19.3823 307.484 20H305.92L305.818 18.861H305.665C305.45 19.15 305.209 19.3937 304.943 19.592C304.682 19.7903 304.393 19.9405 304.076 20.0425C303.759 20.1502 303.41 20.204 303.03 20.204ZM303.651 18.6145C303.957 18.6145 304.235 18.5663 304.484 18.47C304.733 18.368 304.954 18.2263 305.147 18.045C305.345 17.8637 305.518 17.6483 305.665 17.399V13.965C305.512 13.7383 305.331 13.5513 305.121 13.404C304.912 13.251 304.682 13.1377 304.433 13.064C304.184 12.9847 303.929 12.945 303.668 12.945C303.147 12.945 302.716 13.0725 302.376 13.3275C302.036 13.5825 301.781 13.9253 301.611 14.356C301.441 14.781 301.356 15.2513 301.356 15.767C301.356 16.26 301.435 16.7247 301.594 17.161C301.758 17.5917 302.008 17.943 302.342 18.215C302.682 18.4813 303.118 18.6145 303.651 18.6145Z" fill="black" fill-opacity="0.5"/>
<rect x="115" y="1" width="91" height="26" rx="13" fill="#BCCBFF" fill-opacity="0.5"/>
<path d="M153.075 20.1955C152.57 20.1955 152.057 20.1502 151.536 20.0595C151.02 19.9745 150.539 19.864 150.091 19.728C149.649 19.592 149.292 19.456 149.02 19.32L149.182 17.4585C149.573 17.6795 149.975 17.8693 150.389 18.028C150.808 18.181 151.23 18.3028 151.655 18.3935C152.086 18.4785 152.514 18.521 152.939 18.521C153.403 18.521 153.817 18.4615 154.18 18.3425C154.542 18.2178 154.826 18.028 155.03 17.773C155.239 17.5123 155.344 17.178 155.344 16.77C155.344 16.379 155.228 16.056 154.996 15.801C154.769 15.546 154.437 15.325 154.001 15.138C153.565 14.9453 153.043 14.7583 152.437 14.577C151.678 14.3447 151.029 14.0868 150.491 13.8035C149.952 13.5145 149.541 13.1547 149.258 12.724C148.98 12.2933 148.842 11.738 148.842 11.058C148.842 10.4007 148.992 9.81417 149.292 9.2985C149.598 8.78283 150.051 8.3805 150.652 8.0915C151.258 7.79683 152.015 7.6495 152.922 7.6495C153.284 7.6495 153.647 7.675 154.01 7.726C154.378 7.777 154.729 7.845 155.064 7.93C155.404 8.00933 155.712 8.10283 155.99 8.2105C156.268 8.31817 156.509 8.42867 156.713 8.542L156.534 10.395C156.188 10.1627 155.82 9.97 155.429 9.817C155.044 9.65833 154.661 9.53933 154.282 9.46C153.908 9.375 153.559 9.3325 153.236 9.3325C152.822 9.3325 152.443 9.392 152.097 9.511C151.751 9.63 151.474 9.81133 151.264 10.055C151.054 10.293 150.95 10.599 150.95 10.973C150.95 11.313 151.04 11.5992 151.222 11.8315C151.403 12.0638 151.689 12.2707 152.08 12.452C152.471 12.6333 152.975 12.8203 153.593 13.013C154.562 13.319 155.327 13.6307 155.888 13.948C156.449 14.2597 156.846 14.628 157.078 15.053C157.316 15.478 157.435 16.0107 157.435 16.651C157.435 17.3367 157.282 17.9458 156.976 18.4785C156.676 19.0112 156.203 19.4305 155.557 19.7365C154.916 20.0425 154.089 20.1955 153.075 20.1955ZM161.376 20.1785C160.894 20.1785 160.463 20.0822 160.084 19.8895C159.704 19.6912 159.404 19.4078 159.183 19.0395C158.967 18.6655 158.86 18.2122 158.86 17.6795C158.86 17.2092 158.939 16.8153 159.098 16.498C159.262 16.175 159.477 15.9115 159.744 15.7075C160.01 15.5035 160.307 15.3448 160.636 15.2315C160.965 15.1182 161.296 15.036 161.631 14.985L164.138 14.594C164.161 14.1237 164.09 13.7638 163.926 13.5145C163.767 13.2652 163.54 13.0952 163.246 13.0045C162.957 12.9138 162.628 12.8685 162.26 12.8685C162.067 12.8685 161.857 12.8827 161.631 12.911C161.41 12.9393 161.174 12.9875 160.925 13.0555C160.681 13.1178 160.424 13.1972 160.152 13.2935C159.885 13.3842 159.61 13.4947 159.327 13.625L159.225 12.01C159.435 11.925 159.67 11.8428 159.931 11.7635C160.191 11.6842 160.472 11.6133 160.772 11.551C161.078 11.483 161.393 11.432 161.716 11.398C162.039 11.364 162.367 11.347 162.702 11.347C163.37 11.347 163.943 11.4462 164.419 11.6445C164.895 11.8428 165.26 12.1602 165.515 12.5965C165.77 13.0272 165.898 13.5882 165.898 14.2795C165.898 14.5515 165.898 14.8887 165.898 15.291C165.898 15.6933 165.898 16.0673 165.898 16.413V17.433C165.898 17.8353 165.898 18.2433 165.898 18.657C165.898 19.0707 165.898 19.5183 165.898 20H164.257L164.155 18.878H163.994C163.829 19.0877 163.622 19.2917 163.373 19.49C163.129 19.6883 162.838 19.8527 162.498 19.983C162.163 20.1133 161.789 20.1785 161.376 20.1785ZM161.971 18.7335C162.243 18.7335 162.509 18.674 162.77 18.555C163.036 18.4303 163.282 18.2547 163.509 18.028C163.736 17.8013 163.931 17.5265 164.096 17.2035V15.7075C164.011 15.7585 163.9 15.8067 163.764 15.852C163.634 15.8973 163.435 15.9483 163.169 16.005C162.903 16.0617 162.529 16.1325 162.047 16.2175C161.769 16.2628 161.531 16.345 161.333 16.464C161.135 16.583 160.979 16.7388 160.866 16.9315C160.758 17.1185 160.704 17.3423 160.704 17.603C160.704 18.0167 160.829 18.3085 161.078 18.4785C161.333 18.6485 161.631 18.7335 161.971 18.7335ZM171.31 20.204C170.516 20.204 169.856 19.9972 169.329 19.5835C168.808 19.1698 168.417 18.6258 168.156 17.9515C167.901 17.2715 167.774 16.5377 167.774 15.75C167.774 14.917 167.91 14.1662 168.182 13.4975C168.459 12.8288 168.865 12.3018 169.397 11.9165C169.93 11.5312 170.576 11.3385 171.335 11.3385C171.704 11.3385 172.044 11.3867 172.355 11.483C172.667 11.5793 172.942 11.7125 173.18 11.8825C173.418 12.0525 173.616 12.2452 173.775 12.4605H173.945V11.6105C173.945 10.9022 173.945 10.2137 173.945 9.545C173.945 8.87067 173.945 8.20767 173.945 7.556L175.764 7.3605C175.764 8.0405 175.764 8.729 175.764 9.426C175.764 10.1173 175.764 10.8455 175.764 11.6105V16.294C175.764 16.991 175.764 17.6285 175.764 18.2065C175.764 18.7845 175.764 19.3823 175.764 20H174.2L174.098 18.861H173.945C173.729 19.15 173.489 19.3937 173.222 19.592C172.962 19.7903 172.673 19.9405 172.355 20.0425C172.038 20.1502 171.689 20.204 171.31 20.204ZM171.93 18.6145C172.236 18.6145 172.514 18.5663 172.763 18.47C173.013 18.368 173.234 18.2263 173.426 18.045C173.625 17.8637 173.797 17.6483 173.945 17.399V13.965C173.792 13.7383 173.61 13.5513 173.401 13.404C173.191 13.251 172.962 13.1377 172.712 13.064C172.463 12.9847 172.208 12.945 171.947 12.945C171.426 12.945 170.995 13.0725 170.655 13.3275C170.315 13.5825 170.06 13.9253 169.89 14.356C169.72 14.781 169.635 15.2513 169.635 15.767C169.635 16.26 169.715 16.7247 169.873 17.161C170.038 17.5917 170.287 17.943 170.621 18.215C170.961 18.4813 171.398 18.6145 171.93 18.6145Z" fill="black" fill-opacity="0.5"/>
<path d="M200.5 101C200.5 77.0676 181.472 57.6666 158 57.6666C134.528 57.6666 115.5 77.0676 115.5 101C115.5 124.932 134.528 144.333 158 144.333C181.472 144.333 200.5 124.932 200.5 101Z" fill="#E2E9E2"/>
<path d="M158 83.6666V118.333M175 101H141" stroke="#011C2D" stroke-width="1.5" stroke-linecap="round" stroke-linejoin="round"/>
</svg>
