<svg width="292" height="222" viewBox="0 0 292 222" fill="none" xmlns="http://www.w3.org/2000/svg">
<path d="M292 146C292 226.634 226.634 221.5 146 221.5C65.3664 221.5 0 226.634 0 146C0 65.3664 65.3664 0 146 0C226.634 0 292 65.3664 292 146Z" fill="#035B93"/>
<g clip-path="url(#clip0_340_6)">
<path d="M13 191.373C13 191.591 13.1761 191.767 13.3953 191.767H274.605C274.824 191.767 275 191.591 275 191.373C275 191.154 274.824 190.979 274.605 190.979H13.3953C13.1761 190.979 13 191.154 13 191.373Z" fill="#FEF8EC"/>
<path d="M156.532 79.8583L159.23 63.0627L141.035 55.6735L138.341 81.1997L156.532 79.8583Z" fill="#FEF8EC"/>
<path d="M151.935 68.4613C162.182 68.4613 170.488 60.1795 170.488 49.9633C170.488 39.7472 162.182 31.4653 151.935 31.4653C141.688 31.4653 133.381 39.7472 133.381 49.9633C133.381 60.1795 141.688 68.4613 151.935 68.4613Z" fill="#FEF8EC"/>
<path d="M150.456 25.0963C150.995 25.4076 151.712 24.9373 151.885 24.3411C152.058 23.745 151.855 23.1124 151.659 22.5261C151.327 21.5424 150.991 20.5554 150.659 19.5717C149.948 17.4752 149.194 15.3058 147.659 13.7093C145.337 11.3015 141.65 10.6887 138.331 11.1325C134.069 11.7022 129.86 14.0041 127.88 17.8097C125.897 21.6153 126.74 26.9279 130.325 29.3026C125.219 35.1352 123.438 41.6402 123.721 49.3772C124.003 57.1142 132.458 64.2352 137.976 69.6869C139.208 68.9417 140.328 65.454 139.65 64.1855C138.972 62.917 139.942 61.4497 139.105 60.2839C138.268 59.118 137.564 60.9761 138.414 59.8136C138.949 59.0816 136.859 57.3957 137.657 56.9585C141.504 54.8388 142.783 50.0562 145.201 46.3963C148.114 41.9813 153.104 38.9905 158.383 38.4937C161.29 38.2188 164.363 38.7156 166.744 40.3981C169.126 42.0807 170.671 45.088 170.12 47.9497C171.551 46.499 172.262 44.3759 171.993 42.3622C171.724 40.3484 170.482 38.4804 168.718 37.457C169.787 33.9263 168.871 29.8657 166.386 27.1332C163.901 24.4008 153.815 24.8678 150.187 25.5865" fill="#2F2E41"/>
<path d="M149.892 38.5963C145.085 39.113 141.613 43.2664 138.683 47.0984C136.996 49.3076 135.225 51.7486 135.268 54.5274C135.311 57.3361 137.195 59.744 138.095 62.4069C139.567 66.759 138.132 71.9324 134.63 74.9133C138.092 75.5691 141.832 72.9824 142.43 69.5213C143.125 65.4938 140.062 61.6054 140.424 57.5315C140.743 53.9445 143.58 51.1822 145.988 48.4994C148.397 45.8167 150.662 42.2562 149.553 38.8282" fill="#2F2E41"/>
<path d="M150.812 208.013C150.812 208.013 110.615 211.987 107.625 207.35C104.635 202.713 148.417 198.077 148.417 198.077L150.812 208.013Z" fill="#FEF8EC"/>
<path d="M125.182 133.709L124.352 138.105C126.614 141.433 126.83 144.951 125.515 148.614L171.359 148.945C170.867 143.993 170.326 138.688 172.213 133.822L125.182 133.709Z" fill="#FEF8EC"/>
<path d="M200.274 166.39L183.647 153.128C181.438 151.366 180.006 148.746 179.724 145.941L177.162 120.68L192.427 115.606L196.108 140.618L205.28 161.402L200.277 166.39H200.274Z" fill="#FEF8EC"/>
<path d="M136.643 78.232L158.901 77.2384L182.488 88.4399L172.854 134.206L124.02 137.85L117.375 87.1747L136.643 78.232Z" fill="#FF8F63"/>
<path d="M172.213 144.752C175.558 149.147 176.96 159.729 178.382 170.255C178.382 170.255 116.591 169.924 116.259 169.924C115.927 169.924 125.704 147.733 125.704 147.733L172.213 144.752Z" fill="#2F2E41"/>
<path d="M174.232 167.446L178.385 170.255C178.385 170.255 237.185 166.28 232.202 184.828C227.219 203.376 211.605 206.357 211.605 206.357L148.486 210L147.822 199.733C147.822 199.733 87.0286 213.312 81.3811 185.491C75.7336 157.669 116.263 169.924 116.263 169.924L174.232 167.446Z" fill="#2F2E41"/>
<path d="M149.42 189.465C149.42 189.465 150.812 182.178 160.778 185.159C170.744 188.14 176.392 192.115 176.392 192.115L152.473 198.076L149.42 189.465Z" fill="#FEF8EC"/>
<path d="M174.349 87.6714C174.349 87.6714 185.644 83.6969 189.962 96.614C194.281 109.531 193.284 120.13 193.284 120.13L176.674 125.429L174.349 87.6714Z" fill="#FF8F63"/>
<path d="M96.8951 168.407L93.2708 162.041L101.101 142.609L104.782 117.593L120.046 122.667L117.452 148.236C117.186 150.849 115.854 153.287 113.798 154.927L96.8951 168.41V168.407Z" fill="#FEF8EC"/>
<path d="M122.857 87.6714C122.857 87.6714 111.562 83.6969 107.243 96.614C102.925 109.531 103.921 120.13 103.921 120.13L120.531 125.429L122.857 87.6714Z" fill="#FF8F63"/>
<path d="M205.078 169.314C209.481 169.314 213.05 164.05 213.05 157.556C213.05 151.063 209.481 145.799 205.078 145.799C200.674 145.799 197.105 151.063 197.105 157.556C197.105 164.05 200.674 169.314 205.078 169.314Z" fill="#FEF8EC"/>
<path d="M93.1245 171.302C97.5278 171.302 101.097 166.037 101.097 159.544C101.097 153.05 97.5278 147.786 93.1245 147.786C88.7212 147.786 85.1516 153.05 85.1516 159.544C85.1516 166.037 88.7212 171.302 93.1245 171.302Z" fill="#FEF8EC"/>
<path d="M123.571 179.198L152.473 187.478L158.12 197.414L147.32 199.733" fill="#2F2E41"/>
</g>
<defs>
<clipPath id="clip0_340_6">
<rect width="262" height="199" fill="white" transform="translate(13 11)"/>
</clipPath>
</defs>
</svg>
