<svg width="292" height="283" viewBox="0 0 292 283" fill="none" xmlns="http://www.w3.org/2000/svg">
<path d="M292 179C292 259.634 226.634 254.5 146 254.5C65.3664 254.5 0 259.634 0 179C0 98.3664 65.3664 33 146 33C226.634 33 292 98.3664 292 179Z" fill="#035B93"/>
<circle cx="144.085" cy="228.195" r="38.9833" transform="rotate(91.804 144.085 228.195)" fill="#849457"/>
<ellipse cx="142.596" cy="231" rx="36.037" ry="38.0031" transform="rotate(-36.6392 142.596 231)" fill="#011C2D"/>
<circle cx="132.841" cy="222.482" r="40.4821" fill="#E2E9E2"/>
<path d="M124.26 206.467C126.142 210.159 123.722 214.868 119.016 217.032C114.309 219.069 108.931 217.796 107.048 214.105C105.973 211.686 123.184 204.049 124.26 206.467ZM141.74 206.467C139.858 210.159 142.278 214.868 146.984 217.032C151.691 219.069 157.069 217.796 158.952 214.105C160.027 211.686 142.816 204.049 141.74 206.467Z" fill="#0B243C"/>
<path d="M151.875 233.745C140.307 230.085 126.597 230.085 115.029 233.745C112.244 234.623 115.672 239.893 118.671 238.868C126.383 236.38 137.737 235.501 148.448 238.868C151.233 239.747 154.874 234.77 151.875 233.745Z" fill="#0B243C"/>
<circle cx="150.085" cy="143.195" r="38.9833" transform="rotate(91.804 150.085 143.195)" fill="#E7AA4F"/>
<ellipse cx="148.596" cy="146" rx="36.037" ry="38.0031" transform="rotate(-36.6392 148.596 146)" fill="#011C2D"/>
<circle cx="138.841" cy="137.482" r="40.4821" fill="#E2E9E2"/>
<path d="M111.865 124.414C115.407 127.594 123.892 131.407 129.499 121.22" stroke="#0B243C" stroke-width="6" stroke-linecap="round"/>
<path d="M162.728 124.444C159.187 127.624 150.701 131.437 145.095 121.25" stroke="#0B243C" stroke-width="6" stroke-linecap="round"/>
<path d="M128.817 150.205C132.187 154.569 140.915 160.679 148.865 150.205" stroke="#0B243C" stroke-width="6" stroke-linecap="round"/>
<circle cx="55.0853" cy="180.195" r="38.9833" transform="rotate(91.804 55.0853 180.195)" fill="#456EFF"/>
<ellipse cx="53.5957" cy="183" rx="36.037" ry="38.0031" transform="rotate(-36.6392 53.5957 183)" fill="#011C2D"/>
<circle cx="43.8408" cy="174.482" r="40.4821" fill="#E2E9E2"/>
<path d="M15.8652 157.774C19.4071 160.953 27.8924 164.766 33.4987 154.579" stroke="#0B243C" stroke-width="6" stroke-linecap="round"/>
<path d="M66.7284 157.803C63.1866 160.983 54.7012 164.796 49.0949 154.609" stroke="#0B243C" stroke-width="6" stroke-linecap="round"/>
<path d="M52.8308 189.463C49.5111 185.06 40.854 178.85 32.7839 189.231" stroke="#0B243C" stroke-width="6" stroke-linecap="round"/>
<circle cx="237.085" cy="112.195" r="38.9833" transform="rotate(91.804 237.085 112.195)" fill="#FFF59F"/>
<ellipse cx="235.596" cy="115" rx="36.037" ry="38.0031" transform="rotate(-36.6392 235.596 115)" fill="#011C2D"/>
<circle cx="225.841" cy="106.482" r="40.4821" fill="#E2E9E2"/>
<path d="M246 108.533C246 107.467 245.338 106.133 243.618 105.733C238.985 104.8 232.235 104 223.5 104C214.765 104 208.015 104.933 203.382 105.733C201.662 106.133 201 107.467 201 108.533C201 118.267 208.412 128 223.5 128C238.588 128 246 118.267 246 108.533Z" fill="#0B243C"/>
<path d="M218.962 93.6839C216.438 87.2699 212.718 84 208.998 84C205.279 84 201.559 87.2699 199.035 93.6839C198.769 94.3127 200.097 95.4446 200.762 94.8157C203.153 92.4262 206.076 91.4201 208.998 91.4201C211.921 91.4201 214.844 92.4262 217.235 94.8157C218.032 95.4446 219.228 94.3127 218.962 93.6839Z" fill="#0B243C"/>
<path d="M247.965 93.6839C245.441 87.2699 241.72 84 238 84C234.28 84 230.559 87.2699 228.035 93.6839C227.769 94.3127 229.098 95.4446 229.762 94.8157C232.154 92.4262 235.077 91.4201 238 91.4201C241.056 91.4201 243.846 92.4262 246.238 94.8157C246.902 95.4446 248.231 94.3127 247.965 93.6839Z" fill="#0B243C"/>
<path d="M246 108.533C246 107.467 245.338 106.133 243.618 105.733C238.985 104.8 232.235 104 223.5 104C214.765 104 208.015 104.933 203.382 105.733C201.662 106.133 201 107.467 201 108.533C201 118.267 208.412 128 223.5 128C238.588 128 246 118.267 246 108.533Z" fill="#0B243C"/>
<path d="M241.959 107.429C238.753 106.857 232.048 106 223.448 106C214.848 106 208.143 106.857 204.937 107.429C203.042 107.714 202.896 108.429 203.042 109.571C203.188 110.143 203.188 111 203.479 111.857C203.625 112.714 203.916 113 205.374 113H241.668C243.125 113 243.271 112.714 243.563 111.857C243.708 111 243.854 110.286 244 109.571C244 108.429 243.854 107.714 241.959 107.429Z" fill="white"/>
<circle cx="239.085" cy="203.195" r="38.9833" transform="rotate(91.804 239.085 203.195)" fill="#1036C5"/>
<ellipse cx="237.596" cy="206" rx="36.037" ry="38.0031" transform="rotate(-36.6392 237.596 206)" fill="#011C2D"/>
<circle cx="227.841" cy="197.482" r="40.4821" fill="#E2E9E2"/>
<path d="M227.152 216.004L237.684 205.513L245.98 217.474" stroke="#0B243C" stroke-width="6"/>
<path d="M212.085 217.102L221.939 205.971L231.323 216.098" stroke="#0B243C" stroke-width="6"/>
<path d="M209 177L220 187L209 195.5" stroke="#0B243C" stroke-width="6"/>
<path d="M248 196.5L237 186.5L248 178" stroke="#0B243C" stroke-width="6"/>
<circle cx="65.0853" cy="92.1947" r="38.9833" transform="rotate(91.804 65.0853 92.1947)" fill="#E74F4F"/>
<ellipse cx="63.5957" cy="95" rx="36.037" ry="38.0031" transform="rotate(-36.6392 63.5957 95)" fill="#011C2D"/>
<circle cx="53.8408" cy="86.4821" r="40.4821" fill="#E2E9E2"/>
<path d="M35 68L46 78L35 86.5" stroke="#0B243C" stroke-width="6"/>
<path d="M74 86.5L63 76.5L74 68" stroke="#0B243C" stroke-width="6"/>
<path d="M66.4781 104.084C63.1497 99.688 54.4804 93.4949 46.4308 103.892" stroke="#0B243C" stroke-width="6" stroke-linecap="round"/>
<circle cx="150.085" cy="49.1947" r="38.9833" transform="rotate(91.804 150.085 49.1947)" fill="#8CA5FF"/>
<ellipse cx="148.596" cy="52" rx="36.037" ry="38.0031" transform="rotate(-36.6392 148.596 52)" fill="#011C2D"/>
<circle cx="138.841" cy="43.4821" r="40.4821" fill="#E2E9E2"/>
<path d="M158.374 48.2054C157.71 47.3979 156.383 47.1287 155.454 47.8016L149.881 51.5702C148.952 52.2431 147.493 52.1085 146.696 51.4356L140.592 46.1866C139.796 45.5136 138.469 45.5136 137.54 46.1866L131.436 51.4356C130.64 52.1085 129.18 52.2431 128.252 51.5702L122.546 47.8016C121.617 47.1287 120.29 47.3979 119.626 48.2054L113.788 55.2041C113.124 56.0116 113.257 56.2808 114.186 55.7424L119.228 52.9161C120.157 52.3777 121.617 52.5123 122.413 53.3198L128.517 59.3764C129.313 60.1839 130.64 60.1839 131.569 59.511L137.54 54.9349C138.469 54.262 139.796 54.262 140.725 54.9349L146.564 59.511C147.493 60.1839 148.82 60.0493 149.616 59.3764L155.72 53.3198C156.516 52.5123 157.976 52.3777 158.905 52.9161L163.947 55.7424C164.876 56.2808 165.141 56.0116 164.345 55.2041L158.374 48.2054ZM165.141 28.9591C165.938 29.3628 165.539 30.305 164.876 30.4395C161.293 30.9779 157.578 31.6509 153.862 33.6697C159.17 34.6118 163.416 37.3036 165.805 40.13C166.336 40.803 165.672 41.6105 165.141 41.4759C158.772 39.1879 152.27 37.842 144.175 38.7841C143.512 38.7841 142.981 38.5149 143.114 37.842C145.237 28.0169 157.578 24.383 165.141 28.9591ZM112.859 28.9591C112.062 29.3628 112.461 30.305 113.124 30.4395C116.707 30.9779 120.422 31.6509 124.138 33.6697C118.83 34.6118 114.584 37.3036 112.195 40.13C111.664 40.803 112.328 41.6105 112.859 41.4759C119.228 39.1879 125.73 37.842 133.825 38.7841C134.488 38.7841 135.019 38.5149 134.886 37.842C132.763 28.0169 120.422 24.383 112.859 28.9591Z" fill="#0B243C"/>
</svg>
