<svg width="124" height="125" viewBox="0 0 124 125" fill="none" xmlns="http://www.w3.org/2000/svg">
<path opacity="0.55" d="M107.34 34.2768C114.693 46.567 116.862 61.2747 113.371 75.1643C109.879 89.0539 101.013 100.988 88.7232 108.34C76.433 115.693 61.7253 117.862 47.8357 114.371C33.9461 110.879 22.0124 102.013 14.6597 89.7232C7.30704 77.433 5.1378 62.7254 8.62917 48.8358C12.1205 34.9461 20.9866 23.0124 33.2768 15.6597C45.567 8.30705 60.2746 6.1378 74.1642 9.62918C88.0538 13.1206 99.9876 21.9866 107.34 34.2768L107.34 34.2768Z" stroke="#F2EDE4" stroke-width="12"/>
<path opacity="0.86" d="M61.0002 8C68.5398 8 75.9958 9.57884 82.8882 12.6349C89.7806 15.6909 95.9567 20.1564 101.019 25.7438C106.081 31.3313 109.917 37.9169 112.28 45.0766C114.643 52.2363 115.48 59.8115 114.738 67.3144C113.996 74.8174 111.691 82.0818 107.972 88.64C104.252 95.1982 99.2005 100.905 93.142 105.393C87.0835 109.88 80.1523 113.049 72.7948 114.696C65.4373 116.343 57.8165 116.431 50.423 114.954" stroke="#FF4545" stroke-width="16" stroke-linecap="round"/>
<path opacity="0.55" d="M74.5884 53.2725C76.9031 57.1416 77.586 61.7717 76.4869 66.1444C75.3877 70.517 72.5966 74.2739 68.7275 76.5886C64.8584 78.9033 60.2282 79.5862 55.8556 78.4871C51.4829 77.388 47.726 74.5968 45.4113 70.7277C43.0966 66.8586 42.4137 62.2284 43.5128 57.8558C44.612 53.4832 47.4031 49.7263 51.2722 47.4116C55.1413 45.0968 59.7715 44.4139 64.1441 45.5131C68.5168 46.6122 72.2737 49.4033 74.5884 53.2725L74.5884 53.2725Z" stroke="#F2EDE4" stroke-width="12"/>
<path opacity="0.86" d="M60.0002 45.0002C64.171 45.0002 68.1964 46.5336 71.3102 49.3085C74.4241 52.0833 76.4092 55.9061 76.8878 60.0495C77.3664 64.1928 76.3051 68.3675 73.9058 71.7792C71.5066 75.1909 67.9368 77.6015 63.8758 78.5524" stroke="#93BFA8" stroke-width="16" stroke-linecap="round"/>
<path opacity="0.55" d="M90.0354 44.0312C94.801 51.9971 96.207 61.5299 93.944 70.5324C91.6811 79.5349 85.9346 87.2698 77.9688 92.0354C70.0029 96.801 60.4701 98.207 51.4676 95.9441C42.4651 93.6811 34.7302 87.9346 29.9646 79.9688C25.199 72.0029 23.793 62.4701 26.0559 53.4676C28.3189 44.4651 34.0654 36.7302 42.0312 31.9646C49.9971 27.199 59.5299 25.793 68.5324 28.0559C77.5349 30.3189 85.2698 36.0654 90.0354 44.0312L90.0354 44.0312Z" stroke="#F2EDE4" stroke-width="12"/>
<path opacity="0.86" d="M60 27C66.6083 27 73.0817 28.8709 78.6712 32.3961C84.2606 35.9214 88.7379 40.9571 91.585 46.9207C94.4322 52.8842 95.5328 59.532 94.7596 66.0949C93.9865 72.6579 91.3711 78.8679 87.2161 84.0065C83.061 89.1452 77.5361 93.0025 71.2804 95.1324C65.0247 97.2622 58.2938 97.5775 51.8664 96.0418C45.439 94.5061 39.5776 91.1821 34.9604 86.4544C30.3432 81.7267 27.1587 75.7884 25.7754 69.3265" stroke="#011C2D" stroke-width="16" stroke-linecap="round"/>
</svg>
