<svg width="163" height="121" viewBox="0 0 163 121" fill="none" xmlns="http://www.w3.org/2000/svg">
<path d="M157.713 93.4934C157.28 93.0584 156.835 92.6419 156.38 92.2444C151.454 87.9463 142.25 73.187 138.756 67.6623V67.6623C134.971 61.68 127.054 58.5081 119.931 60.1262C118.998 60.3379 118.088 60.6159 117.208 60.9547C114.708 61.9174 106.133 58.646 105.132 56.1612V56.1612C102.67 50.0504 97.5556 45.4826 91.7796 44.2423C84.7418 42.7286 76.5466 46.356 71.8503 53.0616C71.0507 54.2028 70.3217 55.4288 69.6684 56.721C68.4164 59.1971 61.1301 60.3082 58.7526 58.8778V58.8778C53.4052 55.6603 46.1665 55.5585 40.3101 58.6179C34.8556 61.4657 30.5853 66.9845 28.8841 73.3793V73.3793C27.6484 78.0313 19.1661 83.092 14.3566 83.2824C13.7041 83.3082 13.0363 83.3794 12.3518 83.5007C7.56976 84.3472 3.62088 87.2888 1.51516 91.5672C-0.577155 95.8215 -0.499462 100.711 1.72949 104.981C5.49084 112.193 13.185 116.694 25.2513 118.743C33.5965 120.16 42.1881 120.246 50.4985 120.329C52.0389 120.345 53.582 120.361 55.1198 120.383C56.3387 120.402 57.413 120.426 58.407 120.455C65.217 120.667 72.0325 120.806 78.6657 120.87C81.5136 120.897 84.356 120.911 87.1904 120.911C97.4966 120.911 107.706 120.731 117.638 120.372C120.094 120.284 122.591 120.155 125.008 120.029C128.571 119.844 132.254 119.654 135.874 119.59C141.968 119.485 147.42 119.215 152.376 116.991C156.66 115.068 162.401 111.77 162.784 105.359C163.031 101.303 161.182 96.9762 157.713 93.4934Z" fill="#74C7E5"/>
<path d="M68.4855 83.4982C67.9685 83.5571 67.5988 84.0259 67.6577 84.5403C67.8426 86.1504 67.0228 87.8891 65.6592 88.7678C64.2982 89.6465 62.3747 89.6787 60.9843 88.8455C59.5939 88.0123 58.7151 86.3031 58.8491 84.6877C58.892 84.1706 58.5062 83.7152 57.9891 83.6723C57.4667 83.6268 57.0166 84.0152 56.9738 84.5323C56.9524 84.7896 56.9484 85.0474 56.9609 85.3041C57.0337 86.8018 57.0843 88.509 55.8111 89.301V89.301C55.6637 89.392 55.6182 89.5849 55.7093 89.7323C55.7682 89.8287 55.87 89.8796 55.9772 89.8796C56.0334 89.8796 56.0924 89.8635 56.1433 89.8314C56.3062 89.7301 56.4646 89.6207 56.6177 89.5041C57.2869 88.9947 58.3404 89.0544 58.948 89.6358V89.6358C59.3626 90.0326 59.5592 90.663 59.1748 91.0891C58.96 91.3272 58.7095 91.5323 58.4312 91.6906C58.2811 91.7764 58.2276 91.9666 58.3133 92.1193C58.3695 92.2211 58.4767 92.2773 58.5865 92.2773C58.6401 92.2773 58.691 92.264 58.7419 92.2372V92.2372C59.8194 91.6284 61.1826 91.1203 62.4096 91.2815C62.6908 91.3185 62.9747 91.337 63.2588 91.337C64.4616 91.337 65.6672 91.0075 66.6826 90.3511C68.6543 89.0786 69.7983 86.6594 69.5304 84.326C69.4714 83.8089 69.0026 83.4392 68.4855 83.4982Z" fill="#231F20"/>
<path d="M108.325 89.301V89.301C107.052 88.509 107.103 86.8018 107.175 85.3042C107.188 85.0482 107.184 84.7913 107.162 84.535C107.12 84.0179 106.672 83.6348 106.147 83.6723C105.63 83.7152 105.244 84.1679 105.287 84.6877C105.418 86.3031 104.54 88.0123 103.152 88.8455C101.761 89.6787 99.8406 89.6465 98.477 88.7678C97.116 87.8891 96.2936 86.1504 96.4784 84.5403C96.5374 84.0233 96.1677 83.5571 95.6506 83.4982C95.1362 83.4392 94.6674 83.8089 94.6085 84.326C94.3406 86.6568 95.4845 89.0786 97.4563 90.3511C98.4743 91.0075 99.6772 91.337 100.88 91.337C101.164 91.337 101.448 91.3185 101.729 91.2815C102.957 91.12 104.319 91.6281 105.397 92.2372V92.2372C105.445 92.264 105.499 92.2773 105.552 92.2773C105.662 92.2773 105.769 92.2211 105.826 92.1193C105.911 91.9693 105.858 91.7764 105.708 91.6906C105.428 91.5331 105.177 91.3277 104.962 91.0885C104.578 90.6628 104.775 90.0347 105.189 89.6391V89.6391C105.797 89.0584 106.853 88.9974 107.523 89.5051C107.676 89.6212 107.835 89.7302 107.998 89.8314C108.049 89.8635 108.108 89.8796 108.164 89.8796C108.269 89.8796 108.371 89.826 108.432 89.7323C108.515 89.5876 108.472 89.3947 108.325 89.301Z" fill="#231F20"/>
<path d="M74.5563 105.782C73.565 104.67 71.8183 104.295 70.4064 104.895C68.9491 105.511 68.0355 107.081 68.282 108.547C68.5526 110.157 70.1198 111.03 71.5557 111.18C71.7218 111.196 71.8826 111.207 72.0433 111.207C73.1846 111.207 74.1785 110.773 74.7652 109.999C75.6788 108.793 75.5877 106.942 74.5563 105.782Z" fill="#91D9F2"/>
<path d="M61.7878 95.6125C60.2179 94.6775 57.9863 94.6079 56.2181 94.632C54.2303 94.6588 52.004 94.9293 50.1769 95.7545C48.7999 96.376 48.015 97.737 48.6928 99.2051C49.4509 100.85 51.5593 101.359 53.1882 101.56C55.8458 101.887 61.5226 102.064 62.9398 99.1676C63.5935 97.8254 63.047 96.3626 61.7878 95.6125Z" fill="#57B6DC"/>
<path d="M117.201 95.6125C115.631 94.6775 113.399 94.6079 111.631 94.632C109.643 94.6588 107.417 94.9293 105.59 95.7545C104.213 96.376 103.428 97.737 104.106 99.2051C104.864 100.85 106.972 101.359 108.601 101.56C111.259 101.887 116.936 102.064 118.353 99.1676C119.004 97.8254 118.46 96.3626 117.201 95.6125Z" fill="#57B6DC"/>
<path d="M7.67669 87.4363C4.22343 88.8803 1.96769 92.7675 2.42848 96.4807C2.88927 100.194 6.02641 103.414 9.72614 103.969C9.81187 103.982 9.8976 103.987 9.98601 103.987C10.8326 103.987 11.564 103.355 11.6899 102.519C11.7595 102.064 11.6443 101.608 11.3711 101.236C11.0978 100.866 10.696 100.622 10.2405 100.555C8.01693 100.221 6.13089 98.2863 5.85227 96.0547C5.57633 93.8231 6.93192 91.4843 9.00549 90.619C11.0817 89.751 13.6965 90.4288 15.0896 92.1942C15.3762 92.5559 15.7861 92.7836 16.2415 92.8372C16.6996 92.8908 17.1497 92.7622 17.5114 92.4782C17.8731 92.1916 18.1008 91.7817 18.157 91.3262C18.2133 90.8708 18.082 90.418 17.798 90.0564C15.4807 87.1175 11.1273 85.9923 7.67669 87.4363Z" fill="#57B6DC"/>
<path d="M43.7795 59.2717C39.1475 60.0728 34.9093 63.451 32.7151 68.0884C30.8291 72.0775 30.379 77.0042 31.448 81.9577C31.6194 82.7454 32.3267 83.3187 33.1331 83.3187C33.2563 83.3187 33.3795 83.3053 33.4974 83.2785C33.9475 83.1821 34.3333 82.9141 34.5824 82.5257C34.8316 82.1372 34.9173 81.6764 34.8182 81.2264C33.9073 77.0096 34.2663 72.8678 35.8308 69.5592C37.5508 65.9211 40.8219 63.2796 44.3609 62.6661C48.0472 62.0311 52.0229 63.8449 53.6115 66.8882C53.8259 67.2981 54.1848 67.5982 54.6242 67.7375C55.0636 67.8768 55.5324 67.8339 55.9396 67.6223C56.7835 67.1829 57.113 66.1381 56.671 65.2942C54.3885 60.9113 48.9634 58.377 43.7795 59.2717Z" fill="#57B6DC"/>
<path d="M96.9124 53.1394C95.5167 48.7351 90.7132 45.5444 85.7409 45.7265C81.4062 45.8819 77.1037 48.3386 74.2265 52.2982C71.9305 55.4594 70.4812 59.5503 69.9213 64.4583C69.8141 65.404 70.4946 66.2613 71.4429 66.3684C71.5099 66.3765 71.5742 66.3792 71.6385 66.3792C72.5146 66.3792 73.2513 65.7228 73.3504 64.8494C73.8434 60.5416 75.0784 56.9999 77.0207 54.3235C79.2764 51.2159 82.5823 49.2896 85.8641 49.1744C89.3442 49.0485 92.6796 51.2025 93.6226 54.1789C93.7619 54.6182 94.0646 54.9799 94.4745 55.1915C94.8844 55.4032 95.3506 55.4434 95.7873 55.3041C96.6954 55.0174 97.1991 54.0476 96.9124 53.1394Z" fill="#57B6DC"/>
<path d="M138.758 67.6623C141.433 71.8912 141.847 77.3137 140.215 81.9128C139.609 83.6199 141.219 86.2877 143.025 86.4303V86.4303C143.521 86.4695 144.024 86.3354 144.41 86.0205C153.702 78.433 159.857 66.9119 161.013 54.7387C162.321 40.9926 158.275 26.6679 150.452 17.3556C142.48 7.86381 131.592 2.14677 118.093 0.362539C110.232 -0.676923 100.912 0.563464 94.3456 3.51575C87.7633 6.47607 81.8346 11.8957 77.6553 18.7755C73.9931 24.8033 71.515 32.0447 70.2933 40.2934C70.2719 40.4354 70.3496 40.572 70.4809 40.6283C70.6121 40.6846 70.7648 40.6417 70.8532 40.5292C73.693 36.7946 78.6278 34.0299 84.752 32.7386C90.7343 31.4794 96.7916 31.9429 101.812 34.0459C107.331 36.3552 111.773 40.8105 113.699 45.9622C115.778 51.5266 114.886 57.9375 111.424 62.2936C111.36 62.3766 111.339 62.4865 111.371 62.5856C111.403 62.6847 111.483 62.7624 111.585 62.7919V62.7919C112.513 63.0529 113.496 62.8262 114.328 62.3396C116.05 61.3328 117.936 60.5741 119.933 60.1209C127.054 58.5108 134.973 61.6801 138.758 67.6623Z" fill="#F5C371"/>
<path d="M120.314 28.8539C120.094 27.7635 119.639 26.7562 119.232 25.8989C119.006 25.4301 118.447 25.2292 117.978 25.4542C117.509 25.6792 117.311 26.2391 117.533 26.708C117.895 27.4635 118.294 28.3449 118.471 29.2236C118.591 29.829 118.661 30.7158 118.294 31.5061C117.833 32.5 116.692 33.1912 115.454 33.226C114.294 33.2609 113.032 32.7438 112.006 31.8115C111.62 31.4606 111.026 31.49 110.677 31.8731C110.326 32.2589 110.356 32.8537 110.739 33.2019C112.076 34.4182 113.748 35.1067 115.35 35.1067C115.401 35.1067 115.454 35.1067 115.505 35.104C117.439 35.0505 119.245 33.9199 120 32.2937C120.459 31.3079 120.566 30.1184 120.314 28.8539Z" fill="#231F20"/>
<path d="M89.1268 18.2449C86.3406 17.2965 83.1017 20.1979 83.533 23.0671C83.7045 24.1977 84.3341 25.3443 85.1967 26.0944C86.8202 27.5036 89.4992 26.6436 90.836 25.2505C92.8319 23.1689 91.846 19.1718 89.1268 18.2449Z" fill="#FFEAA3"/>
<path d="M108.03 24.1604C107.031 21.8243 104.614 21.0206 102.415 22.0922C101.169 22.7004 99.9794 23.8229 99.8348 25.2669C99.5856 27.7637 101.549 30.7374 104.333 29.84C106.532 29.1273 109.088 26.6305 108.03 24.1604Z" fill="#FFEAA3"/>
<path d="M118.529 5.89208C118.116 5.60811 117.666 5.37771 117.2 5.21429C115.215 4.51774 113.05 4.91692 111.684 6.55916C109.002 9.78471 111.247 15.2285 115.759 14.2319C117.624 13.8193 119.858 12.6781 120.474 10.7224C121.082 8.79615 120.075 6.96102 118.529 5.89208Z" fill="#FFEAA3"/>
<path d="M149.338 20.9589C148.971 19.898 148.06 19.0889 147.021 18.7139C144.561 17.8244 142.067 19.4453 141.411 21.8858C141.001 23.4102 141.472 25.2427 142.981 26.0035C144.781 26.9117 146.911 25.9205 148.21 24.5863C149.183 23.5924 149.823 22.3627 149.338 20.9589Z" fill="#FFEAA3"/>
<path d="M151.778 35.8624C148.309 35.7419 145.086 38.3379 145.365 41.9679V41.9679C145.37 42.0366 145.383 42.1045 145.385 42.1733C145.399 42.5797 145.492 42.9949 145.694 43.4146C146.369 44.8184 147.744 45.9141 149.172 46.4741C152.352 47.7278 155.909 46.541 156.443 42.9351C156.938 39.5836 155.612 35.9937 151.778 35.8624Z" fill="#FFEAA3"/>
<path d="M131.399 48.9892C129.516 48.7507 127.689 50.4251 126.882 51.9924C126.089 53.5328 126.572 55.4188 127.89 56.5065C129.942 58.2023 133.084 57.2218 134.279 55.1858C135.844 53.1524 134.384 49.3642 131.399 48.9892Z" fill="#FFEAA3"/>
<path d="M151.763 62.2187C150.327 59.9361 147.677 59.9469 145.652 61.5248C144.122 62.717 143.128 64.812 143.868 66.7114C144.561 68.4983 146.466 69.4655 148.309 69.5083C152.357 69.6021 153.643 65.2085 151.763 62.2187Z" fill="#FFEAA3"/>
<path d="M132.257 26.8738C128.91 27.0078 126.644 30.0003 124.948 32.6043C124.512 33.1642 124.193 33.8018 124.126 34.5439C124.011 35.8084 124.686 36.9845 125.87 37.4614C128.527 38.533 131.812 35.4199 133.178 33.4643C134.354 31.7791 135.817 26.7319 132.257 26.8738Z" fill="#FFEAA3"/>
<path d="M105.807 4.815C105.517 3.75679 104.183 3.51032 103.414 3.45942C91.7499 2.67982 81.1945 13.7415 76.3267 24.3505C75.531 26.0865 74.9631 27.8305 74.6443 29.5397L74.6255 29.6362C74.43 30.6703 74.2103 31.8437 74.1299 32.8858C74.0978 33.2984 74.1835 33.6949 74.371 34.003C74.446 34.1262 74.5371 34.2361 74.6416 34.3245C74.8532 34.5066 75.0863 34.5977 75.3408 34.5977C75.4105 34.5977 75.4801 34.5897 75.5525 34.5763C76.4607 34.4022 77.334 33.1484 77.6689 32.5108C78.3333 31.2436 78.8048 29.8693 79.2603 28.5431C79.4371 28.0288 79.6139 27.5144 79.8014 27.0054C81.8268 21.508 84.921 17.026 88.9985 13.6853C92.6902 10.6606 97.2553 8.92731 101.638 7.50475C101.783 7.45652 101.992 7.40294 102.238 7.33864C103.337 7.04931 105.174 6.56173 105.702 5.65086C105.85 5.38831 105.887 5.10702 105.807 4.815Z" fill="#FFF4D1"/>
<path d="M109.172 2.26181C108.703 1.98855 108.148 2.00731 107.653 2.19484C107.379 2.29932 107.149 2.43863 106.996 2.70117C106.399 3.72456 107.87 5.11766 108.885 4.86851C109.38 4.74795 109.785 4.36217 109.906 3.86387C110.064 3.22091 109.723 2.5833 109.172 2.26181Z" fill="#FFF4D1"/>
<path d="M161.126 53.367C161.131 53.2886 161.136 53.2102 161.141 53.1317C161.165 52.7509 160.76 52.6063 160.63 52.9651V52.9651C158.415 58.9769 155.007 64.5626 150.64 69.2536C148.759 71.2736 146.723 73.1168 144.596 74.8555C144.936 74.5768 143.584 71.3379 143.393 70.8771C142.828 69.5081 142.118 68.1981 141.282 66.9711C139.64 64.5626 137.513 62.481 135.056 60.9111C129.915 57.624 123.962 57.0399 118.221 58.9528C116.954 59.3751 115.783 59.9174 114.698 60.6776C114.258 60.9859 113.758 61.2024 113.225 61.2744C113.177 61.281 113.128 61.2876 113.079 61.2944C112.416 61.3869 111.838 61.7745 111.422 62.2989V62.2989C111.358 62.3819 111.336 62.4918 111.368 62.5909C111.4 62.69 111.481 62.7677 111.583 62.7972V62.7972C112.511 63.0581 113.494 62.8315 114.326 62.3449C116.048 61.3381 117.934 60.5794 119.93 60.1262C127.054 58.5107 134.971 61.68 138.756 67.6623C141.869 72.5833 141.917 79.1222 139.244 84.0997C139.244 84.1004 139.244 84.1006 139.243 84.1014V84.1014C139.243 84.1032 139.24 84.1045 139.239 84.1061C139.141 84.2873 139.039 84.466 138.935 84.6446C138.927 84.6553 138.922 84.6687 138.914 84.6795C138.815 84.8456 138.713 85.0063 138.609 85.167C138.593 85.1911 138.579 85.2153 138.563 85.2367C138.467 85.384 138.365 85.5314 138.26 85.6761C138.236 85.7082 138.215 85.743 138.191 85.7752C138.092 85.9145 137.987 86.0484 137.883 86.1824C137.853 86.2199 137.826 86.2574 137.8 86.2922V86.2922C137.672 86.4527 137.818 86.6995 138.02 86.6634C139.667 86.3688 141.349 86.2947 143.03 86.4284C143.523 86.4676 144.017 86.334 144.4 86.0217C153.695 78.4342 159.851 66.9112 161.008 54.736C161.05 54.293 161.087 53.8501 161.116 53.4071C161.117 53.3936 161.126 53.3805 161.126 53.367V53.367Z" fill="#EBCE72"/>
</svg>
